%TF.GenerationSoftware,KiCad,Pcbnew,6.0.7-f9a2dced07~116~ubuntu22.04.1*%
%TF.CreationDate,2022-08-01T15:08:56-07:00*%
%TF.ProjectId,RFSoC_Frontend,5246536f-435f-4467-926f-6e74656e642e,rev?*%
%TF.SameCoordinates,Original*%
%TF.FileFunction,Legend,Bot*%
%TF.FilePolarity,Positive*%
%FSLAX46Y46*%
G04 Gerber Fmt 4.6, Leading zero omitted, Abs format (unit mm)*
G04 Created by KiCad (PCBNEW 6.0.7-f9a2dced07~116~ubuntu22.04.1) date 2022-08-01 15:08:56*
%MOMM*%
%LPD*%
G01*
G04 APERTURE LIST*
%ADD10C,0.187500*%
%ADD11C,0.150000*%
%ADD12C,0.015000*%
%ADD13C,0.200000*%
G04 APERTURE END LIST*
D10*
X227477256Y-81170488D02*
X227477256Y-80420488D01*
X227298685Y-80420488D01*
X227191542Y-80456203D01*
X227120113Y-80527631D01*
X227084399Y-80599060D01*
X227048685Y-80741917D01*
X227048685Y-80849060D01*
X227084399Y-80991917D01*
X227120113Y-81063345D01*
X227191542Y-81134774D01*
X227298685Y-81170488D01*
X227477256Y-81170488D01*
X152496412Y-81193337D02*
X152496412Y-80443337D01*
X152317841Y-80443337D01*
X152210698Y-80479052D01*
X152139269Y-80550480D01*
X152103555Y-80621909D01*
X152067841Y-80764766D01*
X152067841Y-80871909D01*
X152103555Y-81014766D01*
X152139269Y-81086194D01*
X152210698Y-81157623D01*
X152317841Y-81193337D01*
X152496412Y-81193337D01*
X172764269Y-72943337D02*
X172764269Y-73443337D01*
X172942841Y-72657623D02*
X173121412Y-73193337D01*
X172657126Y-73193337D01*
X172228555Y-72693337D02*
X172157126Y-72693337D01*
X172085698Y-72729052D01*
X172049984Y-72764766D01*
X172014269Y-72836194D01*
X171978555Y-72979052D01*
X171978555Y-73157623D01*
X172014269Y-73300480D01*
X172049984Y-73371909D01*
X172085698Y-73407623D01*
X172157126Y-73443337D01*
X172228555Y-73443337D01*
X172299984Y-73407623D01*
X172335698Y-73371909D01*
X172371412Y-73300480D01*
X172407126Y-73157623D01*
X172407126Y-72979052D01*
X172371412Y-72836194D01*
X172335698Y-72764766D01*
X172299984Y-72729052D01*
X172228555Y-72693337D01*
X185907126Y-72693337D02*
X185442841Y-72693337D01*
X185692841Y-72979052D01*
X185585698Y-72979052D01*
X185514269Y-73014766D01*
X185478555Y-73050480D01*
X185442841Y-73121909D01*
X185442841Y-73300480D01*
X185478555Y-73371909D01*
X185514269Y-73407623D01*
X185585698Y-73443337D01*
X185799984Y-73443337D01*
X185871412Y-73407623D01*
X185907126Y-73371909D01*
X184978555Y-72693337D02*
X184907126Y-72693337D01*
X184835698Y-72729052D01*
X184799984Y-72764766D01*
X184764269Y-72836194D01*
X184728555Y-72979052D01*
X184728555Y-73157623D01*
X184764269Y-73300480D01*
X184799984Y-73371909D01*
X184835698Y-73407623D01*
X184907126Y-73443337D01*
X184978555Y-73443337D01*
X185049984Y-73407623D01*
X185085698Y-73371909D01*
X185121412Y-73300480D01*
X185157126Y-73157623D01*
X185157126Y-72979052D01*
X185121412Y-72836194D01*
X185085698Y-72764766D01*
X185049984Y-72729052D01*
X184978555Y-72693337D01*
X123617239Y-72762862D02*
X123581525Y-72727148D01*
X123510096Y-72691433D01*
X123331525Y-72691433D01*
X123260096Y-72727148D01*
X123224382Y-72762862D01*
X123188668Y-72834290D01*
X123188668Y-72905719D01*
X123224382Y-73012862D01*
X123652953Y-73441433D01*
X123188668Y-73441433D01*
X122724382Y-72691433D02*
X122652953Y-72691433D01*
X122581525Y-72727148D01*
X122545811Y-72762862D01*
X122510096Y-72834290D01*
X122474382Y-72977148D01*
X122474382Y-73155719D01*
X122510096Y-73298576D01*
X122545811Y-73370005D01*
X122581525Y-73405719D01*
X122652953Y-73441433D01*
X122724382Y-73441433D01*
X122795811Y-73405719D01*
X122831525Y-73370005D01*
X122867239Y-73298576D01*
X122902953Y-73155719D01*
X122902953Y-72977148D01*
X122867239Y-72834290D01*
X122831525Y-72762862D01*
X122795811Y-72727148D01*
X122724382Y-72691433D01*
X152514269Y-76193337D02*
X152514269Y-75443337D01*
X152514269Y-75800480D02*
X152085698Y-75800480D01*
X152085698Y-76193337D02*
X152085698Y-75443337D01*
X167451179Y-79537107D02*
X167201179Y-79537107D01*
X167094036Y-79929964D02*
X167451179Y-79929964D01*
X167451179Y-79179964D01*
X167094036Y-79179964D01*
X92496412Y-81193337D02*
X92496412Y-80443337D01*
X92317841Y-80443337D01*
X92210698Y-80479052D01*
X92139269Y-80550480D01*
X92103555Y-80621909D01*
X92067841Y-80764766D01*
X92067841Y-80871909D01*
X92103555Y-81014766D01*
X92139269Y-81086194D01*
X92210698Y-81157623D01*
X92317841Y-81193337D01*
X92496412Y-81193337D01*
X167058322Y-82358536D02*
X167094036Y-82394250D01*
X167201179Y-82429964D01*
X167272607Y-82429964D01*
X167379750Y-82394250D01*
X167451179Y-82322821D01*
X167486893Y-82251393D01*
X167522607Y-82108536D01*
X167522607Y-82001393D01*
X167486893Y-81858536D01*
X167451179Y-81787107D01*
X167379750Y-81715679D01*
X167272607Y-81679964D01*
X167201179Y-81679964D01*
X167094036Y-81715679D01*
X167058322Y-81751393D01*
X167486893Y-81179964D02*
X167486893Y-80429964D01*
X167308322Y-80429964D01*
X167201179Y-80465679D01*
X167129750Y-80537107D01*
X167094036Y-80608536D01*
X167058322Y-80751393D01*
X167058322Y-80858536D01*
X167094036Y-81001393D01*
X167129750Y-81072821D01*
X167201179Y-81144250D01*
X167308322Y-81179964D01*
X167486893Y-81179964D01*
X227048685Y-82349060D02*
X227084399Y-82384774D01*
X227191542Y-82420488D01*
X227262970Y-82420488D01*
X227370113Y-82384774D01*
X227441542Y-82313345D01*
X227477256Y-82241917D01*
X227512970Y-82099060D01*
X227512970Y-81991917D01*
X227477256Y-81849060D01*
X227441542Y-81777631D01*
X227370113Y-81706203D01*
X227262970Y-81670488D01*
X227191542Y-81670488D01*
X227084399Y-81706203D01*
X227048685Y-81741917D01*
X116871412Y-72764766D02*
X116835698Y-72729052D01*
X116764269Y-72693337D01*
X116585698Y-72693337D01*
X116514269Y-72729052D01*
X116478555Y-72764766D01*
X116442841Y-72836194D01*
X116442841Y-72907623D01*
X116478555Y-73014766D01*
X116907126Y-73443337D01*
X116442841Y-73443337D01*
X115764269Y-72693337D02*
X116121412Y-72693337D01*
X116157126Y-73050480D01*
X116121412Y-73014766D01*
X116049984Y-72979052D01*
X115871412Y-72979052D01*
X115799984Y-73014766D01*
X115764269Y-73050480D01*
X115728555Y-73121909D01*
X115728555Y-73300480D01*
X115764269Y-73371909D01*
X115799984Y-73407623D01*
X115871412Y-73443337D01*
X116049984Y-73443337D01*
X116121412Y-73407623D01*
X116157126Y-73371909D01*
X135692841Y-73443337D02*
X136121412Y-73443337D01*
X135907126Y-73443337D02*
X135907126Y-72693337D01*
X135978555Y-72800480D01*
X136049984Y-72871909D01*
X136121412Y-72907623D01*
X135228555Y-72693337D02*
X135157126Y-72693337D01*
X135085698Y-72729052D01*
X135049984Y-72764766D01*
X135014269Y-72836194D01*
X134978555Y-72979052D01*
X134978555Y-73157623D01*
X135014269Y-73300480D01*
X135049984Y-73371909D01*
X135085698Y-73407623D01*
X135157126Y-73443337D01*
X135228555Y-73443337D01*
X135299984Y-73407623D01*
X135335698Y-73371909D01*
X135371412Y-73300480D01*
X135407126Y-73157623D01*
X135407126Y-72979052D01*
X135371412Y-72836194D01*
X135335698Y-72764766D01*
X135299984Y-72729052D01*
X135228555Y-72693337D01*
X227173685Y-78277631D02*
X227423685Y-78277631D01*
X227423685Y-78670488D02*
X227423685Y-77920488D01*
X227066542Y-77920488D01*
X97764269Y-72943337D02*
X97764269Y-73443337D01*
X97942841Y-72657623D02*
X98121412Y-73193337D01*
X97657126Y-73193337D01*
X97228555Y-72693337D02*
X97157126Y-72693337D01*
X97085698Y-72729052D01*
X97049984Y-72764766D01*
X97014269Y-72836194D01*
X96978555Y-72979052D01*
X96978555Y-73157623D01*
X97014269Y-73300480D01*
X97049984Y-73371909D01*
X97085698Y-73407623D01*
X97157126Y-73443337D01*
X97228555Y-73443337D01*
X97299984Y-73407623D01*
X97335698Y-73371909D01*
X97371412Y-73300480D01*
X97407126Y-73157623D01*
X97407126Y-72979052D01*
X97371412Y-72836194D01*
X97335698Y-72764766D01*
X97299984Y-72729052D01*
X97228555Y-72693337D01*
X92514269Y-76193337D02*
X92514269Y-75443337D01*
X92514269Y-75800480D02*
X92085698Y-75800480D01*
X92085698Y-76193337D02*
X92085698Y-75443337D01*
X210692841Y-73443337D02*
X211121412Y-73443337D01*
X210907126Y-73443337D02*
X210907126Y-72693337D01*
X210978555Y-72800480D01*
X211049984Y-72871909D01*
X211121412Y-72907623D01*
X210228555Y-72693337D02*
X210157126Y-72693337D01*
X210085698Y-72729052D01*
X210049984Y-72764766D01*
X210014269Y-72836194D01*
X209978555Y-72979052D01*
X209978555Y-73157623D01*
X210014269Y-73300480D01*
X210049984Y-73371909D01*
X210085698Y-73407623D01*
X210157126Y-73443337D01*
X210228555Y-73443337D01*
X210299984Y-73407623D01*
X210335698Y-73371909D01*
X210371412Y-73300480D01*
X210407126Y-73157623D01*
X210407126Y-72979052D01*
X210371412Y-72836194D01*
X210335698Y-72764766D01*
X210299984Y-72729052D01*
X210228555Y-72693337D01*
X92103555Y-76729052D02*
X92174984Y-76693337D01*
X92282126Y-76693337D01*
X92389269Y-76729052D01*
X92460698Y-76800480D01*
X92496412Y-76871909D01*
X92532126Y-77014766D01*
X92532126Y-77121909D01*
X92496412Y-77264766D01*
X92460698Y-77336194D01*
X92389269Y-77407623D01*
X92282126Y-77443337D01*
X92210698Y-77443337D01*
X92103555Y-77407623D01*
X92067841Y-77371909D01*
X92067841Y-77121909D01*
X92210698Y-77121909D01*
X110907126Y-72693337D02*
X110442841Y-72693337D01*
X110692841Y-72979052D01*
X110585698Y-72979052D01*
X110514269Y-73014766D01*
X110478555Y-73050480D01*
X110442841Y-73121909D01*
X110442841Y-73300480D01*
X110478555Y-73371909D01*
X110514269Y-73407623D01*
X110585698Y-73443337D01*
X110799984Y-73443337D01*
X110871412Y-73407623D01*
X110907126Y-73371909D01*
X109978555Y-72693337D02*
X109907126Y-72693337D01*
X109835698Y-72729052D01*
X109799984Y-72764766D01*
X109764269Y-72836194D01*
X109728555Y-72979052D01*
X109728555Y-73157623D01*
X109764269Y-73300480D01*
X109799984Y-73371909D01*
X109835698Y-73407623D01*
X109907126Y-73443337D01*
X109978555Y-73443337D01*
X110049984Y-73407623D01*
X110085698Y-73371909D01*
X110121412Y-73300480D01*
X110157126Y-73157623D01*
X110157126Y-72979052D01*
X110121412Y-72836194D01*
X110085698Y-72764766D01*
X110049984Y-72729052D01*
X109978555Y-72693337D01*
X152478555Y-84729052D02*
X152121412Y-84729052D01*
X152549984Y-84943337D02*
X152299984Y-84193337D01*
X152049984Y-84943337D01*
X227459399Y-84706203D02*
X227102256Y-84706203D01*
X227530828Y-84920488D02*
X227280828Y-84170488D01*
X227030828Y-84920488D01*
X227441542Y-79527631D02*
X227191542Y-79527631D01*
X227084399Y-79920488D02*
X227441542Y-79920488D01*
X227441542Y-79170488D01*
X227084399Y-79170488D01*
X227227256Y-83277631D02*
X227120113Y-83313345D01*
X227084399Y-83349060D01*
X227048685Y-83420488D01*
X227048685Y-83527631D01*
X227084399Y-83599060D01*
X227120113Y-83634774D01*
X227191542Y-83670488D01*
X227477256Y-83670488D01*
X227477256Y-82920488D01*
X227227256Y-82920488D01*
X227155828Y-82956203D01*
X227120113Y-82991917D01*
X227084399Y-83063345D01*
X227084399Y-83134774D01*
X227120113Y-83206203D01*
X227155828Y-83241917D01*
X227227256Y-83277631D01*
X227477256Y-83277631D01*
X216871412Y-72693337D02*
X217228555Y-72693337D01*
X217264269Y-73050480D01*
X217228555Y-73014766D01*
X217157126Y-72979052D01*
X216978555Y-72979052D01*
X216907126Y-73014766D01*
X216871412Y-73050480D01*
X216835698Y-73121909D01*
X216835698Y-73300480D01*
X216871412Y-73371909D01*
X216907126Y-73407623D01*
X216978555Y-73443337D01*
X217157126Y-73443337D01*
X217228555Y-73407623D01*
X217264269Y-73371909D01*
X179407126Y-72693337D02*
X178942841Y-72693337D01*
X179192841Y-72979052D01*
X179085698Y-72979052D01*
X179014269Y-73014766D01*
X178978555Y-73050480D01*
X178942841Y-73121909D01*
X178942841Y-73300480D01*
X178978555Y-73371909D01*
X179014269Y-73407623D01*
X179085698Y-73443337D01*
X179299984Y-73443337D01*
X179371412Y-73407623D01*
X179407126Y-73371909D01*
X178264269Y-72693337D02*
X178621412Y-72693337D01*
X178657126Y-73050480D01*
X178621412Y-73014766D01*
X178549984Y-72979052D01*
X178371412Y-72979052D01*
X178299984Y-73014766D01*
X178264269Y-73050480D01*
X178228555Y-73121909D01*
X178228555Y-73300480D01*
X178264269Y-73371909D01*
X178299984Y-73407623D01*
X178371412Y-73443337D01*
X178549984Y-73443337D01*
X178621412Y-73407623D01*
X178657126Y-73371909D01*
X167236893Y-83287107D02*
X167129750Y-83322821D01*
X167094036Y-83358536D01*
X167058322Y-83429964D01*
X167058322Y-83537107D01*
X167094036Y-83608536D01*
X167129750Y-83644250D01*
X167201179Y-83679964D01*
X167486893Y-83679964D01*
X167486893Y-82929964D01*
X167236893Y-82929964D01*
X167165465Y-82965679D01*
X167129750Y-83001393D01*
X167094036Y-83072821D01*
X167094036Y-83144250D01*
X167129750Y-83215679D01*
X167165465Y-83251393D01*
X167236893Y-83287107D01*
X167486893Y-83287107D01*
X92460698Y-79550480D02*
X92210698Y-79550480D01*
X92103555Y-79943337D02*
X92460698Y-79943337D01*
X92460698Y-79193337D01*
X92103555Y-79193337D01*
D11*
X175799984Y-72056432D02*
X176133317Y-71580242D01*
X176371412Y-72056432D02*
X176371412Y-71056432D01*
X175990460Y-71056432D01*
X175895222Y-71104052D01*
X175847603Y-71151671D01*
X175799984Y-71246909D01*
X175799984Y-71389766D01*
X175847603Y-71485004D01*
X175895222Y-71532623D01*
X175990460Y-71580242D01*
X176371412Y-71580242D01*
X175038079Y-71532623D02*
X175371412Y-71532623D01*
X175371412Y-72056432D02*
X175371412Y-71056432D01*
X174895222Y-71056432D01*
X174514269Y-72056432D02*
X174514269Y-71056432D01*
X174180936Y-71770718D01*
X173847603Y-71056432D01*
X173847603Y-72056432D01*
X172799984Y-71961194D02*
X172847603Y-72008813D01*
X172990460Y-72056432D01*
X173085698Y-72056432D01*
X173228555Y-72008813D01*
X173323793Y-71913575D01*
X173371412Y-71818337D01*
X173419031Y-71627861D01*
X173419031Y-71485004D01*
X173371412Y-71294528D01*
X173323793Y-71199290D01*
X173228555Y-71104052D01*
X173085698Y-71056432D01*
X172990460Y-71056432D01*
X172847603Y-71104052D01*
X172799984Y-71151671D01*
X171657126Y-71770718D02*
X171180936Y-71770718D01*
X171752364Y-72056432D02*
X171419031Y-71056432D01*
X171085698Y-72056432D01*
X170752364Y-72056432D02*
X170752364Y-71056432D01*
X170514269Y-71056432D01*
X170371412Y-71104052D01*
X170276174Y-71199290D01*
X170228555Y-71294528D01*
X170180936Y-71485004D01*
X170180936Y-71627861D01*
X170228555Y-71818337D01*
X170276174Y-71913575D01*
X170371412Y-72008813D01*
X170514269Y-72056432D01*
X170752364Y-72056432D01*
X169180936Y-71961194D02*
X169228555Y-72008813D01*
X169371412Y-72056432D01*
X169466650Y-72056432D01*
X169609507Y-72008813D01*
X169704745Y-71913575D01*
X169752364Y-71818337D01*
X169799984Y-71627861D01*
X169799984Y-71485004D01*
X169752364Y-71294528D01*
X169704745Y-71199290D01*
X169609507Y-71104052D01*
X169466650Y-71056432D01*
X169371412Y-71056432D01*
X169228555Y-71104052D01*
X169180936Y-71151671D01*
D10*
X227084399Y-76706203D02*
X227155828Y-76670488D01*
X227262970Y-76670488D01*
X227370113Y-76706203D01*
X227441542Y-76777631D01*
X227477256Y-76849060D01*
X227512970Y-76991917D01*
X227512970Y-77099060D01*
X227477256Y-77241917D01*
X227441542Y-77313345D01*
X227370113Y-77384774D01*
X227262970Y-77420488D01*
X227191542Y-77420488D01*
X227084399Y-77384774D01*
X227048685Y-77349060D01*
X227048685Y-77099060D01*
X227191542Y-77099060D01*
X146831525Y-73441433D02*
X147260096Y-73441433D01*
X147045811Y-73441433D02*
X147045811Y-72691433D01*
X147117239Y-72798576D01*
X147188668Y-72870005D01*
X147260096Y-72905719D01*
X92067841Y-82371909D02*
X92103555Y-82407623D01*
X92210698Y-82443337D01*
X92282126Y-82443337D01*
X92389269Y-82407623D01*
X92460698Y-82336194D01*
X92496412Y-82264766D01*
X92532126Y-82121909D01*
X92532126Y-82014766D01*
X92496412Y-81871909D01*
X92460698Y-81800480D01*
X92389269Y-81729052D01*
X92282126Y-81693337D01*
X92210698Y-81693337D01*
X92103555Y-81729052D01*
X92067841Y-81764766D01*
X227495113Y-76170488D02*
X227495113Y-75420488D01*
X227495113Y-75777631D02*
X227066542Y-75777631D01*
X227066542Y-76170488D02*
X227066542Y-75420488D01*
X92478555Y-84729052D02*
X92121412Y-84729052D01*
X92549984Y-84943337D02*
X92299984Y-84193337D01*
X92049984Y-84943337D01*
X167469036Y-84715679D02*
X167111893Y-84715679D01*
X167540465Y-84929964D02*
X167290465Y-84179964D01*
X167040465Y-84929964D01*
X141871412Y-72693337D02*
X142228555Y-72693337D01*
X142264269Y-73050480D01*
X142228555Y-73014766D01*
X142157126Y-72979052D01*
X141978555Y-72979052D01*
X141907126Y-73014766D01*
X141871412Y-73050480D01*
X141835698Y-73121909D01*
X141835698Y-73300480D01*
X141871412Y-73371909D01*
X141907126Y-73407623D01*
X141978555Y-73443337D01*
X142157126Y-73443337D01*
X142228555Y-73407623D01*
X142264269Y-73371909D01*
X198621412Y-72764766D02*
X198585698Y-72729052D01*
X198514269Y-72693337D01*
X198335698Y-72693337D01*
X198264269Y-72729052D01*
X198228555Y-72764766D01*
X198192841Y-72836194D01*
X198192841Y-72907623D01*
X198228555Y-73014766D01*
X198657126Y-73443337D01*
X198192841Y-73443337D01*
X197728555Y-72693337D02*
X197657126Y-72693337D01*
X197585698Y-72729052D01*
X197549984Y-72764766D01*
X197514269Y-72836194D01*
X197478555Y-72979052D01*
X197478555Y-73157623D01*
X197514269Y-73300480D01*
X197549984Y-73371909D01*
X197585698Y-73407623D01*
X197657126Y-73443337D01*
X197728555Y-73443337D01*
X197799984Y-73407623D01*
X197835698Y-73371909D01*
X197871412Y-73300480D01*
X197907126Y-73157623D01*
X197907126Y-72979052D01*
X197871412Y-72836194D01*
X197835698Y-72764766D01*
X197799984Y-72729052D01*
X197728555Y-72693337D01*
X104407126Y-72693337D02*
X103942841Y-72693337D01*
X104192841Y-72979052D01*
X104085698Y-72979052D01*
X104014269Y-73014766D01*
X103978555Y-73050480D01*
X103942841Y-73121909D01*
X103942841Y-73300480D01*
X103978555Y-73371909D01*
X104014269Y-73407623D01*
X104085698Y-73443337D01*
X104299984Y-73443337D01*
X104371412Y-73407623D01*
X104407126Y-73371909D01*
X103264269Y-72693337D02*
X103621412Y-72693337D01*
X103657126Y-73050480D01*
X103621412Y-73014766D01*
X103549984Y-72979052D01*
X103371412Y-72979052D01*
X103299984Y-73014766D01*
X103264269Y-73050480D01*
X103228555Y-73121909D01*
X103228555Y-73300480D01*
X103264269Y-73371909D01*
X103299984Y-73407623D01*
X103371412Y-73443337D01*
X103549984Y-73443337D01*
X103621412Y-73407623D01*
X103657126Y-73371909D01*
X129442841Y-73443337D02*
X129871412Y-73443337D01*
X129657126Y-73443337D02*
X129657126Y-72693337D01*
X129728555Y-72800480D01*
X129799984Y-72871909D01*
X129871412Y-72907623D01*
X128764269Y-72693337D02*
X129121412Y-72693337D01*
X129157126Y-73050480D01*
X129121412Y-73014766D01*
X129049984Y-72979052D01*
X128871412Y-72979052D01*
X128799984Y-73014766D01*
X128764269Y-73050480D01*
X128728555Y-73121909D01*
X128728555Y-73300480D01*
X128764269Y-73371909D01*
X128799984Y-73407623D01*
X128871412Y-73443337D01*
X129049984Y-73443337D01*
X129121412Y-73407623D01*
X129157126Y-73371909D01*
X152246412Y-83300480D02*
X152139269Y-83336194D01*
X152103555Y-83371909D01*
X152067841Y-83443337D01*
X152067841Y-83550480D01*
X152103555Y-83621909D01*
X152139269Y-83657623D01*
X152210698Y-83693337D01*
X152496412Y-83693337D01*
X152496412Y-82943337D01*
X152246412Y-82943337D01*
X152174984Y-82979052D01*
X152139269Y-83014766D01*
X152103555Y-83086194D01*
X152103555Y-83157623D01*
X152139269Y-83229052D01*
X152174984Y-83264766D01*
X152246412Y-83300480D01*
X152496412Y-83300480D01*
X152103555Y-76729052D02*
X152174984Y-76693337D01*
X152282126Y-76693337D01*
X152389269Y-76729052D01*
X152460698Y-76800480D01*
X152496412Y-76871909D01*
X152532126Y-77014766D01*
X152532126Y-77121909D01*
X152496412Y-77264766D01*
X152460698Y-77336194D01*
X152389269Y-77407623D01*
X152282126Y-77443337D01*
X152210698Y-77443337D01*
X152103555Y-77407623D01*
X152067841Y-77371909D01*
X152067841Y-77121909D01*
X152210698Y-77121909D01*
X221835698Y-73443337D02*
X222264269Y-73443337D01*
X222049984Y-73443337D02*
X222049984Y-72693337D01*
X222121412Y-72800480D01*
X222192841Y-72871909D01*
X222264269Y-72907623D01*
X92192841Y-78300480D02*
X92442841Y-78300480D01*
X92442841Y-78693337D02*
X92442841Y-77943337D01*
X92085698Y-77943337D01*
X152067841Y-82371909D02*
X152103555Y-82407623D01*
X152210698Y-82443337D01*
X152282126Y-82443337D01*
X152389269Y-82407623D01*
X152460698Y-82336194D01*
X152496412Y-82264766D01*
X152532126Y-82121909D01*
X152532126Y-82014766D01*
X152496412Y-81871909D01*
X152460698Y-81800480D01*
X152389269Y-81729052D01*
X152282126Y-81693337D01*
X152210698Y-81693337D01*
X152103555Y-81729052D01*
X152067841Y-81764766D01*
X152192841Y-78300480D02*
X152442841Y-78300480D01*
X152442841Y-78693337D02*
X152442841Y-77943337D01*
X152085698Y-77943337D01*
X92246412Y-83300480D02*
X92139269Y-83336194D01*
X92103555Y-83371909D01*
X92067841Y-83443337D01*
X92067841Y-83550480D01*
X92103555Y-83621909D01*
X92139269Y-83657623D01*
X92210698Y-83693337D01*
X92496412Y-83693337D01*
X92496412Y-82943337D01*
X92246412Y-82943337D01*
X92174984Y-82979052D01*
X92139269Y-83014766D01*
X92103555Y-83086194D01*
X92103555Y-83157623D01*
X92139269Y-83229052D01*
X92174984Y-83264766D01*
X92246412Y-83300480D01*
X92496412Y-83300480D01*
X191871412Y-72764766D02*
X191835698Y-72729052D01*
X191764269Y-72693337D01*
X191585698Y-72693337D01*
X191514269Y-72729052D01*
X191478555Y-72764766D01*
X191442841Y-72836194D01*
X191442841Y-72907623D01*
X191478555Y-73014766D01*
X191907126Y-73443337D01*
X191442841Y-73443337D01*
X190764269Y-72693337D02*
X191121412Y-72693337D01*
X191157126Y-73050480D01*
X191121412Y-73014766D01*
X191049984Y-72979052D01*
X190871412Y-72979052D01*
X190799984Y-73014766D01*
X190764269Y-73050480D01*
X190728555Y-73121909D01*
X190728555Y-73300480D01*
X190764269Y-73371909D01*
X190799984Y-73407623D01*
X190871412Y-73443337D01*
X191049984Y-73443337D01*
X191121412Y-73407623D01*
X191157126Y-73371909D01*
D11*
X100799984Y-72056432D02*
X101133317Y-71580242D01*
X101371412Y-72056432D02*
X101371412Y-71056432D01*
X100990460Y-71056432D01*
X100895222Y-71104052D01*
X100847603Y-71151671D01*
X100799984Y-71246909D01*
X100799984Y-71389766D01*
X100847603Y-71485004D01*
X100895222Y-71532623D01*
X100990460Y-71580242D01*
X101371412Y-71580242D01*
X100038079Y-71532623D02*
X100371412Y-71532623D01*
X100371412Y-72056432D02*
X100371412Y-71056432D01*
X99895222Y-71056432D01*
X99514269Y-72056432D02*
X99514269Y-71056432D01*
X99180936Y-71770718D01*
X98847603Y-71056432D01*
X98847603Y-72056432D01*
X97799984Y-71961194D02*
X97847603Y-72008813D01*
X97990460Y-72056432D01*
X98085698Y-72056432D01*
X98228555Y-72008813D01*
X98323793Y-71913575D01*
X98371412Y-71818337D01*
X98419031Y-71627861D01*
X98419031Y-71485004D01*
X98371412Y-71294528D01*
X98323793Y-71199290D01*
X98228555Y-71104052D01*
X98085698Y-71056432D01*
X97990460Y-71056432D01*
X97847603Y-71104052D01*
X97799984Y-71151671D01*
X96609507Y-72056432D02*
X96609507Y-71056432D01*
X96371412Y-71056432D01*
X96228555Y-71104052D01*
X96133317Y-71199290D01*
X96085698Y-71294528D01*
X96038079Y-71485004D01*
X96038079Y-71627861D01*
X96085698Y-71818337D01*
X96133317Y-71913575D01*
X96228555Y-72008813D01*
X96371412Y-72056432D01*
X96609507Y-72056432D01*
X95657126Y-71770718D02*
X95180936Y-71770718D01*
X95752364Y-72056432D02*
X95419031Y-71056432D01*
X95085698Y-72056432D01*
X94180936Y-71961194D02*
X94228555Y-72008813D01*
X94371412Y-72056432D01*
X94466650Y-72056432D01*
X94609507Y-72008813D01*
X94704745Y-71913575D01*
X94752364Y-71818337D01*
X94799984Y-71627861D01*
X94799984Y-71485004D01*
X94752364Y-71294528D01*
X94704745Y-71199290D01*
X94609507Y-71104052D01*
X94466650Y-71056432D01*
X94371412Y-71056432D01*
X94228555Y-71104052D01*
X94180936Y-71151671D01*
D10*
X152460698Y-79550480D02*
X152210698Y-79550480D01*
X152103555Y-79943337D02*
X152460698Y-79943337D01*
X152460698Y-79193337D01*
X152103555Y-79193337D01*
X204442841Y-73443337D02*
X204871412Y-73443337D01*
X204657126Y-73443337D02*
X204657126Y-72693337D01*
X204728555Y-72800480D01*
X204799984Y-72871909D01*
X204871412Y-72907623D01*
X203764269Y-72693337D02*
X204121412Y-72693337D01*
X204157126Y-73050480D01*
X204121412Y-73014766D01*
X204049984Y-72979052D01*
X203871412Y-72979052D01*
X203799984Y-73014766D01*
X203764269Y-73050480D01*
X203728555Y-73121909D01*
X203728555Y-73300480D01*
X203764269Y-73371909D01*
X203799984Y-73407623D01*
X203871412Y-73443337D01*
X204049984Y-73443337D01*
X204121412Y-73407623D01*
X204157126Y-73371909D01*
X167094036Y-76715679D02*
X167165465Y-76679964D01*
X167272607Y-76679964D01*
X167379750Y-76715679D01*
X167451179Y-76787107D01*
X167486893Y-76858536D01*
X167522607Y-77001393D01*
X167522607Y-77108536D01*
X167486893Y-77251393D01*
X167451179Y-77322821D01*
X167379750Y-77394250D01*
X167272607Y-77429964D01*
X167201179Y-77429964D01*
X167094036Y-77394250D01*
X167058322Y-77358536D01*
X167058322Y-77108536D01*
X167201179Y-77108536D01*
X167504750Y-76179964D02*
X167504750Y-75429964D01*
X167504750Y-75787107D02*
X167076179Y-75787107D01*
X167076179Y-76179964D02*
X167076179Y-75429964D01*
X167183322Y-78287107D02*
X167433322Y-78287107D01*
X167433322Y-78679964D02*
X167433322Y-77929964D01*
X167076179Y-77929964D01*
D12*
%TO.C,J10*%
X149139549Y-71247432D02*
X149139549Y-71961718D01*
X149187168Y-72104575D01*
X149282406Y-72199813D01*
X149425264Y-72247432D01*
X149520502Y-72247432D01*
X148139549Y-72247432D02*
X148710978Y-72247432D01*
X148425264Y-72247432D02*
X148425264Y-71247432D01*
X148520502Y-71390290D01*
X148615740Y-71485528D01*
X148710978Y-71533147D01*
X147520502Y-71247432D02*
X147425264Y-71247432D01*
X147330026Y-71295052D01*
X147282406Y-71342671D01*
X147234787Y-71437909D01*
X147187168Y-71628385D01*
X147187168Y-71866480D01*
X147234787Y-72056956D01*
X147282406Y-72152194D01*
X147330026Y-72199813D01*
X147425264Y-72247432D01*
X147520502Y-72247432D01*
X147615740Y-72199813D01*
X147663359Y-72152194D01*
X147710978Y-72056956D01*
X147758597Y-71866480D01*
X147758597Y-71628385D01*
X147710978Y-71437909D01*
X147663359Y-71342671D01*
X147615740Y-71295052D01*
X147520502Y-71247432D01*
%TO.C,J9*%
X223663011Y-71247432D02*
X223663011Y-71961718D01*
X223710630Y-72104575D01*
X223805868Y-72199813D01*
X223948725Y-72247432D01*
X224043963Y-72247432D01*
X223139201Y-72247432D02*
X222948725Y-72247432D01*
X222853487Y-72199813D01*
X222805868Y-72152194D01*
X222710630Y-72009337D01*
X222663011Y-71818861D01*
X222663011Y-71437909D01*
X222710630Y-71342671D01*
X222758249Y-71295052D01*
X222853487Y-71247432D01*
X223043963Y-71247432D01*
X223139201Y-71295052D01*
X223186820Y-71342671D01*
X223234439Y-71437909D01*
X223234439Y-71676004D01*
X223186820Y-71771242D01*
X223139201Y-71818861D01*
X223043963Y-71866480D01*
X222853487Y-71866480D01*
X222758249Y-71818861D01*
X222710630Y-71771242D01*
X222663011Y-71676004D01*
D13*
%TO.C,J10*%
X151285026Y-87060052D02*
X93725026Y-87060052D01*
X151285026Y-73800052D02*
X151285026Y-87060052D01*
X93725026Y-73800052D02*
X151285026Y-73800052D01*
X93725026Y-87060052D02*
X93725026Y-73800052D01*
X147533026Y-87544052D02*
G75*
G03*
X147533026Y-87544052I-100000J0D01*
G01*
%TO.C,J9*%
X168724678Y-87060052D02*
X168724678Y-73800052D01*
X226284678Y-73800052D02*
X226284678Y-87060052D01*
X226284678Y-87060052D02*
X168724678Y-87060052D01*
X168724678Y-73800052D02*
X226284678Y-73800052D01*
X222532678Y-87544052D02*
G75*
G03*
X222532678Y-87544052I-100000J0D01*
G01*
%TD*%
M02*
