%TF.GenerationSoftware,KiCad,Pcbnew,6.0.7-f9a2dced07~116~ubuntu22.04.1*%
%TF.CreationDate,2022-08-01T15:08:56-07:00*%
%TF.ProjectId,RFSoC_Frontend,5246536f-435f-4467-926f-6e74656e642e,rev?*%
%TF.SameCoordinates,Original*%
%TF.FileFunction,Soldermask,Bot*%
%TF.FilePolarity,Negative*%
%FSLAX46Y46*%
G04 Gerber Fmt 4.6, Leading zero omitted, Abs format (unit mm)*
G04 Created by KiCad (PCBNEW 6.0.7-f9a2dced07~116~ubuntu22.04.1) date 2022-08-01 15:08:56*
%MOMM*%
%LPD*%
G01*
G04 APERTURE LIST*
%ADD10R,1.500000X5.080000*%
%ADD11C,10.000000*%
%ADD12C,6.400000*%
%ADD13C,1.450000*%
%ADD14C,0.640000*%
%ADD15C,0.508000*%
G04 APERTURE END LIST*
D10*
%TO.C,J1*%
X237173684Y-111430052D03*
X228673684Y-111430052D03*
%TD*%
%TO.C,J2*%
X222409184Y-111430052D03*
X213909184Y-111430052D03*
%TD*%
%TO.C,J3*%
X186048784Y-111430052D03*
X194548784Y-111430052D03*
%TD*%
%TO.C,J4*%
X207905784Y-111430052D03*
X199405784Y-111430052D03*
%TD*%
%TO.C,J6*%
X130456984Y-111603552D03*
X138956984Y-111603552D03*
%TD*%
%TO.C,J7*%
X102022484Y-111755952D03*
X110522484Y-111755952D03*
%TD*%
%TO.C,J8*%
X124809184Y-111755952D03*
X116309184Y-111755952D03*
%TD*%
%TO.C,J5*%
X145417584Y-111603552D03*
X153917584Y-111603552D03*
%TD*%
D11*
%TO.C,e1*%
X160000000Y-80000000D03*
%TD*%
D12*
%TO.C,REF\u002A\u002A*%
X90004184Y-101430052D03*
%TD*%
%TO.C,REF\u002A\u002A*%
X166204184Y-101430052D03*
%TD*%
D11*
%TO.C,e*%
X235000000Y-80000000D03*
%TD*%
%TO.C,e2*%
X85000000Y-80000000D03*
%TD*%
D13*
%TO.C,J10*%
X149455026Y-82460052D03*
X95555026Y-80430052D03*
D14*
X147270026Y-84750052D03*
X146000026Y-84750052D03*
X144730026Y-84750052D03*
X143460026Y-84750052D03*
X142190026Y-84750052D03*
X140920026Y-84750052D03*
X139650026Y-84750052D03*
X138380026Y-84750052D03*
X137110026Y-84750052D03*
X135840026Y-84750052D03*
X134570026Y-84750052D03*
X133300026Y-84750052D03*
X132030026Y-84750052D03*
X130760026Y-84750052D03*
X129490026Y-84750052D03*
X128220026Y-84750052D03*
X126950026Y-84750052D03*
X125680026Y-84750052D03*
X124410026Y-84750052D03*
X123140026Y-84750052D03*
X121870026Y-84750052D03*
X120600026Y-84750052D03*
X119330026Y-84750052D03*
X118060026Y-84750052D03*
X116790026Y-84750052D03*
X115520026Y-84750052D03*
X114250026Y-84750052D03*
X112980026Y-84750052D03*
X111710026Y-84750052D03*
X110440026Y-84750052D03*
X109170026Y-84750052D03*
X107900026Y-84750052D03*
X106630026Y-84750052D03*
X105360026Y-84750052D03*
X104090026Y-84750052D03*
X102820026Y-84750052D03*
X101550026Y-84750052D03*
X100280026Y-84750052D03*
X99010026Y-84750052D03*
X97740026Y-84750052D03*
X147270026Y-83480052D03*
X146000026Y-83480052D03*
X144730026Y-83480052D03*
X143460026Y-83480052D03*
X142190026Y-83480052D03*
X140920026Y-83480052D03*
X139650026Y-83480052D03*
X138380026Y-83480052D03*
X137110026Y-83480052D03*
X135840026Y-83480052D03*
X134570026Y-83480052D03*
X133300026Y-83480052D03*
X132030026Y-83480052D03*
X130760026Y-83480052D03*
X129490026Y-83480052D03*
X128220026Y-83480052D03*
X126950026Y-83480052D03*
X125680026Y-83480052D03*
X124410026Y-83480052D03*
X123140026Y-83480052D03*
X121870026Y-83480052D03*
X120600026Y-83480052D03*
X119330026Y-83480052D03*
X118060026Y-83480052D03*
X116790026Y-83480052D03*
X115520026Y-83480052D03*
X114250026Y-83480052D03*
X112980026Y-83480052D03*
X111710026Y-83480052D03*
X110440026Y-83480052D03*
X109170026Y-83480052D03*
X107900026Y-83480052D03*
X106630026Y-83480052D03*
X105360026Y-83480052D03*
X104090026Y-83480052D03*
X102820026Y-83480052D03*
X101550026Y-83480052D03*
X100280026Y-83480052D03*
X99010026Y-83480052D03*
X97740026Y-83480052D03*
X147270026Y-82210052D03*
X146000026Y-82210052D03*
X144730026Y-82210052D03*
X143460026Y-82210052D03*
X142190026Y-82210052D03*
X140920026Y-82210052D03*
X139650026Y-82210052D03*
X138380026Y-82210052D03*
X137110026Y-82210052D03*
X135840026Y-82210052D03*
X134570026Y-82210052D03*
X133300026Y-82210052D03*
X132030026Y-82210052D03*
X130760026Y-82210052D03*
X129490026Y-82210052D03*
X128220026Y-82210052D03*
X126950026Y-82210052D03*
X125680026Y-82210052D03*
X124410026Y-82210052D03*
X123140026Y-82210052D03*
X121870026Y-82210052D03*
X120600026Y-82210052D03*
X119330026Y-82210052D03*
X118060026Y-82210052D03*
X116790026Y-82210052D03*
X115520026Y-82210052D03*
X114250026Y-82210052D03*
X112980026Y-82210052D03*
X111710026Y-82210052D03*
X110440026Y-82210052D03*
X109170026Y-82210052D03*
X107900026Y-82210052D03*
X106630026Y-82210052D03*
X105360026Y-82210052D03*
X104090026Y-82210052D03*
X102820026Y-82210052D03*
X101550026Y-82210052D03*
X100280026Y-82210052D03*
X99010026Y-82210052D03*
X97740026Y-82210052D03*
X147270026Y-80940052D03*
X146000026Y-80940052D03*
X144730026Y-80940052D03*
X143460026Y-80940052D03*
X142190026Y-80940052D03*
X140920026Y-80940052D03*
X139650026Y-80940052D03*
X138380026Y-80940052D03*
X137110026Y-80940052D03*
X135840026Y-80940052D03*
X134570026Y-80940052D03*
X133300026Y-80940052D03*
X132030026Y-80940052D03*
X130760026Y-80940052D03*
X129490026Y-80940052D03*
X128220026Y-80940052D03*
X126950026Y-80940052D03*
X125680026Y-80940052D03*
X124410026Y-80940052D03*
X123140026Y-80940052D03*
X121870026Y-80940052D03*
X120600026Y-80940052D03*
X119330026Y-80940052D03*
X118060026Y-80940052D03*
X116790026Y-80940052D03*
X115520026Y-80940052D03*
X114250026Y-80940052D03*
X112980026Y-80940052D03*
X111710026Y-80940052D03*
X110440026Y-80940052D03*
X109170026Y-80940052D03*
X107900026Y-80940052D03*
X106630026Y-80940052D03*
X105360026Y-80940052D03*
X104090026Y-80940052D03*
X102820026Y-80940052D03*
X101550026Y-80940052D03*
X100280026Y-80940052D03*
X99010026Y-80940052D03*
X97740026Y-80940052D03*
X147270026Y-79670052D03*
X146000026Y-79670052D03*
X144730026Y-79670052D03*
X143460026Y-79670052D03*
X142190026Y-79670052D03*
X140920026Y-79670052D03*
X139650026Y-79670052D03*
X138380026Y-79670052D03*
X137110026Y-79670052D03*
X135840026Y-79670052D03*
X134570026Y-79670052D03*
X133300026Y-79670052D03*
X132030026Y-79670052D03*
X130760026Y-79670052D03*
X129490026Y-79670052D03*
X128220026Y-79670052D03*
X126950026Y-79670052D03*
X125680026Y-79670052D03*
X124410026Y-79670052D03*
X123140026Y-79670052D03*
X121870026Y-79670052D03*
X120600026Y-79670052D03*
X119330026Y-79670052D03*
X118060026Y-79670052D03*
X116790026Y-79670052D03*
X115520026Y-79670052D03*
X114250026Y-79670052D03*
X112980026Y-79670052D03*
X111710026Y-79670052D03*
X110440026Y-79670052D03*
X109170026Y-79670052D03*
X107900026Y-79670052D03*
X106630026Y-79670052D03*
X105360026Y-79670052D03*
X104090026Y-79670052D03*
X102820026Y-79670052D03*
X101550026Y-79670052D03*
X100280026Y-79670052D03*
X99010026Y-79670052D03*
X97740026Y-79670052D03*
X147270026Y-78400052D03*
X146000026Y-78400052D03*
X144730026Y-78400052D03*
X143460026Y-78400052D03*
X142190026Y-78400052D03*
X140920026Y-78400052D03*
X139650026Y-78400052D03*
X138380026Y-78400052D03*
X137110026Y-78400052D03*
X135840026Y-78400052D03*
X134570026Y-78400052D03*
X133300026Y-78400052D03*
X132030026Y-78400052D03*
X130760026Y-78400052D03*
X129490026Y-78400052D03*
X128220026Y-78400052D03*
X126950026Y-78400052D03*
X125680026Y-78400052D03*
X124410026Y-78400052D03*
X123140026Y-78400052D03*
X121870026Y-78400052D03*
X120600026Y-78400052D03*
X119330026Y-78400052D03*
X118060026Y-78400052D03*
X116790026Y-78400052D03*
X115520026Y-78400052D03*
X114250026Y-78400052D03*
X112980026Y-78400052D03*
X111710026Y-78400052D03*
X110440026Y-78400052D03*
X109170026Y-78400052D03*
X107900026Y-78400052D03*
X106630026Y-78400052D03*
X105360026Y-78400052D03*
X104090026Y-78400052D03*
X102820026Y-78400052D03*
X101550026Y-78400052D03*
X100280026Y-78400052D03*
X99010026Y-78400052D03*
X97740026Y-78400052D03*
X147270026Y-77130052D03*
X146000026Y-77130052D03*
X144730026Y-77130052D03*
X143460026Y-77130052D03*
X142190026Y-77130052D03*
X140920026Y-77130052D03*
X139650026Y-77130052D03*
X138380026Y-77130052D03*
X137110026Y-77130052D03*
X135840026Y-77130052D03*
X134570026Y-77130052D03*
X133300026Y-77130052D03*
X132030026Y-77130052D03*
X130760026Y-77130052D03*
X129490026Y-77130052D03*
X128220026Y-77130052D03*
X126950026Y-77130052D03*
X125680026Y-77130052D03*
X124410026Y-77130052D03*
X123140026Y-77130052D03*
X121870026Y-77130052D03*
X120600026Y-77130052D03*
X119330026Y-77130052D03*
X118060026Y-77130052D03*
X116790026Y-77130052D03*
X115520026Y-77130052D03*
X114250026Y-77130052D03*
X112980026Y-77130052D03*
X111710026Y-77130052D03*
X110440026Y-77130052D03*
X109170026Y-77130052D03*
X107900026Y-77130052D03*
X106630026Y-77130052D03*
X105360026Y-77130052D03*
X104090026Y-77130052D03*
X102820026Y-77130052D03*
X101550026Y-77130052D03*
X100280026Y-77130052D03*
X99010026Y-77130052D03*
X97740026Y-77130052D03*
X147270026Y-75860052D03*
X146000026Y-75860052D03*
X144730026Y-75860052D03*
X143460026Y-75860052D03*
X142190026Y-75860052D03*
X140920026Y-75860052D03*
X139650026Y-75860052D03*
X138380026Y-75860052D03*
X137110026Y-75860052D03*
X135840026Y-75860052D03*
X134570026Y-75860052D03*
X133300026Y-75860052D03*
X132030026Y-75860052D03*
X130760026Y-75860052D03*
X129490026Y-75860052D03*
X128220026Y-75860052D03*
X126950026Y-75860052D03*
X125680026Y-75860052D03*
X124410026Y-75860052D03*
X123140026Y-75860052D03*
X121870026Y-75860052D03*
X120600026Y-75860052D03*
X119330026Y-75860052D03*
X118060026Y-75860052D03*
X116790026Y-75860052D03*
X115520026Y-75860052D03*
X114250026Y-75860052D03*
X112980026Y-75860052D03*
X111710026Y-75860052D03*
X110440026Y-75860052D03*
X109170026Y-75860052D03*
X107900026Y-75860052D03*
X106630026Y-75860052D03*
X105360026Y-75860052D03*
X104090026Y-75860052D03*
X102820026Y-75860052D03*
X101550026Y-75860052D03*
X100280026Y-75860052D03*
X99010026Y-75860052D03*
X97740026Y-75860052D03*
%TD*%
D13*
%TO.C,J9*%
X224454678Y-82460052D03*
X170554678Y-80430052D03*
D14*
X222269678Y-84750052D03*
X220999678Y-84750052D03*
X219729678Y-84750052D03*
X218459678Y-84750052D03*
X217189678Y-84750052D03*
X215919678Y-84750052D03*
X214649678Y-84750052D03*
X213379678Y-84750052D03*
X212109678Y-84750052D03*
X210839678Y-84750052D03*
X209569678Y-84750052D03*
X208299678Y-84750052D03*
X207029678Y-84750052D03*
X205759678Y-84750052D03*
X204489678Y-84750052D03*
X203219678Y-84750052D03*
X201949678Y-84750052D03*
X200679678Y-84750052D03*
X199409678Y-84750052D03*
X198139678Y-84750052D03*
X196869678Y-84750052D03*
X195599678Y-84750052D03*
X194329678Y-84750052D03*
X193059678Y-84750052D03*
X191789678Y-84750052D03*
X190519678Y-84750052D03*
X189249678Y-84750052D03*
X187979678Y-84750052D03*
X186709678Y-84750052D03*
X185439678Y-84750052D03*
X184169678Y-84750052D03*
X182899678Y-84750052D03*
X181629678Y-84750052D03*
X180359678Y-84750052D03*
X179089678Y-84750052D03*
X177819678Y-84750052D03*
X176549678Y-84750052D03*
X175279678Y-84750052D03*
X174009678Y-84750052D03*
X172739678Y-84750052D03*
X222269678Y-83480052D03*
X220999678Y-83480052D03*
X219729678Y-83480052D03*
X218459678Y-83480052D03*
X217189678Y-83480052D03*
X215919678Y-83480052D03*
X214649678Y-83480052D03*
X213379678Y-83480052D03*
X212109678Y-83480052D03*
X210839678Y-83480052D03*
X209569678Y-83480052D03*
X208299678Y-83480052D03*
X207029678Y-83480052D03*
X205759678Y-83480052D03*
X204489678Y-83480052D03*
X203219678Y-83480052D03*
X201949678Y-83480052D03*
X200679678Y-83480052D03*
X199409678Y-83480052D03*
X198139678Y-83480052D03*
X196869678Y-83480052D03*
X195599678Y-83480052D03*
X194329678Y-83480052D03*
X193059678Y-83480052D03*
X191789678Y-83480052D03*
X190519678Y-83480052D03*
X189249678Y-83480052D03*
X187979678Y-83480052D03*
X186709678Y-83480052D03*
X185439678Y-83480052D03*
X184169678Y-83480052D03*
X182899678Y-83480052D03*
X181629678Y-83480052D03*
X180359678Y-83480052D03*
X179089678Y-83480052D03*
X177819678Y-83480052D03*
X176549678Y-83480052D03*
X175279678Y-83480052D03*
X174009678Y-83480052D03*
X172739678Y-83480052D03*
X222269678Y-82210052D03*
X220999678Y-82210052D03*
X219729678Y-82210052D03*
X218459678Y-82210052D03*
X217189678Y-82210052D03*
X215919678Y-82210052D03*
X214649678Y-82210052D03*
X213379678Y-82210052D03*
X212109678Y-82210052D03*
X210839678Y-82210052D03*
X209569678Y-82210052D03*
X208299678Y-82210052D03*
X207029678Y-82210052D03*
X205759678Y-82210052D03*
X204489678Y-82210052D03*
X203219678Y-82210052D03*
X201949678Y-82210052D03*
X200679678Y-82210052D03*
X199409678Y-82210052D03*
X198139678Y-82210052D03*
X196869678Y-82210052D03*
X195599678Y-82210052D03*
X194329678Y-82210052D03*
X193059678Y-82210052D03*
X191789678Y-82210052D03*
X190519678Y-82210052D03*
X189249678Y-82210052D03*
X187979678Y-82210052D03*
X186709678Y-82210052D03*
X185439678Y-82210052D03*
X184169678Y-82210052D03*
X182899678Y-82210052D03*
X181629678Y-82210052D03*
X180359678Y-82210052D03*
X179089678Y-82210052D03*
X177819678Y-82210052D03*
X176549678Y-82210052D03*
X175279678Y-82210052D03*
X174009678Y-82210052D03*
X172739678Y-82210052D03*
X222269678Y-80940052D03*
X220999678Y-80940052D03*
X219729678Y-80940052D03*
X218459678Y-80940052D03*
X217189678Y-80940052D03*
X215919678Y-80940052D03*
X214649678Y-80940052D03*
X213379678Y-80940052D03*
X212109678Y-80940052D03*
X210839678Y-80940052D03*
X209569678Y-80940052D03*
X208299678Y-80940052D03*
X207029678Y-80940052D03*
X205759678Y-80940052D03*
X204489678Y-80940052D03*
X203219678Y-80940052D03*
X201949678Y-80940052D03*
X200679678Y-80940052D03*
X199409678Y-80940052D03*
X198139678Y-80940052D03*
X196869678Y-80940052D03*
X195599678Y-80940052D03*
X194329678Y-80940052D03*
X193059678Y-80940052D03*
X191789678Y-80940052D03*
X190519678Y-80940052D03*
X189249678Y-80940052D03*
X187979678Y-80940052D03*
X186709678Y-80940052D03*
X185439678Y-80940052D03*
X184169678Y-80940052D03*
X182899678Y-80940052D03*
X181629678Y-80940052D03*
X180359678Y-80940052D03*
X179089678Y-80940052D03*
X177819678Y-80940052D03*
X176549678Y-80940052D03*
X175279678Y-80940052D03*
X174009678Y-80940052D03*
X172739678Y-80940052D03*
X222269678Y-79670052D03*
X220999678Y-79670052D03*
X219729678Y-79670052D03*
X218459678Y-79670052D03*
X217189678Y-79670052D03*
X215919678Y-79670052D03*
X214649678Y-79670052D03*
X213379678Y-79670052D03*
X212109678Y-79670052D03*
X210839678Y-79670052D03*
X209569678Y-79670052D03*
X208299678Y-79670052D03*
X207029678Y-79670052D03*
X205759678Y-79670052D03*
X204489678Y-79670052D03*
X203219678Y-79670052D03*
X201949678Y-79670052D03*
X200679678Y-79670052D03*
X199409678Y-79670052D03*
X198139678Y-79670052D03*
X196869678Y-79670052D03*
X195599678Y-79670052D03*
X194329678Y-79670052D03*
X193059678Y-79670052D03*
X191789678Y-79670052D03*
X190519678Y-79670052D03*
X189249678Y-79670052D03*
X187979678Y-79670052D03*
X186709678Y-79670052D03*
X185439678Y-79670052D03*
X184169678Y-79670052D03*
X182899678Y-79670052D03*
X181629678Y-79670052D03*
X180359678Y-79670052D03*
X179089678Y-79670052D03*
X177819678Y-79670052D03*
X176549678Y-79670052D03*
X175279678Y-79670052D03*
X174009678Y-79670052D03*
X172739678Y-79670052D03*
X222269678Y-78400052D03*
X220999678Y-78400052D03*
X219729678Y-78400052D03*
X218459678Y-78400052D03*
X217189678Y-78400052D03*
X215919678Y-78400052D03*
X214649678Y-78400052D03*
X213379678Y-78400052D03*
X212109678Y-78400052D03*
X210839678Y-78400052D03*
X209569678Y-78400052D03*
X208299678Y-78400052D03*
X207029678Y-78400052D03*
X205759678Y-78400052D03*
X204489678Y-78400052D03*
X203219678Y-78400052D03*
X201949678Y-78400052D03*
X200679678Y-78400052D03*
X199409678Y-78400052D03*
X198139678Y-78400052D03*
X196869678Y-78400052D03*
X195599678Y-78400052D03*
X194329678Y-78400052D03*
X193059678Y-78400052D03*
X191789678Y-78400052D03*
X190519678Y-78400052D03*
X189249678Y-78400052D03*
X187979678Y-78400052D03*
X186709678Y-78400052D03*
X185439678Y-78400052D03*
X184169678Y-78400052D03*
X182899678Y-78400052D03*
X181629678Y-78400052D03*
X180359678Y-78400052D03*
X179089678Y-78400052D03*
X177819678Y-78400052D03*
X176549678Y-78400052D03*
X175279678Y-78400052D03*
X174009678Y-78400052D03*
X172739678Y-78400052D03*
X222269678Y-77130052D03*
X220999678Y-77130052D03*
X219729678Y-77130052D03*
X218459678Y-77130052D03*
X217189678Y-77130052D03*
X215919678Y-77130052D03*
X214649678Y-77130052D03*
X213379678Y-77130052D03*
X212109678Y-77130052D03*
X210839678Y-77130052D03*
X209569678Y-77130052D03*
X208299678Y-77130052D03*
X207029678Y-77130052D03*
X205759678Y-77130052D03*
X204489678Y-77130052D03*
X203219678Y-77130052D03*
X201949678Y-77130052D03*
X200679678Y-77130052D03*
X199409678Y-77130052D03*
X198139678Y-77130052D03*
X196869678Y-77130052D03*
X195599678Y-77130052D03*
X194329678Y-77130052D03*
X193059678Y-77130052D03*
X191789678Y-77130052D03*
X190519678Y-77130052D03*
X189249678Y-77130052D03*
X187979678Y-77130052D03*
X186709678Y-77130052D03*
X185439678Y-77130052D03*
X184169678Y-77130052D03*
X182899678Y-77130052D03*
X181629678Y-77130052D03*
X180359678Y-77130052D03*
X179089678Y-77130052D03*
X177819678Y-77130052D03*
X176549678Y-77130052D03*
X175279678Y-77130052D03*
X174009678Y-77130052D03*
X172739678Y-77130052D03*
X222269678Y-75860052D03*
X220999678Y-75860052D03*
X219729678Y-75860052D03*
X218459678Y-75860052D03*
X217189678Y-75860052D03*
X215919678Y-75860052D03*
X214649678Y-75860052D03*
X213379678Y-75860052D03*
X212109678Y-75860052D03*
X210839678Y-75860052D03*
X209569678Y-75860052D03*
X208299678Y-75860052D03*
X207029678Y-75860052D03*
X205759678Y-75860052D03*
X204489678Y-75860052D03*
X203219678Y-75860052D03*
X201949678Y-75860052D03*
X200679678Y-75860052D03*
X199409678Y-75860052D03*
X198139678Y-75860052D03*
X196869678Y-75860052D03*
X195599678Y-75860052D03*
X194329678Y-75860052D03*
X193059678Y-75860052D03*
X191789678Y-75860052D03*
X190519678Y-75860052D03*
X189249678Y-75860052D03*
X187979678Y-75860052D03*
X186709678Y-75860052D03*
X185439678Y-75860052D03*
X184169678Y-75860052D03*
X182899678Y-75860052D03*
X181629678Y-75860052D03*
X180359678Y-75860052D03*
X179089678Y-75860052D03*
X177819678Y-75860052D03*
X176549678Y-75860052D03*
X175279678Y-75860052D03*
X174009678Y-75860052D03*
X172739678Y-75860052D03*
%TD*%
D15*
X196699984Y-111904052D03*
X153699984Y-107904052D03*
X114699984Y-109904052D03*
X128699984Y-109904052D03*
X108699984Y-107904052D03*
X224699984Y-107904052D03*
X136699984Y-107904052D03*
X183699984Y-107904052D03*
X99699984Y-107904052D03*
X235699984Y-107904052D03*
X193699984Y-107904052D03*
X140699984Y-111904052D03*
X196699984Y-109904052D03*
X143699984Y-111904052D03*
X151699984Y-107904052D03*
X147699984Y-107904052D03*
X215699984Y-107904052D03*
X128699984Y-107904052D03*
X124699984Y-107904052D03*
X114699984Y-107904052D03*
X130699984Y-107904052D03*
X188699984Y-107904052D03*
X209699984Y-107904052D03*
X155699984Y-111904052D03*
X99699984Y-111904052D03*
X195699984Y-107904052D03*
X183699984Y-111904052D03*
X197699984Y-107904052D03*
X191699984Y-107904052D03*
X140699984Y-107904052D03*
X239699984Y-109904052D03*
X186699984Y-107904052D03*
X143699984Y-107904052D03*
X226699984Y-111904052D03*
X155699984Y-109904052D03*
X239699984Y-111904052D03*
X112699984Y-109904052D03*
X211699984Y-109904052D03*
X116699984Y-107904052D03*
X101699984Y-107904052D03*
X209699984Y-109904052D03*
X211699984Y-107904052D03*
X128699984Y-111904052D03*
X201699984Y-107904052D03*
X145699984Y-107904052D03*
X114699984Y-111904052D03*
X220699984Y-107904052D03*
X143699984Y-109904052D03*
X138699984Y-107904052D03*
X213699984Y-107904052D03*
X140699984Y-109904052D03*
X237699984Y-107904052D03*
X126699984Y-109904052D03*
X224699984Y-109904052D03*
X224699984Y-111904052D03*
X118699984Y-107904052D03*
X112699984Y-107904052D03*
X155699984Y-107904052D03*
X122699984Y-107904052D03*
X230699984Y-107904052D03*
X226699984Y-109904052D03*
X222699984Y-107904052D03*
X99699984Y-109904052D03*
X110699984Y-107904052D03*
X132699984Y-107904052D03*
X112699984Y-111904052D03*
X126699984Y-107904052D03*
X239699984Y-107904052D03*
X207699984Y-107904052D03*
X183699984Y-109904052D03*
X211699984Y-111904052D03*
X209699984Y-111904052D03*
X103699984Y-107904052D03*
X228699984Y-107904052D03*
X226699984Y-107904052D03*
X199699984Y-107904052D03*
X126699984Y-111904052D03*
X212126936Y-78404052D03*
X212099984Y-77104052D03*
X210799984Y-83404052D03*
X210799984Y-82204052D03*
X208295784Y-77104052D03*
X208299984Y-78404052D03*
X207021536Y-82204052D03*
X206999984Y-83504052D03*
X128224600Y-82235200D03*
X128224600Y-83479800D03*
X123144600Y-78399800D03*
X123144600Y-77129800D03*
X124399984Y-83404052D03*
X124414600Y-82209800D03*
X126954600Y-77129800D03*
X126954600Y-78399800D03*
M02*
