%TF.GenerationSoftware,KiCad,Pcbnew,6.0.7-f9a2dced07~116~ubuntu22.04.1*%
%TF.CreationDate,2022-08-01T15:08:56-07:00*%
%TF.ProjectId,RFSoC_Frontend,5246536f-435f-4467-926f-6e74656e642e,rev?*%
%TF.SameCoordinates,Original*%
%TF.FileFunction,Paste,Bot*%
%TF.FilePolarity,Positive*%
%FSLAX46Y46*%
G04 Gerber Fmt 4.6, Leading zero omitted, Abs format (unit mm)*
G04 Created by KiCad (PCBNEW 6.0.7-f9a2dced07~116~ubuntu22.04.1) date 2022-08-01 15:08:56*
%MOMM*%
%LPD*%
G01*
G04 APERTURE LIST*
%ADD10C,0.010000*%
%ADD11R,1.500000X5.080000*%
G04 APERTURE END LIST*
%TO.C,J10*%
G36*
X143970026Y-77640052D02*
G01*
X142950026Y-77640052D01*
X142950026Y-76620052D01*
X143970026Y-76620052D01*
X143970026Y-77640052D01*
G37*
D10*
X143970026Y-77640052D02*
X142950026Y-77640052D01*
X142950026Y-76620052D01*
X143970026Y-76620052D01*
X143970026Y-77640052D01*
G36*
X102060026Y-82720052D02*
G01*
X101040026Y-82720052D01*
X101040026Y-81700052D01*
X102060026Y-81700052D01*
X102060026Y-82720052D01*
G37*
X102060026Y-82720052D02*
X101040026Y-82720052D01*
X101040026Y-81700052D01*
X102060026Y-81700052D01*
X102060026Y-82720052D01*
G36*
X128730026Y-82720052D02*
G01*
X127710026Y-82720052D01*
X127710026Y-81700052D01*
X128730026Y-81700052D01*
X128730026Y-82720052D01*
G37*
X128730026Y-82720052D02*
X127710026Y-82720052D01*
X127710026Y-81700052D01*
X128730026Y-81700052D01*
X128730026Y-82720052D01*
G36*
X142700026Y-77640052D02*
G01*
X141680026Y-77640052D01*
X141680026Y-76620052D01*
X142700026Y-76620052D01*
X142700026Y-77640052D01*
G37*
X142700026Y-77640052D02*
X141680026Y-77640052D01*
X141680026Y-76620052D01*
X142700026Y-76620052D01*
X142700026Y-77640052D01*
G36*
X130000026Y-85260052D02*
G01*
X128980026Y-85260052D01*
X128980026Y-84240052D01*
X130000026Y-84240052D01*
X130000026Y-85260052D01*
G37*
X130000026Y-85260052D02*
X128980026Y-85260052D01*
X128980026Y-84240052D01*
X130000026Y-84240052D01*
X130000026Y-85260052D01*
G36*
X138890026Y-78910052D02*
G01*
X137870026Y-78910052D01*
X137870026Y-77890052D01*
X138890026Y-77890052D01*
X138890026Y-78910052D01*
G37*
X138890026Y-78910052D02*
X137870026Y-78910052D01*
X137870026Y-77890052D01*
X138890026Y-77890052D01*
X138890026Y-78910052D01*
G36*
X141430026Y-82720052D02*
G01*
X140410026Y-82720052D01*
X140410026Y-81700052D01*
X141430026Y-81700052D01*
X141430026Y-82720052D01*
G37*
X141430026Y-82720052D02*
X140410026Y-82720052D01*
X140410026Y-81700052D01*
X141430026Y-81700052D01*
X141430026Y-82720052D01*
G36*
X131270026Y-85260052D02*
G01*
X130250026Y-85260052D01*
X130250026Y-84240052D01*
X131270026Y-84240052D01*
X131270026Y-85260052D01*
G37*
X131270026Y-85260052D02*
X130250026Y-85260052D01*
X130250026Y-84240052D01*
X131270026Y-84240052D01*
X131270026Y-85260052D01*
G36*
X103330026Y-77640052D02*
G01*
X102310026Y-77640052D01*
X102310026Y-76620052D01*
X103330026Y-76620052D01*
X103330026Y-77640052D01*
G37*
X103330026Y-77640052D02*
X102310026Y-77640052D01*
X102310026Y-76620052D01*
X103330026Y-76620052D01*
X103330026Y-77640052D01*
G36*
X104600026Y-81450052D02*
G01*
X103580026Y-81450052D01*
X103580026Y-80430052D01*
X104600026Y-80430052D01*
X104600026Y-81450052D01*
G37*
X104600026Y-81450052D02*
X103580026Y-81450052D01*
X103580026Y-80430052D01*
X104600026Y-80430052D01*
X104600026Y-81450052D01*
G36*
X102060026Y-85260052D02*
G01*
X101040026Y-85260052D01*
X101040026Y-84240052D01*
X102060026Y-84240052D01*
X102060026Y-85260052D01*
G37*
X102060026Y-85260052D02*
X101040026Y-85260052D01*
X101040026Y-84240052D01*
X102060026Y-84240052D01*
X102060026Y-85260052D01*
G36*
X107140026Y-77640052D02*
G01*
X106120026Y-77640052D01*
X106120026Y-76620052D01*
X107140026Y-76620052D01*
X107140026Y-77640052D01*
G37*
X107140026Y-77640052D02*
X106120026Y-77640052D01*
X106120026Y-76620052D01*
X107140026Y-76620052D01*
X107140026Y-77640052D01*
G36*
X123650026Y-77640052D02*
G01*
X122630026Y-77640052D01*
X122630026Y-76620052D01*
X123650026Y-76620052D01*
X123650026Y-77640052D01*
G37*
X123650026Y-77640052D02*
X122630026Y-77640052D01*
X122630026Y-76620052D01*
X123650026Y-76620052D01*
X123650026Y-77640052D01*
G36*
X118570026Y-82720052D02*
G01*
X117550026Y-82720052D01*
X117550026Y-81700052D01*
X118570026Y-81700052D01*
X118570026Y-82720052D01*
G37*
X118570026Y-82720052D02*
X117550026Y-82720052D01*
X117550026Y-81700052D01*
X118570026Y-81700052D01*
X118570026Y-82720052D01*
G36*
X99520026Y-85260052D02*
G01*
X98500026Y-85260052D01*
X98500026Y-84240052D01*
X99520026Y-84240052D01*
X99520026Y-85260052D01*
G37*
X99520026Y-85260052D02*
X98500026Y-85260052D01*
X98500026Y-84240052D01*
X99520026Y-84240052D01*
X99520026Y-85260052D01*
G36*
X98250026Y-81450052D02*
G01*
X97230026Y-81450052D01*
X97230026Y-80430052D01*
X98250026Y-80430052D01*
X98250026Y-81450052D01*
G37*
X98250026Y-81450052D02*
X97230026Y-81450052D01*
X97230026Y-80430052D01*
X98250026Y-80430052D01*
X98250026Y-81450052D01*
G36*
X138890026Y-83990052D02*
G01*
X137870026Y-83990052D01*
X137870026Y-82970052D01*
X138890026Y-82970052D01*
X138890026Y-83990052D01*
G37*
X138890026Y-83990052D02*
X137870026Y-83990052D01*
X137870026Y-82970052D01*
X138890026Y-82970052D01*
X138890026Y-83990052D01*
G36*
X138890026Y-81450052D02*
G01*
X137870026Y-81450052D01*
X137870026Y-80430052D01*
X138890026Y-80430052D01*
X138890026Y-81450052D01*
G37*
X138890026Y-81450052D02*
X137870026Y-81450052D01*
X137870026Y-80430052D01*
X138890026Y-80430052D01*
X138890026Y-81450052D01*
G36*
X133810026Y-85260052D02*
G01*
X132790026Y-85260052D01*
X132790026Y-84240052D01*
X133810026Y-84240052D01*
X133810026Y-85260052D01*
G37*
X133810026Y-85260052D02*
X132790026Y-85260052D01*
X132790026Y-84240052D01*
X133810026Y-84240052D01*
X133810026Y-85260052D01*
G36*
X109680026Y-83990052D02*
G01*
X108660026Y-83990052D01*
X108660026Y-82970052D01*
X109680026Y-82970052D01*
X109680026Y-83990052D01*
G37*
X109680026Y-83990052D02*
X108660026Y-83990052D01*
X108660026Y-82970052D01*
X109680026Y-82970052D01*
X109680026Y-83990052D01*
G36*
X113490026Y-77640052D02*
G01*
X112470026Y-77640052D01*
X112470026Y-76620052D01*
X113490026Y-76620052D01*
X113490026Y-77640052D01*
G37*
X113490026Y-77640052D02*
X112470026Y-77640052D01*
X112470026Y-76620052D01*
X113490026Y-76620052D01*
X113490026Y-77640052D01*
G36*
X116030026Y-78910052D02*
G01*
X115010026Y-78910052D01*
X115010026Y-77890052D01*
X116030026Y-77890052D01*
X116030026Y-78910052D01*
G37*
X116030026Y-78910052D02*
X115010026Y-78910052D01*
X115010026Y-77890052D01*
X116030026Y-77890052D01*
X116030026Y-78910052D01*
G36*
X112220026Y-78910052D02*
G01*
X111200026Y-78910052D01*
X111200026Y-77890052D01*
X112220026Y-77890052D01*
X112220026Y-78910052D01*
G37*
X112220026Y-78910052D02*
X111200026Y-78910052D01*
X111200026Y-77890052D01*
X112220026Y-77890052D01*
X112220026Y-78910052D01*
G36*
X100790026Y-77640052D02*
G01*
X99770026Y-77640052D01*
X99770026Y-76620052D01*
X100790026Y-76620052D01*
X100790026Y-77640052D01*
G37*
X100790026Y-77640052D02*
X99770026Y-77640052D01*
X99770026Y-76620052D01*
X100790026Y-76620052D01*
X100790026Y-77640052D01*
G36*
X116030026Y-76370052D02*
G01*
X115010026Y-76370052D01*
X115010026Y-75350052D01*
X116030026Y-75350052D01*
X116030026Y-76370052D01*
G37*
X116030026Y-76370052D02*
X115010026Y-76370052D01*
X115010026Y-75350052D01*
X116030026Y-75350052D01*
X116030026Y-76370052D01*
G36*
X108410026Y-83990052D02*
G01*
X107390026Y-83990052D01*
X107390026Y-82970052D01*
X108410026Y-82970052D01*
X108410026Y-83990052D01*
G37*
X108410026Y-83990052D02*
X107390026Y-83990052D01*
X107390026Y-82970052D01*
X108410026Y-82970052D01*
X108410026Y-83990052D01*
G36*
X133810026Y-80180052D02*
G01*
X132790026Y-80180052D01*
X132790026Y-79160052D01*
X133810026Y-79160052D01*
X133810026Y-80180052D01*
G37*
X133810026Y-80180052D02*
X132790026Y-80180052D01*
X132790026Y-79160052D01*
X133810026Y-79160052D01*
X133810026Y-80180052D01*
G36*
X135080026Y-81450052D02*
G01*
X134060026Y-81450052D01*
X134060026Y-80430052D01*
X135080026Y-80430052D01*
X135080026Y-81450052D01*
G37*
X135080026Y-81450052D02*
X134060026Y-81450052D01*
X134060026Y-80430052D01*
X135080026Y-80430052D01*
X135080026Y-81450052D01*
G36*
X122380026Y-77640052D02*
G01*
X121360026Y-77640052D01*
X121360026Y-76620052D01*
X122380026Y-76620052D01*
X122380026Y-77640052D01*
G37*
X122380026Y-77640052D02*
X121360026Y-77640052D01*
X121360026Y-76620052D01*
X122380026Y-76620052D01*
X122380026Y-77640052D01*
G36*
X127460026Y-82720052D02*
G01*
X126440026Y-82720052D01*
X126440026Y-81700052D01*
X127460026Y-81700052D01*
X127460026Y-82720052D01*
G37*
X127460026Y-82720052D02*
X126440026Y-82720052D01*
X126440026Y-81700052D01*
X127460026Y-81700052D01*
X127460026Y-82720052D01*
G36*
X103330026Y-80180052D02*
G01*
X102310026Y-80180052D01*
X102310026Y-79160052D01*
X103330026Y-79160052D01*
X103330026Y-80180052D01*
G37*
X103330026Y-80180052D02*
X102310026Y-80180052D01*
X102310026Y-79160052D01*
X103330026Y-79160052D01*
X103330026Y-80180052D01*
G36*
X136350026Y-76370052D02*
G01*
X135330026Y-76370052D01*
X135330026Y-75350052D01*
X136350026Y-75350052D01*
X136350026Y-76370052D01*
G37*
X136350026Y-76370052D02*
X135330026Y-76370052D01*
X135330026Y-75350052D01*
X136350026Y-75350052D01*
X136350026Y-76370052D01*
G36*
X110950026Y-80180052D02*
G01*
X109930026Y-80180052D01*
X109930026Y-79160052D01*
X110950026Y-79160052D01*
X110950026Y-80180052D01*
G37*
X110950026Y-80180052D02*
X109930026Y-80180052D01*
X109930026Y-79160052D01*
X110950026Y-79160052D01*
X110950026Y-80180052D01*
G36*
X136350026Y-82720052D02*
G01*
X135330026Y-82720052D01*
X135330026Y-81700052D01*
X136350026Y-81700052D01*
X136350026Y-82720052D01*
G37*
X136350026Y-82720052D02*
X135330026Y-82720052D01*
X135330026Y-81700052D01*
X136350026Y-81700052D01*
X136350026Y-82720052D01*
G36*
X100790026Y-80180052D02*
G01*
X99770026Y-80180052D01*
X99770026Y-79160052D01*
X100790026Y-79160052D01*
X100790026Y-80180052D01*
G37*
X100790026Y-80180052D02*
X99770026Y-80180052D01*
X99770026Y-79160052D01*
X100790026Y-79160052D01*
X100790026Y-80180052D01*
G36*
X100790026Y-78910052D02*
G01*
X99770026Y-78910052D01*
X99770026Y-77890052D01*
X100790026Y-77890052D01*
X100790026Y-78910052D01*
G37*
X100790026Y-78910052D02*
X99770026Y-78910052D01*
X99770026Y-77890052D01*
X100790026Y-77890052D01*
X100790026Y-78910052D01*
G36*
X123650026Y-78910052D02*
G01*
X122630026Y-78910052D01*
X122630026Y-77890052D01*
X123650026Y-77890052D01*
X123650026Y-78910052D01*
G37*
X123650026Y-78910052D02*
X122630026Y-78910052D01*
X122630026Y-77890052D01*
X123650026Y-77890052D01*
X123650026Y-78910052D01*
G36*
X128730026Y-81450052D02*
G01*
X127710026Y-81450052D01*
X127710026Y-80430052D01*
X128730026Y-80430052D01*
X128730026Y-81450052D01*
G37*
X128730026Y-81450052D02*
X127710026Y-81450052D01*
X127710026Y-80430052D01*
X128730026Y-80430052D01*
X128730026Y-81450052D01*
G36*
X137620026Y-85260052D02*
G01*
X136600026Y-85260052D01*
X136600026Y-84240052D01*
X137620026Y-84240052D01*
X137620026Y-85260052D01*
G37*
X137620026Y-85260052D02*
X136600026Y-85260052D01*
X136600026Y-84240052D01*
X137620026Y-84240052D01*
X137620026Y-85260052D01*
G36*
X136350026Y-83990052D02*
G01*
X135330026Y-83990052D01*
X135330026Y-82970052D01*
X136350026Y-82970052D01*
X136350026Y-83990052D01*
G37*
X136350026Y-83990052D02*
X135330026Y-83990052D01*
X135330026Y-82970052D01*
X136350026Y-82970052D01*
X136350026Y-83990052D01*
G36*
X143970026Y-76370052D02*
G01*
X142950026Y-76370052D01*
X142950026Y-75350052D01*
X143970026Y-75350052D01*
X143970026Y-76370052D01*
G37*
X143970026Y-76370052D02*
X142950026Y-76370052D01*
X142950026Y-75350052D01*
X143970026Y-75350052D01*
X143970026Y-76370052D01*
G36*
X130000026Y-80180052D02*
G01*
X128980026Y-80180052D01*
X128980026Y-79160052D01*
X130000026Y-79160052D01*
X130000026Y-80180052D01*
G37*
X130000026Y-80180052D02*
X128980026Y-80180052D01*
X128980026Y-79160052D01*
X130000026Y-79160052D01*
X130000026Y-80180052D01*
G36*
X113490026Y-78910052D02*
G01*
X112470026Y-78910052D01*
X112470026Y-77890052D01*
X113490026Y-77890052D01*
X113490026Y-78910052D01*
G37*
X113490026Y-78910052D02*
X112470026Y-78910052D01*
X112470026Y-77890052D01*
X113490026Y-77890052D01*
X113490026Y-78910052D01*
G36*
X124920026Y-78910052D02*
G01*
X123900026Y-78910052D01*
X123900026Y-77890052D01*
X124920026Y-77890052D01*
X124920026Y-78910052D01*
G37*
X124920026Y-78910052D02*
X123900026Y-78910052D01*
X123900026Y-77890052D01*
X124920026Y-77890052D01*
X124920026Y-78910052D01*
G36*
X117300026Y-80180052D02*
G01*
X116280026Y-80180052D01*
X116280026Y-79160052D01*
X117300026Y-79160052D01*
X117300026Y-80180052D01*
G37*
X117300026Y-80180052D02*
X116280026Y-80180052D01*
X116280026Y-79160052D01*
X117300026Y-79160052D01*
X117300026Y-80180052D01*
G36*
X123650026Y-83990052D02*
G01*
X122630026Y-83990052D01*
X122630026Y-82970052D01*
X123650026Y-82970052D01*
X123650026Y-83990052D01*
G37*
X123650026Y-83990052D02*
X122630026Y-83990052D01*
X122630026Y-82970052D01*
X123650026Y-82970052D01*
X123650026Y-83990052D01*
G36*
X132540026Y-81450052D02*
G01*
X131520026Y-81450052D01*
X131520026Y-80430052D01*
X132540026Y-80430052D01*
X132540026Y-81450052D01*
G37*
X132540026Y-81450052D02*
X131520026Y-81450052D01*
X131520026Y-80430052D01*
X132540026Y-80430052D01*
X132540026Y-81450052D01*
G36*
X143970026Y-80180052D02*
G01*
X142950026Y-80180052D01*
X142950026Y-79160052D01*
X143970026Y-79160052D01*
X143970026Y-80180052D01*
G37*
X143970026Y-80180052D02*
X142950026Y-80180052D01*
X142950026Y-79160052D01*
X143970026Y-79160052D01*
X143970026Y-80180052D01*
G36*
X136350026Y-81450052D02*
G01*
X135330026Y-81450052D01*
X135330026Y-80430052D01*
X136350026Y-80430052D01*
X136350026Y-81450052D01*
G37*
X136350026Y-81450052D02*
X135330026Y-81450052D01*
X135330026Y-80430052D01*
X136350026Y-80430052D01*
X136350026Y-81450052D01*
G36*
X113490026Y-80180052D02*
G01*
X112470026Y-80180052D01*
X112470026Y-79160052D01*
X113490026Y-79160052D01*
X113490026Y-80180052D01*
G37*
X113490026Y-80180052D02*
X112470026Y-80180052D01*
X112470026Y-79160052D01*
X113490026Y-79160052D01*
X113490026Y-80180052D01*
G36*
X130000026Y-83990052D02*
G01*
X128980026Y-83990052D01*
X128980026Y-82970052D01*
X130000026Y-82970052D01*
X130000026Y-83990052D01*
G37*
X130000026Y-83990052D02*
X128980026Y-83990052D01*
X128980026Y-82970052D01*
X130000026Y-82970052D01*
X130000026Y-83990052D01*
G36*
X102060026Y-77640052D02*
G01*
X101040026Y-77640052D01*
X101040026Y-76620052D01*
X102060026Y-76620052D01*
X102060026Y-77640052D01*
G37*
X102060026Y-77640052D02*
X101040026Y-77640052D01*
X101040026Y-76620052D01*
X102060026Y-76620052D01*
X102060026Y-77640052D01*
G36*
X122380026Y-83990052D02*
G01*
X121360026Y-83990052D01*
X121360026Y-82970052D01*
X122380026Y-82970052D01*
X122380026Y-83990052D01*
G37*
X122380026Y-83990052D02*
X121360026Y-83990052D01*
X121360026Y-82970052D01*
X122380026Y-82970052D01*
X122380026Y-83990052D01*
G36*
X146510026Y-78910052D02*
G01*
X145490026Y-78910052D01*
X145490026Y-77890052D01*
X146510026Y-77890052D01*
X146510026Y-78910052D01*
G37*
X146510026Y-78910052D02*
X145490026Y-78910052D01*
X145490026Y-77890052D01*
X146510026Y-77890052D01*
X146510026Y-78910052D01*
G36*
X147780026Y-85260052D02*
G01*
X146760026Y-85260052D01*
X146760026Y-84240052D01*
X147780026Y-84240052D01*
X147780026Y-85260052D01*
G37*
X147780026Y-85260052D02*
X146760026Y-85260052D01*
X146760026Y-84240052D01*
X147780026Y-84240052D01*
X147780026Y-85260052D01*
G36*
X123650026Y-82720052D02*
G01*
X122630026Y-82720052D01*
X122630026Y-81700052D01*
X123650026Y-81700052D01*
X123650026Y-82720052D01*
G37*
X123650026Y-82720052D02*
X122630026Y-82720052D01*
X122630026Y-81700052D01*
X123650026Y-81700052D01*
X123650026Y-82720052D01*
G36*
X100790026Y-85260052D02*
G01*
X99770026Y-85260052D01*
X99770026Y-84240052D01*
X100790026Y-84240052D01*
X100790026Y-85260052D01*
G37*
X100790026Y-85260052D02*
X99770026Y-85260052D01*
X99770026Y-84240052D01*
X100790026Y-84240052D01*
X100790026Y-85260052D01*
G36*
X140160026Y-82720052D02*
G01*
X139140026Y-82720052D01*
X139140026Y-81700052D01*
X140160026Y-81700052D01*
X140160026Y-82720052D01*
G37*
X140160026Y-82720052D02*
X139140026Y-82720052D01*
X139140026Y-81700052D01*
X140160026Y-81700052D01*
X140160026Y-82720052D01*
G36*
X107140026Y-82720052D02*
G01*
X106120026Y-82720052D01*
X106120026Y-81700052D01*
X107140026Y-81700052D01*
X107140026Y-82720052D01*
G37*
X107140026Y-82720052D02*
X106120026Y-82720052D01*
X106120026Y-81700052D01*
X107140026Y-81700052D01*
X107140026Y-82720052D01*
G36*
X110950026Y-78910052D02*
G01*
X109930026Y-78910052D01*
X109930026Y-77890052D01*
X110950026Y-77890052D01*
X110950026Y-78910052D01*
G37*
X110950026Y-78910052D02*
X109930026Y-78910052D01*
X109930026Y-77890052D01*
X110950026Y-77890052D01*
X110950026Y-78910052D01*
G36*
X99520026Y-77640052D02*
G01*
X98500026Y-77640052D01*
X98500026Y-76620052D01*
X99520026Y-76620052D01*
X99520026Y-77640052D01*
G37*
X99520026Y-77640052D02*
X98500026Y-77640052D01*
X98500026Y-76620052D01*
X99520026Y-76620052D01*
X99520026Y-77640052D01*
G36*
X104600026Y-78910052D02*
G01*
X103580026Y-78910052D01*
X103580026Y-77890052D01*
X104600026Y-77890052D01*
X104600026Y-78910052D01*
G37*
X104600026Y-78910052D02*
X103580026Y-78910052D01*
X103580026Y-77890052D01*
X104600026Y-77890052D01*
X104600026Y-78910052D01*
G36*
X117300026Y-82720052D02*
G01*
X116280026Y-82720052D01*
X116280026Y-81700052D01*
X117300026Y-81700052D01*
X117300026Y-82720052D01*
G37*
X117300026Y-82720052D02*
X116280026Y-82720052D01*
X116280026Y-81700052D01*
X117300026Y-81700052D01*
X117300026Y-82720052D01*
G36*
X147780026Y-81450052D02*
G01*
X146760026Y-81450052D01*
X146760026Y-80430052D01*
X147780026Y-80430052D01*
X147780026Y-81450052D01*
G37*
X147780026Y-81450052D02*
X146760026Y-81450052D01*
X146760026Y-80430052D01*
X147780026Y-80430052D01*
X147780026Y-81450052D01*
G36*
X112220026Y-83990052D02*
G01*
X111200026Y-83990052D01*
X111200026Y-82970052D01*
X112220026Y-82970052D01*
X112220026Y-83990052D01*
G37*
X112220026Y-83990052D02*
X111200026Y-83990052D01*
X111200026Y-82970052D01*
X112220026Y-82970052D01*
X112220026Y-83990052D01*
G36*
X131270026Y-83990052D02*
G01*
X130250026Y-83990052D01*
X130250026Y-82970052D01*
X131270026Y-82970052D01*
X131270026Y-83990052D01*
G37*
X131270026Y-83990052D02*
X130250026Y-83990052D01*
X130250026Y-82970052D01*
X131270026Y-82970052D01*
X131270026Y-83990052D01*
G36*
X107140026Y-78910052D02*
G01*
X106120026Y-78910052D01*
X106120026Y-77890052D01*
X107140026Y-77890052D01*
X107140026Y-78910052D01*
G37*
X107140026Y-78910052D02*
X106120026Y-78910052D01*
X106120026Y-77890052D01*
X107140026Y-77890052D01*
X107140026Y-78910052D01*
G36*
X114760026Y-85260052D02*
G01*
X113740026Y-85260052D01*
X113740026Y-84240052D01*
X114760026Y-84240052D01*
X114760026Y-85260052D01*
G37*
X114760026Y-85260052D02*
X113740026Y-85260052D01*
X113740026Y-84240052D01*
X114760026Y-84240052D01*
X114760026Y-85260052D01*
G36*
X131270026Y-80180052D02*
G01*
X130250026Y-80180052D01*
X130250026Y-79160052D01*
X131270026Y-79160052D01*
X131270026Y-80180052D01*
G37*
X131270026Y-80180052D02*
X130250026Y-80180052D01*
X130250026Y-79160052D01*
X131270026Y-79160052D01*
X131270026Y-80180052D01*
G36*
X133810026Y-81450052D02*
G01*
X132790026Y-81450052D01*
X132790026Y-80430052D01*
X133810026Y-80430052D01*
X133810026Y-81450052D01*
G37*
X133810026Y-81450052D02*
X132790026Y-81450052D01*
X132790026Y-80430052D01*
X133810026Y-80430052D01*
X133810026Y-81450052D01*
G36*
X145240026Y-81450052D02*
G01*
X144220026Y-81450052D01*
X144220026Y-80430052D01*
X145240026Y-80430052D01*
X145240026Y-81450052D01*
G37*
X145240026Y-81450052D02*
X144220026Y-81450052D01*
X144220026Y-80430052D01*
X145240026Y-80430052D01*
X145240026Y-81450052D01*
G36*
X124920026Y-85260052D02*
G01*
X123900026Y-85260052D01*
X123900026Y-84240052D01*
X124920026Y-84240052D01*
X124920026Y-85260052D01*
G37*
X124920026Y-85260052D02*
X123900026Y-85260052D01*
X123900026Y-84240052D01*
X124920026Y-84240052D01*
X124920026Y-85260052D01*
G36*
X103330026Y-83990052D02*
G01*
X102310026Y-83990052D01*
X102310026Y-82970052D01*
X103330026Y-82970052D01*
X103330026Y-83990052D01*
G37*
X103330026Y-83990052D02*
X102310026Y-83990052D01*
X102310026Y-82970052D01*
X103330026Y-82970052D01*
X103330026Y-83990052D01*
G36*
X104600026Y-83990052D02*
G01*
X103580026Y-83990052D01*
X103580026Y-82970052D01*
X104600026Y-82970052D01*
X104600026Y-83990052D01*
G37*
X104600026Y-83990052D02*
X103580026Y-83990052D01*
X103580026Y-82970052D01*
X104600026Y-82970052D01*
X104600026Y-83990052D01*
G36*
X123650026Y-81450052D02*
G01*
X122630026Y-81450052D01*
X122630026Y-80430052D01*
X123650026Y-80430052D01*
X123650026Y-81450052D01*
G37*
X123650026Y-81450052D02*
X122630026Y-81450052D01*
X122630026Y-80430052D01*
X123650026Y-80430052D01*
X123650026Y-81450052D01*
G36*
X110950026Y-77640052D02*
G01*
X109930026Y-77640052D01*
X109930026Y-76620052D01*
X110950026Y-76620052D01*
X110950026Y-77640052D01*
G37*
X110950026Y-77640052D02*
X109930026Y-77640052D01*
X109930026Y-76620052D01*
X110950026Y-76620052D01*
X110950026Y-77640052D01*
G36*
X137620026Y-81450052D02*
G01*
X136600026Y-81450052D01*
X136600026Y-80430052D01*
X137620026Y-80430052D01*
X137620026Y-81450052D01*
G37*
X137620026Y-81450052D02*
X136600026Y-81450052D01*
X136600026Y-80430052D01*
X137620026Y-80430052D01*
X137620026Y-81450052D01*
G36*
X103330026Y-81450052D02*
G01*
X102310026Y-81450052D01*
X102310026Y-80430052D01*
X103330026Y-80430052D01*
X103330026Y-81450052D01*
G37*
X103330026Y-81450052D02*
X102310026Y-81450052D01*
X102310026Y-80430052D01*
X103330026Y-80430052D01*
X103330026Y-81450052D01*
G36*
X121110026Y-85260052D02*
G01*
X120090026Y-85260052D01*
X120090026Y-84240052D01*
X121110026Y-84240052D01*
X121110026Y-85260052D01*
G37*
X121110026Y-85260052D02*
X120090026Y-85260052D01*
X120090026Y-84240052D01*
X121110026Y-84240052D01*
X121110026Y-85260052D01*
G36*
X124920026Y-80180052D02*
G01*
X123900026Y-80180052D01*
X123900026Y-79160052D01*
X124920026Y-79160052D01*
X124920026Y-80180052D01*
G37*
X124920026Y-80180052D02*
X123900026Y-80180052D01*
X123900026Y-79160052D01*
X124920026Y-79160052D01*
X124920026Y-80180052D01*
G36*
X130000026Y-81450052D02*
G01*
X128980026Y-81450052D01*
X128980026Y-80430052D01*
X130000026Y-80430052D01*
X130000026Y-81450052D01*
G37*
X130000026Y-81450052D02*
X128980026Y-81450052D01*
X128980026Y-80430052D01*
X130000026Y-80430052D01*
X130000026Y-81450052D01*
G36*
X135080026Y-85260052D02*
G01*
X134060026Y-85260052D01*
X134060026Y-84240052D01*
X135080026Y-84240052D01*
X135080026Y-85260052D01*
G37*
X135080026Y-85260052D02*
X134060026Y-85260052D01*
X134060026Y-84240052D01*
X135080026Y-84240052D01*
X135080026Y-85260052D01*
G36*
X104600026Y-82720052D02*
G01*
X103580026Y-82720052D01*
X103580026Y-81700052D01*
X104600026Y-81700052D01*
X104600026Y-82720052D01*
G37*
X104600026Y-82720052D02*
X103580026Y-82720052D01*
X103580026Y-81700052D01*
X104600026Y-81700052D01*
X104600026Y-82720052D01*
G36*
X142700026Y-85260052D02*
G01*
X141680026Y-85260052D01*
X141680026Y-84240052D01*
X142700026Y-84240052D01*
X142700026Y-85260052D01*
G37*
X142700026Y-85260052D02*
X141680026Y-85260052D01*
X141680026Y-84240052D01*
X142700026Y-84240052D01*
X142700026Y-85260052D01*
G36*
X100790026Y-83990052D02*
G01*
X99770026Y-83990052D01*
X99770026Y-82970052D01*
X100790026Y-82970052D01*
X100790026Y-83990052D01*
G37*
X100790026Y-83990052D02*
X99770026Y-83990052D01*
X99770026Y-82970052D01*
X100790026Y-82970052D01*
X100790026Y-83990052D01*
G36*
X110950026Y-81450052D02*
G01*
X109930026Y-81450052D01*
X109930026Y-80430052D01*
X110950026Y-80430052D01*
X110950026Y-81450052D01*
G37*
X110950026Y-81450052D02*
X109930026Y-81450052D01*
X109930026Y-80430052D01*
X110950026Y-80430052D01*
X110950026Y-81450052D01*
G36*
X128730026Y-77640052D02*
G01*
X127710026Y-77640052D01*
X127710026Y-76620052D01*
X128730026Y-76620052D01*
X128730026Y-77640052D01*
G37*
X128730026Y-77640052D02*
X127710026Y-77640052D01*
X127710026Y-76620052D01*
X128730026Y-76620052D01*
X128730026Y-77640052D01*
G36*
X135080026Y-77640052D02*
G01*
X134060026Y-77640052D01*
X134060026Y-76620052D01*
X135080026Y-76620052D01*
X135080026Y-77640052D01*
G37*
X135080026Y-77640052D02*
X134060026Y-77640052D01*
X134060026Y-76620052D01*
X135080026Y-76620052D01*
X135080026Y-77640052D01*
G36*
X119840026Y-83990052D02*
G01*
X118820026Y-83990052D01*
X118820026Y-82970052D01*
X119840026Y-82970052D01*
X119840026Y-83990052D01*
G37*
X119840026Y-83990052D02*
X118820026Y-83990052D01*
X118820026Y-82970052D01*
X119840026Y-82970052D01*
X119840026Y-83990052D01*
G36*
X100790026Y-81450052D02*
G01*
X99770026Y-81450052D01*
X99770026Y-80430052D01*
X100790026Y-80430052D01*
X100790026Y-81450052D01*
G37*
X100790026Y-81450052D02*
X99770026Y-81450052D01*
X99770026Y-80430052D01*
X100790026Y-80430052D01*
X100790026Y-81450052D01*
G36*
X127460026Y-81450052D02*
G01*
X126440026Y-81450052D01*
X126440026Y-80430052D01*
X127460026Y-80430052D01*
X127460026Y-81450052D01*
G37*
X127460026Y-81450052D02*
X126440026Y-81450052D01*
X126440026Y-80430052D01*
X127460026Y-80430052D01*
X127460026Y-81450052D01*
G36*
X122380026Y-80180052D02*
G01*
X121360026Y-80180052D01*
X121360026Y-79160052D01*
X122380026Y-79160052D01*
X122380026Y-80180052D01*
G37*
X122380026Y-80180052D02*
X121360026Y-80180052D01*
X121360026Y-79160052D01*
X122380026Y-79160052D01*
X122380026Y-80180052D01*
G36*
X121110026Y-80180052D02*
G01*
X120090026Y-80180052D01*
X120090026Y-79160052D01*
X121110026Y-79160052D01*
X121110026Y-80180052D01*
G37*
X121110026Y-80180052D02*
X120090026Y-80180052D01*
X120090026Y-79160052D01*
X121110026Y-79160052D01*
X121110026Y-80180052D01*
G36*
X141430026Y-83990052D02*
G01*
X140410026Y-83990052D01*
X140410026Y-82970052D01*
X141430026Y-82970052D01*
X141430026Y-83990052D01*
G37*
X141430026Y-83990052D02*
X140410026Y-83990052D01*
X140410026Y-82970052D01*
X141430026Y-82970052D01*
X141430026Y-83990052D01*
G36*
X146510026Y-80180052D02*
G01*
X145490026Y-80180052D01*
X145490026Y-79160052D01*
X146510026Y-79160052D01*
X146510026Y-80180052D01*
G37*
X146510026Y-80180052D02*
X145490026Y-80180052D01*
X145490026Y-79160052D01*
X146510026Y-79160052D01*
X146510026Y-80180052D01*
G36*
X126190026Y-78910052D02*
G01*
X125170026Y-78910052D01*
X125170026Y-77890052D01*
X126190026Y-77890052D01*
X126190026Y-78910052D01*
G37*
X126190026Y-78910052D02*
X125170026Y-78910052D01*
X125170026Y-77890052D01*
X126190026Y-77890052D01*
X126190026Y-78910052D01*
G36*
X126190026Y-76370052D02*
G01*
X125170026Y-76370052D01*
X125170026Y-75350052D01*
X126190026Y-75350052D01*
X126190026Y-76370052D01*
G37*
X126190026Y-76370052D02*
X125170026Y-76370052D01*
X125170026Y-75350052D01*
X126190026Y-75350052D01*
X126190026Y-76370052D01*
G36*
X119840026Y-77640052D02*
G01*
X118820026Y-77640052D01*
X118820026Y-76620052D01*
X119840026Y-76620052D01*
X119840026Y-77640052D01*
G37*
X119840026Y-77640052D02*
X118820026Y-77640052D01*
X118820026Y-76620052D01*
X119840026Y-76620052D01*
X119840026Y-77640052D01*
G36*
X142700026Y-80180052D02*
G01*
X141680026Y-80180052D01*
X141680026Y-79160052D01*
X142700026Y-79160052D01*
X142700026Y-80180052D01*
G37*
X142700026Y-80180052D02*
X141680026Y-80180052D01*
X141680026Y-79160052D01*
X142700026Y-79160052D01*
X142700026Y-80180052D01*
G36*
X118570026Y-83990052D02*
G01*
X117550026Y-83990052D01*
X117550026Y-82970052D01*
X118570026Y-82970052D01*
X118570026Y-83990052D01*
G37*
X118570026Y-83990052D02*
X117550026Y-83990052D01*
X117550026Y-82970052D01*
X118570026Y-82970052D01*
X118570026Y-83990052D01*
G36*
X108410026Y-78910052D02*
G01*
X107390026Y-78910052D01*
X107390026Y-77890052D01*
X108410026Y-77890052D01*
X108410026Y-78910052D01*
G37*
X108410026Y-78910052D02*
X107390026Y-78910052D01*
X107390026Y-77890052D01*
X108410026Y-77890052D01*
X108410026Y-78910052D01*
G36*
X100790026Y-82720052D02*
G01*
X99770026Y-82720052D01*
X99770026Y-81700052D01*
X100790026Y-81700052D01*
X100790026Y-82720052D01*
G37*
X100790026Y-82720052D02*
X99770026Y-82720052D01*
X99770026Y-81700052D01*
X100790026Y-81700052D01*
X100790026Y-82720052D01*
G36*
X132540026Y-76370052D02*
G01*
X131520026Y-76370052D01*
X131520026Y-75350052D01*
X132540026Y-75350052D01*
X132540026Y-76370052D01*
G37*
X132540026Y-76370052D02*
X131520026Y-76370052D01*
X131520026Y-75350052D01*
X132540026Y-75350052D01*
X132540026Y-76370052D01*
G36*
X109680026Y-81450052D02*
G01*
X108660026Y-81450052D01*
X108660026Y-80430052D01*
X109680026Y-80430052D01*
X109680026Y-81450052D01*
G37*
X109680026Y-81450052D02*
X108660026Y-81450052D01*
X108660026Y-80430052D01*
X109680026Y-80430052D01*
X109680026Y-81450052D01*
G36*
X108410026Y-80180052D02*
G01*
X107390026Y-80180052D01*
X107390026Y-79160052D01*
X108410026Y-79160052D01*
X108410026Y-80180052D01*
G37*
X108410026Y-80180052D02*
X107390026Y-80180052D01*
X107390026Y-79160052D01*
X108410026Y-79160052D01*
X108410026Y-80180052D01*
G36*
X126190026Y-77640052D02*
G01*
X125170026Y-77640052D01*
X125170026Y-76620052D01*
X126190026Y-76620052D01*
X126190026Y-77640052D01*
G37*
X126190026Y-77640052D02*
X125170026Y-77640052D01*
X125170026Y-76620052D01*
X126190026Y-76620052D01*
X126190026Y-77640052D01*
G36*
X121110026Y-78910052D02*
G01*
X120090026Y-78910052D01*
X120090026Y-77890052D01*
X121110026Y-77890052D01*
X121110026Y-78910052D01*
G37*
X121110026Y-78910052D02*
X120090026Y-78910052D01*
X120090026Y-77890052D01*
X121110026Y-77890052D01*
X121110026Y-78910052D01*
G36*
X121110026Y-76370052D02*
G01*
X120090026Y-76370052D01*
X120090026Y-75350052D01*
X121110026Y-75350052D01*
X121110026Y-76370052D01*
G37*
X121110026Y-76370052D02*
X120090026Y-76370052D01*
X120090026Y-75350052D01*
X121110026Y-75350052D01*
X121110026Y-76370052D01*
G36*
X126190026Y-81450052D02*
G01*
X125170026Y-81450052D01*
X125170026Y-80430052D01*
X126190026Y-80430052D01*
X126190026Y-81450052D01*
G37*
X126190026Y-81450052D02*
X125170026Y-81450052D01*
X125170026Y-80430052D01*
X126190026Y-80430052D01*
X126190026Y-81450052D01*
G36*
X104600026Y-76370052D02*
G01*
X103580026Y-76370052D01*
X103580026Y-75350052D01*
X104600026Y-75350052D01*
X104600026Y-76370052D01*
G37*
X104600026Y-76370052D02*
X103580026Y-76370052D01*
X103580026Y-75350052D01*
X104600026Y-75350052D01*
X104600026Y-76370052D01*
G36*
X147780026Y-77640052D02*
G01*
X146760026Y-77640052D01*
X146760026Y-76620052D01*
X147780026Y-76620052D01*
X147780026Y-77640052D01*
G37*
X147780026Y-77640052D02*
X146760026Y-77640052D01*
X146760026Y-76620052D01*
X147780026Y-76620052D01*
X147780026Y-77640052D01*
G36*
X118570026Y-78910052D02*
G01*
X117550026Y-78910052D01*
X117550026Y-77890052D01*
X118570026Y-77890052D01*
X118570026Y-78910052D01*
G37*
X118570026Y-78910052D02*
X117550026Y-78910052D01*
X117550026Y-77890052D01*
X118570026Y-77890052D01*
X118570026Y-78910052D01*
G36*
X100790026Y-76370052D02*
G01*
X99770026Y-76370052D01*
X99770026Y-75350052D01*
X100790026Y-75350052D01*
X100790026Y-76370052D01*
G37*
X100790026Y-76370052D02*
X99770026Y-76370052D01*
X99770026Y-75350052D01*
X100790026Y-75350052D01*
X100790026Y-76370052D01*
G36*
X138890026Y-80180052D02*
G01*
X137870026Y-80180052D01*
X137870026Y-79160052D01*
X138890026Y-79160052D01*
X138890026Y-80180052D01*
G37*
X138890026Y-80180052D02*
X137870026Y-80180052D01*
X137870026Y-79160052D01*
X138890026Y-79160052D01*
X138890026Y-80180052D01*
G36*
X108410026Y-81450052D02*
G01*
X107390026Y-81450052D01*
X107390026Y-80430052D01*
X108410026Y-80430052D01*
X108410026Y-81450052D01*
G37*
X108410026Y-81450052D02*
X107390026Y-81450052D01*
X107390026Y-80430052D01*
X108410026Y-80430052D01*
X108410026Y-81450052D01*
G36*
X107140026Y-85260052D02*
G01*
X106120026Y-85260052D01*
X106120026Y-84240052D01*
X107140026Y-84240052D01*
X107140026Y-85260052D01*
G37*
X107140026Y-85260052D02*
X106120026Y-85260052D01*
X106120026Y-84240052D01*
X107140026Y-84240052D01*
X107140026Y-85260052D01*
G36*
X142700026Y-76370052D02*
G01*
X141680026Y-76370052D01*
X141680026Y-75350052D01*
X142700026Y-75350052D01*
X142700026Y-76370052D01*
G37*
X142700026Y-76370052D02*
X141680026Y-76370052D01*
X141680026Y-75350052D01*
X142700026Y-75350052D01*
X142700026Y-76370052D01*
G36*
X143970026Y-81450052D02*
G01*
X142950026Y-81450052D01*
X142950026Y-80430052D01*
X143970026Y-80430052D01*
X143970026Y-81450052D01*
G37*
X143970026Y-81450052D02*
X142950026Y-81450052D01*
X142950026Y-80430052D01*
X143970026Y-80430052D01*
X143970026Y-81450052D01*
G36*
X133810026Y-83990052D02*
G01*
X132790026Y-83990052D01*
X132790026Y-82970052D01*
X133810026Y-82970052D01*
X133810026Y-83990052D01*
G37*
X133810026Y-83990052D02*
X132790026Y-83990052D01*
X132790026Y-82970052D01*
X133810026Y-82970052D01*
X133810026Y-83990052D01*
G36*
X99520026Y-80180052D02*
G01*
X98500026Y-80180052D01*
X98500026Y-79160052D01*
X99520026Y-79160052D01*
X99520026Y-80180052D01*
G37*
X99520026Y-80180052D02*
X98500026Y-80180052D01*
X98500026Y-79160052D01*
X99520026Y-79160052D01*
X99520026Y-80180052D01*
G36*
X127460026Y-83990052D02*
G01*
X126440026Y-83990052D01*
X126440026Y-82970052D01*
X127460026Y-82970052D01*
X127460026Y-83990052D01*
G37*
X127460026Y-83990052D02*
X126440026Y-83990052D01*
X126440026Y-82970052D01*
X127460026Y-82970052D01*
X127460026Y-83990052D01*
G36*
X98250026Y-82720052D02*
G01*
X97230026Y-82720052D01*
X97230026Y-81700052D01*
X98250026Y-81700052D01*
X98250026Y-82720052D01*
G37*
X98250026Y-82720052D02*
X97230026Y-82720052D01*
X97230026Y-81700052D01*
X98250026Y-81700052D01*
X98250026Y-82720052D01*
G36*
X117300026Y-83990052D02*
G01*
X116280026Y-83990052D01*
X116280026Y-82970052D01*
X117300026Y-82970052D01*
X117300026Y-83990052D01*
G37*
X117300026Y-83990052D02*
X116280026Y-83990052D01*
X116280026Y-82970052D01*
X117300026Y-82970052D01*
X117300026Y-83990052D01*
G36*
X135080026Y-76370052D02*
G01*
X134060026Y-76370052D01*
X134060026Y-75350052D01*
X135080026Y-75350052D01*
X135080026Y-76370052D01*
G37*
X135080026Y-76370052D02*
X134060026Y-76370052D01*
X134060026Y-75350052D01*
X135080026Y-75350052D01*
X135080026Y-76370052D01*
G36*
X142700026Y-78910052D02*
G01*
X141680026Y-78910052D01*
X141680026Y-77890052D01*
X142700026Y-77890052D01*
X142700026Y-78910052D01*
G37*
X142700026Y-78910052D02*
X141680026Y-78910052D01*
X141680026Y-77890052D01*
X142700026Y-77890052D01*
X142700026Y-78910052D01*
G36*
X137620026Y-80180052D02*
G01*
X136600026Y-80180052D01*
X136600026Y-79160052D01*
X137620026Y-79160052D01*
X137620026Y-80180052D01*
G37*
X137620026Y-80180052D02*
X136600026Y-80180052D01*
X136600026Y-79160052D01*
X137620026Y-79160052D01*
X137620026Y-80180052D01*
G36*
X137620026Y-83990052D02*
G01*
X136600026Y-83990052D01*
X136600026Y-82970052D01*
X137620026Y-82970052D01*
X137620026Y-83990052D01*
G37*
X137620026Y-83990052D02*
X136600026Y-83990052D01*
X136600026Y-82970052D01*
X137620026Y-82970052D01*
X137620026Y-83990052D01*
G36*
X122380026Y-81450052D02*
G01*
X121360026Y-81450052D01*
X121360026Y-80430052D01*
X122380026Y-80430052D01*
X122380026Y-81450052D01*
G37*
X122380026Y-81450052D02*
X121360026Y-81450052D01*
X121360026Y-80430052D01*
X122380026Y-80430052D01*
X122380026Y-81450052D01*
G36*
X121110026Y-83990052D02*
G01*
X120090026Y-83990052D01*
X120090026Y-82970052D01*
X121110026Y-82970052D01*
X121110026Y-83990052D01*
G37*
X121110026Y-83990052D02*
X120090026Y-83990052D01*
X120090026Y-82970052D01*
X121110026Y-82970052D01*
X121110026Y-83990052D01*
G36*
X117300026Y-85260052D02*
G01*
X116280026Y-85260052D01*
X116280026Y-84240052D01*
X117300026Y-84240052D01*
X117300026Y-85260052D01*
G37*
X117300026Y-85260052D02*
X116280026Y-85260052D01*
X116280026Y-84240052D01*
X117300026Y-84240052D01*
X117300026Y-85260052D01*
G36*
X143970026Y-82720052D02*
G01*
X142950026Y-82720052D01*
X142950026Y-81700052D01*
X143970026Y-81700052D01*
X143970026Y-82720052D01*
G37*
X143970026Y-82720052D02*
X142950026Y-82720052D01*
X142950026Y-81700052D01*
X143970026Y-81700052D01*
X143970026Y-82720052D01*
G36*
X124920026Y-82720052D02*
G01*
X123900026Y-82720052D01*
X123900026Y-81700052D01*
X124920026Y-81700052D01*
X124920026Y-82720052D01*
G37*
X124920026Y-82720052D02*
X123900026Y-82720052D01*
X123900026Y-81700052D01*
X124920026Y-81700052D01*
X124920026Y-82720052D01*
G36*
X116030026Y-80180052D02*
G01*
X115010026Y-80180052D01*
X115010026Y-79160052D01*
X116030026Y-79160052D01*
X116030026Y-80180052D01*
G37*
X116030026Y-80180052D02*
X115010026Y-80180052D01*
X115010026Y-79160052D01*
X116030026Y-79160052D01*
X116030026Y-80180052D01*
G36*
X141430026Y-77640052D02*
G01*
X140410026Y-77640052D01*
X140410026Y-76620052D01*
X141430026Y-76620052D01*
X141430026Y-77640052D01*
G37*
X141430026Y-77640052D02*
X140410026Y-77640052D01*
X140410026Y-76620052D01*
X141430026Y-76620052D01*
X141430026Y-77640052D01*
G36*
X141430026Y-80180052D02*
G01*
X140410026Y-80180052D01*
X140410026Y-79160052D01*
X141430026Y-79160052D01*
X141430026Y-80180052D01*
G37*
X141430026Y-80180052D02*
X140410026Y-80180052D01*
X140410026Y-79160052D01*
X141430026Y-79160052D01*
X141430026Y-80180052D01*
G36*
X145240026Y-80180052D02*
G01*
X144220026Y-80180052D01*
X144220026Y-79160052D01*
X145240026Y-79160052D01*
X145240026Y-80180052D01*
G37*
X145240026Y-80180052D02*
X144220026Y-80180052D01*
X144220026Y-79160052D01*
X145240026Y-79160052D01*
X145240026Y-80180052D01*
G36*
X119840026Y-82720052D02*
G01*
X118820026Y-82720052D01*
X118820026Y-81700052D01*
X119840026Y-81700052D01*
X119840026Y-82720052D01*
G37*
X119840026Y-82720052D02*
X118820026Y-82720052D01*
X118820026Y-81700052D01*
X119840026Y-81700052D01*
X119840026Y-82720052D01*
G36*
X118570026Y-77640052D02*
G01*
X117550026Y-77640052D01*
X117550026Y-76620052D01*
X118570026Y-76620052D01*
X118570026Y-77640052D01*
G37*
X118570026Y-77640052D02*
X117550026Y-77640052D01*
X117550026Y-76620052D01*
X118570026Y-76620052D01*
X118570026Y-77640052D01*
G36*
X135080026Y-83990052D02*
G01*
X134060026Y-83990052D01*
X134060026Y-82970052D01*
X135080026Y-82970052D01*
X135080026Y-83990052D01*
G37*
X135080026Y-83990052D02*
X134060026Y-83990052D01*
X134060026Y-82970052D01*
X135080026Y-82970052D01*
X135080026Y-83990052D01*
G36*
X145240026Y-85260052D02*
G01*
X144220026Y-85260052D01*
X144220026Y-84240052D01*
X145240026Y-84240052D01*
X145240026Y-85260052D01*
G37*
X145240026Y-85260052D02*
X144220026Y-85260052D01*
X144220026Y-84240052D01*
X145240026Y-84240052D01*
X145240026Y-85260052D01*
G36*
X114760026Y-78910052D02*
G01*
X113740026Y-78910052D01*
X113740026Y-77890052D01*
X114760026Y-77890052D01*
X114760026Y-78910052D01*
G37*
X114760026Y-78910052D02*
X113740026Y-78910052D01*
X113740026Y-77890052D01*
X114760026Y-77890052D01*
X114760026Y-78910052D01*
G36*
X110950026Y-83990052D02*
G01*
X109930026Y-83990052D01*
X109930026Y-82970052D01*
X110950026Y-82970052D01*
X110950026Y-83990052D01*
G37*
X110950026Y-83990052D02*
X109930026Y-83990052D01*
X109930026Y-82970052D01*
X110950026Y-82970052D01*
X110950026Y-83990052D01*
G36*
X146510026Y-82720052D02*
G01*
X145490026Y-82720052D01*
X145490026Y-81700052D01*
X146510026Y-81700052D01*
X146510026Y-82720052D01*
G37*
X146510026Y-82720052D02*
X145490026Y-82720052D01*
X145490026Y-81700052D01*
X146510026Y-81700052D01*
X146510026Y-82720052D01*
G36*
X137620026Y-78910052D02*
G01*
X136600026Y-78910052D01*
X136600026Y-77890052D01*
X137620026Y-77890052D01*
X137620026Y-78910052D01*
G37*
X137620026Y-78910052D02*
X136600026Y-78910052D01*
X136600026Y-77890052D01*
X137620026Y-77890052D01*
X137620026Y-78910052D01*
G36*
X98250026Y-85260052D02*
G01*
X97230026Y-85260052D01*
X97230026Y-84240052D01*
X98250026Y-84240052D01*
X98250026Y-85260052D01*
G37*
X98250026Y-85260052D02*
X97230026Y-85260052D01*
X97230026Y-84240052D01*
X98250026Y-84240052D01*
X98250026Y-85260052D01*
G36*
X107140026Y-81450052D02*
G01*
X106120026Y-81450052D01*
X106120026Y-80430052D01*
X107140026Y-80430052D01*
X107140026Y-81450052D01*
G37*
X107140026Y-81450052D02*
X106120026Y-81450052D01*
X106120026Y-80430052D01*
X107140026Y-80430052D01*
X107140026Y-81450052D01*
G36*
X118570026Y-81450052D02*
G01*
X117550026Y-81450052D01*
X117550026Y-80430052D01*
X118570026Y-80430052D01*
X118570026Y-81450052D01*
G37*
X118570026Y-81450052D02*
X117550026Y-81450052D01*
X117550026Y-80430052D01*
X118570026Y-80430052D01*
X118570026Y-81450052D01*
G36*
X119840026Y-80180052D02*
G01*
X118820026Y-80180052D01*
X118820026Y-79160052D01*
X119840026Y-79160052D01*
X119840026Y-80180052D01*
G37*
X119840026Y-80180052D02*
X118820026Y-80180052D01*
X118820026Y-79160052D01*
X119840026Y-79160052D01*
X119840026Y-80180052D01*
G36*
X130000026Y-76370052D02*
G01*
X128980026Y-76370052D01*
X128980026Y-75350052D01*
X130000026Y-75350052D01*
X130000026Y-76370052D01*
G37*
X130000026Y-76370052D02*
X128980026Y-76370052D01*
X128980026Y-75350052D01*
X130000026Y-75350052D01*
X130000026Y-76370052D01*
G36*
X135080026Y-80180052D02*
G01*
X134060026Y-80180052D01*
X134060026Y-79160052D01*
X135080026Y-79160052D01*
X135080026Y-80180052D01*
G37*
X135080026Y-80180052D02*
X134060026Y-80180052D01*
X134060026Y-79160052D01*
X135080026Y-79160052D01*
X135080026Y-80180052D01*
G36*
X141430026Y-85260052D02*
G01*
X140410026Y-85260052D01*
X140410026Y-84240052D01*
X141430026Y-84240052D01*
X141430026Y-85260052D01*
G37*
X141430026Y-85260052D02*
X140410026Y-85260052D01*
X140410026Y-84240052D01*
X141430026Y-84240052D01*
X141430026Y-85260052D01*
G36*
X98250026Y-78910052D02*
G01*
X97230026Y-78910052D01*
X97230026Y-77890052D01*
X98250026Y-77890052D01*
X98250026Y-78910052D01*
G37*
X98250026Y-78910052D02*
X97230026Y-78910052D01*
X97230026Y-77890052D01*
X98250026Y-77890052D01*
X98250026Y-78910052D01*
G36*
X102060026Y-78910052D02*
G01*
X101040026Y-78910052D01*
X101040026Y-77890052D01*
X102060026Y-77890052D01*
X102060026Y-78910052D01*
G37*
X102060026Y-78910052D02*
X101040026Y-78910052D01*
X101040026Y-77890052D01*
X102060026Y-77890052D01*
X102060026Y-78910052D01*
G36*
X114760026Y-76370052D02*
G01*
X113740026Y-76370052D01*
X113740026Y-75350052D01*
X114760026Y-75350052D01*
X114760026Y-76370052D01*
G37*
X114760026Y-76370052D02*
X113740026Y-76370052D01*
X113740026Y-75350052D01*
X114760026Y-75350052D01*
X114760026Y-76370052D01*
G36*
X140160026Y-77640052D02*
G01*
X139140026Y-77640052D01*
X139140026Y-76620052D01*
X140160026Y-76620052D01*
X140160026Y-77640052D01*
G37*
X140160026Y-77640052D02*
X139140026Y-77640052D01*
X139140026Y-76620052D01*
X140160026Y-76620052D01*
X140160026Y-77640052D01*
G36*
X126190026Y-82720052D02*
G01*
X125170026Y-82720052D01*
X125170026Y-81700052D01*
X126190026Y-81700052D01*
X126190026Y-82720052D01*
G37*
X126190026Y-82720052D02*
X125170026Y-82720052D01*
X125170026Y-81700052D01*
X126190026Y-81700052D01*
X126190026Y-82720052D01*
G36*
X117300026Y-77640052D02*
G01*
X116280026Y-77640052D01*
X116280026Y-76620052D01*
X117300026Y-76620052D01*
X117300026Y-77640052D01*
G37*
X117300026Y-77640052D02*
X116280026Y-77640052D01*
X116280026Y-76620052D01*
X117300026Y-76620052D01*
X117300026Y-77640052D01*
G36*
X108410026Y-77640052D02*
G01*
X107390026Y-77640052D01*
X107390026Y-76620052D01*
X108410026Y-76620052D01*
X108410026Y-77640052D01*
G37*
X108410026Y-77640052D02*
X107390026Y-77640052D01*
X107390026Y-76620052D01*
X108410026Y-76620052D01*
X108410026Y-77640052D01*
G36*
X142700026Y-83990052D02*
G01*
X141680026Y-83990052D01*
X141680026Y-82970052D01*
X142700026Y-82970052D01*
X142700026Y-83990052D01*
G37*
X142700026Y-83990052D02*
X141680026Y-83990052D01*
X141680026Y-82970052D01*
X142700026Y-82970052D01*
X142700026Y-83990052D01*
G36*
X99520026Y-82720052D02*
G01*
X98500026Y-82720052D01*
X98500026Y-81700052D01*
X99520026Y-81700052D01*
X99520026Y-82720052D01*
G37*
X99520026Y-82720052D02*
X98500026Y-82720052D01*
X98500026Y-81700052D01*
X99520026Y-81700052D01*
X99520026Y-82720052D01*
G36*
X141430026Y-78910052D02*
G01*
X140410026Y-78910052D01*
X140410026Y-77890052D01*
X141430026Y-77890052D01*
X141430026Y-78910052D01*
G37*
X141430026Y-78910052D02*
X140410026Y-78910052D01*
X140410026Y-77890052D01*
X141430026Y-77890052D01*
X141430026Y-78910052D01*
G36*
X147780026Y-76370052D02*
G01*
X146760026Y-76370052D01*
X146760026Y-75350052D01*
X147780026Y-75350052D01*
X147780026Y-76370052D01*
G37*
X147780026Y-76370052D02*
X146760026Y-76370052D01*
X146760026Y-75350052D01*
X147780026Y-75350052D01*
X147780026Y-76370052D01*
G36*
X116030026Y-82720052D02*
G01*
X115010026Y-82720052D01*
X115010026Y-81700052D01*
X116030026Y-81700052D01*
X116030026Y-82720052D01*
G37*
X116030026Y-82720052D02*
X115010026Y-82720052D01*
X115010026Y-81700052D01*
X116030026Y-81700052D01*
X116030026Y-82720052D01*
G36*
X146510026Y-81450052D02*
G01*
X145490026Y-81450052D01*
X145490026Y-80430052D01*
X146510026Y-80430052D01*
X146510026Y-81450052D01*
G37*
X146510026Y-81450052D02*
X145490026Y-81450052D01*
X145490026Y-80430052D01*
X146510026Y-80430052D01*
X146510026Y-81450052D01*
G36*
X140160026Y-80180052D02*
G01*
X139140026Y-80180052D01*
X139140026Y-79160052D01*
X140160026Y-79160052D01*
X140160026Y-80180052D01*
G37*
X140160026Y-80180052D02*
X139140026Y-80180052D01*
X139140026Y-79160052D01*
X140160026Y-79160052D01*
X140160026Y-80180052D01*
G36*
X105870026Y-80180052D02*
G01*
X104850026Y-80180052D01*
X104850026Y-79160052D01*
X105870026Y-79160052D01*
X105870026Y-80180052D01*
G37*
X105870026Y-80180052D02*
X104850026Y-80180052D01*
X104850026Y-79160052D01*
X105870026Y-79160052D01*
X105870026Y-80180052D01*
G36*
X132540026Y-78910052D02*
G01*
X131520026Y-78910052D01*
X131520026Y-77890052D01*
X132540026Y-77890052D01*
X132540026Y-78910052D01*
G37*
X132540026Y-78910052D02*
X131520026Y-78910052D01*
X131520026Y-77890052D01*
X132540026Y-77890052D01*
X132540026Y-78910052D01*
G36*
X121110026Y-77640052D02*
G01*
X120090026Y-77640052D01*
X120090026Y-76620052D01*
X121110026Y-76620052D01*
X121110026Y-77640052D01*
G37*
X121110026Y-77640052D02*
X120090026Y-77640052D01*
X120090026Y-76620052D01*
X121110026Y-76620052D01*
X121110026Y-77640052D01*
G36*
X135080026Y-82720052D02*
G01*
X134060026Y-82720052D01*
X134060026Y-81700052D01*
X135080026Y-81700052D01*
X135080026Y-82720052D01*
G37*
X135080026Y-82720052D02*
X134060026Y-82720052D01*
X134060026Y-81700052D01*
X135080026Y-81700052D01*
X135080026Y-82720052D01*
G36*
X110950026Y-82720052D02*
G01*
X109930026Y-82720052D01*
X109930026Y-81700052D01*
X110950026Y-81700052D01*
X110950026Y-82720052D01*
G37*
X110950026Y-82720052D02*
X109930026Y-82720052D01*
X109930026Y-81700052D01*
X110950026Y-81700052D01*
X110950026Y-82720052D01*
G36*
X127460026Y-85260052D02*
G01*
X126440026Y-85260052D01*
X126440026Y-84240052D01*
X127460026Y-84240052D01*
X127460026Y-85260052D01*
G37*
X127460026Y-85260052D02*
X126440026Y-85260052D01*
X126440026Y-84240052D01*
X127460026Y-84240052D01*
X127460026Y-85260052D01*
G36*
X133810026Y-76370052D02*
G01*
X132790026Y-76370052D01*
X132790026Y-75350052D01*
X133810026Y-75350052D01*
X133810026Y-76370052D01*
G37*
X133810026Y-76370052D02*
X132790026Y-76370052D01*
X132790026Y-75350052D01*
X133810026Y-75350052D01*
X133810026Y-76370052D01*
G36*
X146510026Y-83990052D02*
G01*
X145490026Y-83990052D01*
X145490026Y-82970052D01*
X146510026Y-82970052D01*
X146510026Y-83990052D01*
G37*
X146510026Y-83990052D02*
X145490026Y-83990052D01*
X145490026Y-82970052D01*
X146510026Y-82970052D01*
X146510026Y-83990052D01*
G36*
X114760026Y-83990052D02*
G01*
X113740026Y-83990052D01*
X113740026Y-82970052D01*
X114760026Y-82970052D01*
X114760026Y-83990052D01*
G37*
X114760026Y-83990052D02*
X113740026Y-83990052D01*
X113740026Y-82970052D01*
X114760026Y-82970052D01*
X114760026Y-83990052D01*
G36*
X116030026Y-81450052D02*
G01*
X115010026Y-81450052D01*
X115010026Y-80430052D01*
X116030026Y-80430052D01*
X116030026Y-81450052D01*
G37*
X116030026Y-81450052D02*
X115010026Y-81450052D01*
X115010026Y-80430052D01*
X116030026Y-80430052D01*
X116030026Y-81450052D01*
G36*
X146510026Y-85260052D02*
G01*
X145490026Y-85260052D01*
X145490026Y-84240052D01*
X146510026Y-84240052D01*
X146510026Y-85260052D01*
G37*
X146510026Y-85260052D02*
X145490026Y-85260052D01*
X145490026Y-84240052D01*
X146510026Y-84240052D01*
X146510026Y-85260052D01*
G36*
X118570026Y-76370052D02*
G01*
X117550026Y-76370052D01*
X117550026Y-75350052D01*
X118570026Y-75350052D01*
X118570026Y-76370052D01*
G37*
X118570026Y-76370052D02*
X117550026Y-76370052D01*
X117550026Y-75350052D01*
X118570026Y-75350052D01*
X118570026Y-76370052D01*
G36*
X119840026Y-85260052D02*
G01*
X118820026Y-85260052D01*
X118820026Y-84240052D01*
X119840026Y-84240052D01*
X119840026Y-85260052D01*
G37*
X119840026Y-85260052D02*
X118820026Y-85260052D01*
X118820026Y-84240052D01*
X119840026Y-84240052D01*
X119840026Y-85260052D01*
G36*
X121110026Y-81450052D02*
G01*
X120090026Y-81450052D01*
X120090026Y-80430052D01*
X121110026Y-80430052D01*
X121110026Y-81450052D01*
G37*
X121110026Y-81450052D02*
X120090026Y-81450052D01*
X120090026Y-80430052D01*
X121110026Y-80430052D01*
X121110026Y-81450052D01*
G36*
X138890026Y-76370052D02*
G01*
X137870026Y-76370052D01*
X137870026Y-75350052D01*
X138890026Y-75350052D01*
X138890026Y-76370052D01*
G37*
X138890026Y-76370052D02*
X137870026Y-76370052D01*
X137870026Y-75350052D01*
X138890026Y-75350052D01*
X138890026Y-76370052D01*
G36*
X109680026Y-78910052D02*
G01*
X108660026Y-78910052D01*
X108660026Y-77890052D01*
X109680026Y-77890052D01*
X109680026Y-78910052D01*
G37*
X109680026Y-78910052D02*
X108660026Y-78910052D01*
X108660026Y-77890052D01*
X109680026Y-77890052D01*
X109680026Y-78910052D01*
G36*
X137620026Y-77640052D02*
G01*
X136600026Y-77640052D01*
X136600026Y-76620052D01*
X137620026Y-76620052D01*
X137620026Y-77640052D01*
G37*
X137620026Y-77640052D02*
X136600026Y-77640052D01*
X136600026Y-76620052D01*
X137620026Y-76620052D01*
X137620026Y-77640052D01*
G36*
X147780026Y-82720052D02*
G01*
X146760026Y-82720052D01*
X146760026Y-81700052D01*
X147780026Y-81700052D01*
X147780026Y-82720052D01*
G37*
X147780026Y-82720052D02*
X146760026Y-82720052D01*
X146760026Y-81700052D01*
X147780026Y-81700052D01*
X147780026Y-82720052D01*
G36*
X135080026Y-78910052D02*
G01*
X134060026Y-78910052D01*
X134060026Y-77890052D01*
X135080026Y-77890052D01*
X135080026Y-78910052D01*
G37*
X135080026Y-78910052D02*
X134060026Y-78910052D01*
X134060026Y-77890052D01*
X135080026Y-77890052D01*
X135080026Y-78910052D01*
G36*
X99520026Y-78910052D02*
G01*
X98500026Y-78910052D01*
X98500026Y-77890052D01*
X99520026Y-77890052D01*
X99520026Y-78910052D01*
G37*
X99520026Y-78910052D02*
X98500026Y-78910052D01*
X98500026Y-77890052D01*
X99520026Y-77890052D01*
X99520026Y-78910052D01*
G36*
X133810026Y-82720052D02*
G01*
X132790026Y-82720052D01*
X132790026Y-81700052D01*
X133810026Y-81700052D01*
X133810026Y-82720052D01*
G37*
X133810026Y-82720052D02*
X132790026Y-82720052D01*
X132790026Y-81700052D01*
X133810026Y-81700052D01*
X133810026Y-82720052D01*
G36*
X110950026Y-85260052D02*
G01*
X109930026Y-85260052D01*
X109930026Y-84240052D01*
X110950026Y-84240052D01*
X110950026Y-85260052D01*
G37*
X110950026Y-85260052D02*
X109930026Y-85260052D01*
X109930026Y-84240052D01*
X110950026Y-84240052D01*
X110950026Y-85260052D01*
G36*
X105870026Y-85260052D02*
G01*
X104850026Y-85260052D01*
X104850026Y-84240052D01*
X105870026Y-84240052D01*
X105870026Y-85260052D01*
G37*
X105870026Y-85260052D02*
X104850026Y-85260052D01*
X104850026Y-84240052D01*
X105870026Y-84240052D01*
X105870026Y-85260052D01*
G36*
X126190026Y-80180052D02*
G01*
X125170026Y-80180052D01*
X125170026Y-79160052D01*
X126190026Y-79160052D01*
X126190026Y-80180052D01*
G37*
X126190026Y-80180052D02*
X125170026Y-80180052D01*
X125170026Y-79160052D01*
X126190026Y-79160052D01*
X126190026Y-80180052D01*
G36*
X136350026Y-77640052D02*
G01*
X135330026Y-77640052D01*
X135330026Y-76620052D01*
X136350026Y-76620052D01*
X136350026Y-77640052D01*
G37*
X136350026Y-77640052D02*
X135330026Y-77640052D01*
X135330026Y-76620052D01*
X136350026Y-76620052D01*
X136350026Y-77640052D01*
G36*
X126190026Y-85260052D02*
G01*
X125170026Y-85260052D01*
X125170026Y-84240052D01*
X126190026Y-84240052D01*
X126190026Y-85260052D01*
G37*
X126190026Y-85260052D02*
X125170026Y-85260052D01*
X125170026Y-84240052D01*
X126190026Y-84240052D01*
X126190026Y-85260052D01*
G36*
X108410026Y-82720052D02*
G01*
X107390026Y-82720052D01*
X107390026Y-81700052D01*
X108410026Y-81700052D01*
X108410026Y-82720052D01*
G37*
X108410026Y-82720052D02*
X107390026Y-82720052D01*
X107390026Y-81700052D01*
X108410026Y-81700052D01*
X108410026Y-82720052D01*
G36*
X133810026Y-77640052D02*
G01*
X132790026Y-77640052D01*
X132790026Y-76620052D01*
X133810026Y-76620052D01*
X133810026Y-77640052D01*
G37*
X133810026Y-77640052D02*
X132790026Y-77640052D01*
X132790026Y-76620052D01*
X133810026Y-76620052D01*
X133810026Y-77640052D01*
G36*
X114760026Y-82720052D02*
G01*
X113740026Y-82720052D01*
X113740026Y-81700052D01*
X114760026Y-81700052D01*
X114760026Y-82720052D01*
G37*
X114760026Y-82720052D02*
X113740026Y-82720052D01*
X113740026Y-81700052D01*
X114760026Y-81700052D01*
X114760026Y-82720052D01*
G36*
X122380026Y-85260052D02*
G01*
X121360026Y-85260052D01*
X121360026Y-84240052D01*
X122380026Y-84240052D01*
X122380026Y-85260052D01*
G37*
X122380026Y-85260052D02*
X121360026Y-85260052D01*
X121360026Y-84240052D01*
X122380026Y-84240052D01*
X122380026Y-85260052D01*
G36*
X124920026Y-76370052D02*
G01*
X123900026Y-76370052D01*
X123900026Y-75350052D01*
X124920026Y-75350052D01*
X124920026Y-76370052D01*
G37*
X124920026Y-76370052D02*
X123900026Y-76370052D01*
X123900026Y-75350052D01*
X124920026Y-75350052D01*
X124920026Y-76370052D01*
G36*
X145240026Y-77640052D02*
G01*
X144220026Y-77640052D01*
X144220026Y-76620052D01*
X145240026Y-76620052D01*
X145240026Y-77640052D01*
G37*
X145240026Y-77640052D02*
X144220026Y-77640052D01*
X144220026Y-76620052D01*
X145240026Y-76620052D01*
X145240026Y-77640052D01*
G36*
X127460026Y-78910052D02*
G01*
X126440026Y-78910052D01*
X126440026Y-77890052D01*
X127460026Y-77890052D01*
X127460026Y-78910052D01*
G37*
X127460026Y-78910052D02*
X126440026Y-78910052D01*
X126440026Y-77890052D01*
X127460026Y-77890052D01*
X127460026Y-78910052D01*
G36*
X103330026Y-78910052D02*
G01*
X102310026Y-78910052D01*
X102310026Y-77890052D01*
X103330026Y-77890052D01*
X103330026Y-78910052D01*
G37*
X103330026Y-78910052D02*
X102310026Y-78910052D01*
X102310026Y-77890052D01*
X103330026Y-77890052D01*
X103330026Y-78910052D01*
G36*
X118570026Y-85260052D02*
G01*
X117550026Y-85260052D01*
X117550026Y-84240052D01*
X118570026Y-84240052D01*
X118570026Y-85260052D01*
G37*
X118570026Y-85260052D02*
X117550026Y-85260052D01*
X117550026Y-84240052D01*
X118570026Y-84240052D01*
X118570026Y-85260052D01*
G36*
X131270026Y-82720052D02*
G01*
X130250026Y-82720052D01*
X130250026Y-81700052D01*
X131270026Y-81700052D01*
X131270026Y-82720052D01*
G37*
X131270026Y-82720052D02*
X130250026Y-82720052D01*
X130250026Y-81700052D01*
X131270026Y-81700052D01*
X131270026Y-82720052D01*
G36*
X112220026Y-80180052D02*
G01*
X111200026Y-80180052D01*
X111200026Y-79160052D01*
X112220026Y-79160052D01*
X112220026Y-80180052D01*
G37*
X112220026Y-80180052D02*
X111200026Y-80180052D01*
X111200026Y-79160052D01*
X112220026Y-79160052D01*
X112220026Y-80180052D01*
G36*
X107140026Y-80180052D02*
G01*
X106120026Y-80180052D01*
X106120026Y-79160052D01*
X107140026Y-79160052D01*
X107140026Y-80180052D01*
G37*
X107140026Y-80180052D02*
X106120026Y-80180052D01*
X106120026Y-79160052D01*
X107140026Y-79160052D01*
X107140026Y-80180052D01*
G36*
X127460026Y-76370052D02*
G01*
X126440026Y-76370052D01*
X126440026Y-75350052D01*
X127460026Y-75350052D01*
X127460026Y-76370052D01*
G37*
X127460026Y-76370052D02*
X126440026Y-76370052D01*
X126440026Y-75350052D01*
X127460026Y-75350052D01*
X127460026Y-76370052D01*
G36*
X137620026Y-76370052D02*
G01*
X136600026Y-76370052D01*
X136600026Y-75350052D01*
X137620026Y-75350052D01*
X137620026Y-76370052D01*
G37*
X137620026Y-76370052D02*
X136600026Y-76370052D01*
X136600026Y-75350052D01*
X137620026Y-75350052D01*
X137620026Y-76370052D01*
G36*
X124920026Y-77640052D02*
G01*
X123900026Y-77640052D01*
X123900026Y-76620052D01*
X124920026Y-76620052D01*
X124920026Y-77640052D01*
G37*
X124920026Y-77640052D02*
X123900026Y-77640052D01*
X123900026Y-76620052D01*
X124920026Y-76620052D01*
X124920026Y-77640052D01*
G36*
X132540026Y-77640052D02*
G01*
X131520026Y-77640052D01*
X131520026Y-76620052D01*
X132540026Y-76620052D01*
X132540026Y-77640052D01*
G37*
X132540026Y-77640052D02*
X131520026Y-77640052D01*
X131520026Y-76620052D01*
X132540026Y-76620052D01*
X132540026Y-77640052D01*
G36*
X141430026Y-76370052D02*
G01*
X140410026Y-76370052D01*
X140410026Y-75350052D01*
X141430026Y-75350052D01*
X141430026Y-76370052D01*
G37*
X141430026Y-76370052D02*
X140410026Y-76370052D01*
X140410026Y-75350052D01*
X141430026Y-75350052D01*
X141430026Y-76370052D01*
G36*
X138890026Y-85260052D02*
G01*
X137870026Y-85260052D01*
X137870026Y-84240052D01*
X138890026Y-84240052D01*
X138890026Y-85260052D01*
G37*
X138890026Y-85260052D02*
X137870026Y-85260052D01*
X137870026Y-84240052D01*
X138890026Y-84240052D01*
X138890026Y-85260052D01*
G36*
X102060026Y-80180052D02*
G01*
X101040026Y-80180052D01*
X101040026Y-79160052D01*
X102060026Y-79160052D01*
X102060026Y-80180052D01*
G37*
X102060026Y-80180052D02*
X101040026Y-80180052D01*
X101040026Y-79160052D01*
X102060026Y-79160052D01*
X102060026Y-80180052D01*
G36*
X122380026Y-82720052D02*
G01*
X121360026Y-82720052D01*
X121360026Y-81700052D01*
X122380026Y-81700052D01*
X122380026Y-82720052D01*
G37*
X122380026Y-82720052D02*
X121360026Y-82720052D01*
X121360026Y-81700052D01*
X122380026Y-81700052D01*
X122380026Y-82720052D01*
G36*
X113490026Y-82720052D02*
G01*
X112470026Y-82720052D01*
X112470026Y-81700052D01*
X113490026Y-81700052D01*
X113490026Y-82720052D01*
G37*
X113490026Y-82720052D02*
X112470026Y-82720052D01*
X112470026Y-81700052D01*
X113490026Y-81700052D01*
X113490026Y-82720052D01*
G36*
X140160026Y-78910052D02*
G01*
X139140026Y-78910052D01*
X139140026Y-77890052D01*
X140160026Y-77890052D01*
X140160026Y-78910052D01*
G37*
X140160026Y-78910052D02*
X139140026Y-78910052D01*
X139140026Y-77890052D01*
X140160026Y-77890052D01*
X140160026Y-78910052D01*
G36*
X130000026Y-77640052D02*
G01*
X128980026Y-77640052D01*
X128980026Y-76620052D01*
X130000026Y-76620052D01*
X130000026Y-77640052D01*
G37*
X130000026Y-77640052D02*
X128980026Y-77640052D01*
X128980026Y-76620052D01*
X130000026Y-76620052D01*
X130000026Y-77640052D01*
G36*
X109680026Y-85260052D02*
G01*
X108660026Y-85260052D01*
X108660026Y-84240052D01*
X109680026Y-84240052D01*
X109680026Y-85260052D01*
G37*
X109680026Y-85260052D02*
X108660026Y-85260052D01*
X108660026Y-84240052D01*
X109680026Y-84240052D01*
X109680026Y-85260052D01*
G36*
X112220026Y-82720052D02*
G01*
X111200026Y-82720052D01*
X111200026Y-81700052D01*
X112220026Y-81700052D01*
X112220026Y-82720052D01*
G37*
X112220026Y-82720052D02*
X111200026Y-82720052D01*
X111200026Y-81700052D01*
X112220026Y-81700052D01*
X112220026Y-82720052D01*
G36*
X138890026Y-82720052D02*
G01*
X137870026Y-82720052D01*
X137870026Y-81700052D01*
X138890026Y-81700052D01*
X138890026Y-82720052D01*
G37*
X138890026Y-82720052D02*
X137870026Y-82720052D01*
X137870026Y-81700052D01*
X138890026Y-81700052D01*
X138890026Y-82720052D01*
G36*
X128730026Y-80180052D02*
G01*
X127710026Y-80180052D01*
X127710026Y-79160052D01*
X128730026Y-79160052D01*
X128730026Y-80180052D01*
G37*
X128730026Y-80180052D02*
X127710026Y-80180052D01*
X127710026Y-79160052D01*
X128730026Y-79160052D01*
X128730026Y-80180052D01*
G36*
X147780026Y-78910052D02*
G01*
X146760026Y-78910052D01*
X146760026Y-77890052D01*
X147780026Y-77890052D01*
X147780026Y-78910052D01*
G37*
X147780026Y-78910052D02*
X146760026Y-78910052D01*
X146760026Y-77890052D01*
X147780026Y-77890052D01*
X147780026Y-78910052D01*
G36*
X145240026Y-83990052D02*
G01*
X144220026Y-83990052D01*
X144220026Y-82970052D01*
X145240026Y-82970052D01*
X145240026Y-83990052D01*
G37*
X145240026Y-83990052D02*
X144220026Y-83990052D01*
X144220026Y-82970052D01*
X145240026Y-82970052D01*
X145240026Y-83990052D01*
G36*
X131270026Y-77640052D02*
G01*
X130250026Y-77640052D01*
X130250026Y-76620052D01*
X131270026Y-76620052D01*
X131270026Y-77640052D01*
G37*
X131270026Y-77640052D02*
X130250026Y-77640052D01*
X130250026Y-76620052D01*
X131270026Y-76620052D01*
X131270026Y-77640052D01*
G36*
X104600026Y-80180052D02*
G01*
X103580026Y-80180052D01*
X103580026Y-79160052D01*
X104600026Y-79160052D01*
X104600026Y-80180052D01*
G37*
X104600026Y-80180052D02*
X103580026Y-80180052D01*
X103580026Y-79160052D01*
X104600026Y-79160052D01*
X104600026Y-80180052D01*
G36*
X102060026Y-81450052D02*
G01*
X101040026Y-81450052D01*
X101040026Y-80430052D01*
X102060026Y-80430052D01*
X102060026Y-81450052D01*
G37*
X102060026Y-81450052D02*
X101040026Y-81450052D01*
X101040026Y-80430052D01*
X102060026Y-80430052D01*
X102060026Y-81450052D01*
G36*
X105870026Y-77640052D02*
G01*
X104850026Y-77640052D01*
X104850026Y-76620052D01*
X105870026Y-76620052D01*
X105870026Y-77640052D01*
G37*
X105870026Y-77640052D02*
X104850026Y-77640052D01*
X104850026Y-76620052D01*
X105870026Y-76620052D01*
X105870026Y-77640052D01*
G36*
X142700026Y-81450052D02*
G01*
X141680026Y-81450052D01*
X141680026Y-80430052D01*
X142700026Y-80430052D01*
X142700026Y-81450052D01*
G37*
X142700026Y-81450052D02*
X141680026Y-81450052D01*
X141680026Y-80430052D01*
X142700026Y-80430052D01*
X142700026Y-81450052D01*
G36*
X105870026Y-83990052D02*
G01*
X104850026Y-83990052D01*
X104850026Y-82970052D01*
X105870026Y-82970052D01*
X105870026Y-83990052D01*
G37*
X105870026Y-83990052D02*
X104850026Y-83990052D01*
X104850026Y-82970052D01*
X105870026Y-82970052D01*
X105870026Y-83990052D01*
G36*
X104600026Y-85260052D02*
G01*
X103580026Y-85260052D01*
X103580026Y-84240052D01*
X104600026Y-84240052D01*
X104600026Y-85260052D01*
G37*
X104600026Y-85260052D02*
X103580026Y-85260052D01*
X103580026Y-84240052D01*
X104600026Y-84240052D01*
X104600026Y-85260052D01*
G36*
X117300026Y-78910052D02*
G01*
X116280026Y-78910052D01*
X116280026Y-77890052D01*
X117300026Y-77890052D01*
X117300026Y-78910052D01*
G37*
X117300026Y-78910052D02*
X116280026Y-78910052D01*
X116280026Y-77890052D01*
X117300026Y-77890052D01*
X117300026Y-78910052D01*
G36*
X105870026Y-82720052D02*
G01*
X104850026Y-82720052D01*
X104850026Y-81700052D01*
X105870026Y-81700052D01*
X105870026Y-82720052D01*
G37*
X105870026Y-82720052D02*
X104850026Y-82720052D01*
X104850026Y-81700052D01*
X105870026Y-81700052D01*
X105870026Y-82720052D01*
G36*
X104600026Y-77640052D02*
G01*
X103580026Y-77640052D01*
X103580026Y-76620052D01*
X104600026Y-76620052D01*
X104600026Y-77640052D01*
G37*
X104600026Y-77640052D02*
X103580026Y-77640052D01*
X103580026Y-76620052D01*
X104600026Y-76620052D01*
X104600026Y-77640052D01*
G36*
X137620026Y-82720052D02*
G01*
X136600026Y-82720052D01*
X136600026Y-81700052D01*
X137620026Y-81700052D01*
X137620026Y-82720052D01*
G37*
X137620026Y-82720052D02*
X136600026Y-82720052D01*
X136600026Y-81700052D01*
X137620026Y-81700052D01*
X137620026Y-82720052D01*
G36*
X117300026Y-81450052D02*
G01*
X116280026Y-81450052D01*
X116280026Y-80430052D01*
X117300026Y-80430052D01*
X117300026Y-81450052D01*
G37*
X117300026Y-81450052D02*
X116280026Y-81450052D01*
X116280026Y-80430052D01*
X117300026Y-80430052D01*
X117300026Y-81450052D01*
G36*
X143970026Y-83990052D02*
G01*
X142950026Y-83990052D01*
X142950026Y-82970052D01*
X143970026Y-82970052D01*
X143970026Y-83990052D01*
G37*
X143970026Y-83990052D02*
X142950026Y-83990052D01*
X142950026Y-82970052D01*
X143970026Y-82970052D01*
X143970026Y-83990052D01*
G36*
X119840026Y-81450052D02*
G01*
X118820026Y-81450052D01*
X118820026Y-80430052D01*
X119840026Y-80430052D01*
X119840026Y-81450052D01*
G37*
X119840026Y-81450052D02*
X118820026Y-81450052D01*
X118820026Y-80430052D01*
X119840026Y-80430052D01*
X119840026Y-81450052D01*
G36*
X136350026Y-78910052D02*
G01*
X135330026Y-78910052D01*
X135330026Y-77890052D01*
X136350026Y-77890052D01*
X136350026Y-78910052D01*
G37*
X136350026Y-78910052D02*
X135330026Y-78910052D01*
X135330026Y-77890052D01*
X136350026Y-77890052D01*
X136350026Y-78910052D01*
G36*
X102060026Y-76370052D02*
G01*
X101040026Y-76370052D01*
X101040026Y-75350052D01*
X102060026Y-75350052D01*
X102060026Y-76370052D01*
G37*
X102060026Y-76370052D02*
X101040026Y-76370052D01*
X101040026Y-75350052D01*
X102060026Y-75350052D01*
X102060026Y-76370052D01*
G36*
X110950026Y-76370052D02*
G01*
X109930026Y-76370052D01*
X109930026Y-75350052D01*
X110950026Y-75350052D01*
X110950026Y-76370052D01*
G37*
X110950026Y-76370052D02*
X109930026Y-76370052D01*
X109930026Y-75350052D01*
X110950026Y-75350052D01*
X110950026Y-76370052D01*
G36*
X136350026Y-85260052D02*
G01*
X135330026Y-85260052D01*
X135330026Y-84240052D01*
X136350026Y-84240052D01*
X136350026Y-85260052D01*
G37*
X136350026Y-85260052D02*
X135330026Y-85260052D01*
X135330026Y-84240052D01*
X136350026Y-84240052D01*
X136350026Y-85260052D01*
G36*
X130000026Y-78910052D02*
G01*
X128980026Y-78910052D01*
X128980026Y-77890052D01*
X130000026Y-77890052D01*
X130000026Y-78910052D01*
G37*
X130000026Y-78910052D02*
X128980026Y-78910052D01*
X128980026Y-77890052D01*
X130000026Y-77890052D01*
X130000026Y-78910052D01*
G36*
X126190026Y-83990052D02*
G01*
X125170026Y-83990052D01*
X125170026Y-82970052D01*
X126190026Y-82970052D01*
X126190026Y-83990052D01*
G37*
X126190026Y-83990052D02*
X125170026Y-83990052D01*
X125170026Y-82970052D01*
X126190026Y-82970052D01*
X126190026Y-83990052D01*
G36*
X118570026Y-80180052D02*
G01*
X117550026Y-80180052D01*
X117550026Y-79160052D01*
X118570026Y-79160052D01*
X118570026Y-80180052D01*
G37*
X118570026Y-80180052D02*
X117550026Y-80180052D01*
X117550026Y-79160052D01*
X118570026Y-79160052D01*
X118570026Y-80180052D01*
G36*
X114760026Y-80180052D02*
G01*
X113740026Y-80180052D01*
X113740026Y-79160052D01*
X114760026Y-79160052D01*
X114760026Y-80180052D01*
G37*
X114760026Y-80180052D02*
X113740026Y-80180052D01*
X113740026Y-79160052D01*
X114760026Y-79160052D01*
X114760026Y-80180052D01*
G36*
X105870026Y-76370052D02*
G01*
X104850026Y-76370052D01*
X104850026Y-75350052D01*
X105870026Y-75350052D01*
X105870026Y-76370052D01*
G37*
X105870026Y-76370052D02*
X104850026Y-76370052D01*
X104850026Y-75350052D01*
X105870026Y-75350052D01*
X105870026Y-76370052D01*
G36*
X145240026Y-78910052D02*
G01*
X144220026Y-78910052D01*
X144220026Y-77890052D01*
X145240026Y-77890052D01*
X145240026Y-78910052D01*
G37*
X145240026Y-78910052D02*
X144220026Y-78910052D01*
X144220026Y-77890052D01*
X145240026Y-77890052D01*
X145240026Y-78910052D01*
G36*
X145240026Y-76370052D02*
G01*
X144220026Y-76370052D01*
X144220026Y-75350052D01*
X145240026Y-75350052D01*
X145240026Y-76370052D01*
G37*
X145240026Y-76370052D02*
X144220026Y-76370052D01*
X144220026Y-75350052D01*
X145240026Y-75350052D01*
X145240026Y-76370052D01*
G36*
X141430026Y-81450052D02*
G01*
X140410026Y-81450052D01*
X140410026Y-80430052D01*
X141430026Y-80430052D01*
X141430026Y-81450052D01*
G37*
X141430026Y-81450052D02*
X140410026Y-81450052D01*
X140410026Y-80430052D01*
X141430026Y-80430052D01*
X141430026Y-81450052D01*
G36*
X108410026Y-76370052D02*
G01*
X107390026Y-76370052D01*
X107390026Y-75350052D01*
X108410026Y-75350052D01*
X108410026Y-76370052D01*
G37*
X108410026Y-76370052D02*
X107390026Y-76370052D01*
X107390026Y-75350052D01*
X108410026Y-75350052D01*
X108410026Y-76370052D01*
G36*
X131270026Y-76370052D02*
G01*
X130250026Y-76370052D01*
X130250026Y-75350052D01*
X131270026Y-75350052D01*
X131270026Y-76370052D01*
G37*
X131270026Y-76370052D02*
X130250026Y-76370052D01*
X130250026Y-75350052D01*
X131270026Y-75350052D01*
X131270026Y-76370052D01*
G36*
X114760026Y-81450052D02*
G01*
X113740026Y-81450052D01*
X113740026Y-80430052D01*
X114760026Y-80430052D01*
X114760026Y-81450052D01*
G37*
X114760026Y-81450052D02*
X113740026Y-81450052D01*
X113740026Y-80430052D01*
X114760026Y-80430052D01*
X114760026Y-81450052D01*
G36*
X136350026Y-80180052D02*
G01*
X135330026Y-80180052D01*
X135330026Y-79160052D01*
X136350026Y-79160052D01*
X136350026Y-80180052D01*
G37*
X136350026Y-80180052D02*
X135330026Y-80180052D01*
X135330026Y-79160052D01*
X136350026Y-79160052D01*
X136350026Y-80180052D01*
G36*
X114760026Y-77640052D02*
G01*
X113740026Y-77640052D01*
X113740026Y-76620052D01*
X114760026Y-76620052D01*
X114760026Y-77640052D01*
G37*
X114760026Y-77640052D02*
X113740026Y-77640052D01*
X113740026Y-76620052D01*
X114760026Y-76620052D01*
X114760026Y-77640052D01*
G36*
X112220026Y-76370052D02*
G01*
X111200026Y-76370052D01*
X111200026Y-75350052D01*
X112220026Y-75350052D01*
X112220026Y-76370052D01*
G37*
X112220026Y-76370052D02*
X111200026Y-76370052D01*
X111200026Y-75350052D01*
X112220026Y-75350052D01*
X112220026Y-76370052D01*
G36*
X123650026Y-80180052D02*
G01*
X122630026Y-80180052D01*
X122630026Y-79160052D01*
X123650026Y-79160052D01*
X123650026Y-80180052D01*
G37*
X123650026Y-80180052D02*
X122630026Y-80180052D01*
X122630026Y-79160052D01*
X123650026Y-79160052D01*
X123650026Y-80180052D01*
G36*
X128730026Y-76370052D02*
G01*
X127710026Y-76370052D01*
X127710026Y-75350052D01*
X128730026Y-75350052D01*
X128730026Y-76370052D01*
G37*
X128730026Y-76370052D02*
X127710026Y-76370052D01*
X127710026Y-75350052D01*
X128730026Y-75350052D01*
X128730026Y-76370052D01*
G36*
X112220026Y-77640052D02*
G01*
X111200026Y-77640052D01*
X111200026Y-76620052D01*
X112220026Y-76620052D01*
X112220026Y-77640052D01*
G37*
X112220026Y-77640052D02*
X111200026Y-77640052D01*
X111200026Y-76620052D01*
X112220026Y-76620052D01*
X112220026Y-77640052D01*
G36*
X98250026Y-77640052D02*
G01*
X97230026Y-77640052D01*
X97230026Y-76620052D01*
X98250026Y-76620052D01*
X98250026Y-77640052D01*
G37*
X98250026Y-77640052D02*
X97230026Y-77640052D01*
X97230026Y-76620052D01*
X98250026Y-76620052D01*
X98250026Y-77640052D01*
G36*
X103330026Y-76370052D02*
G01*
X102310026Y-76370052D01*
X102310026Y-75350052D01*
X103330026Y-75350052D01*
X103330026Y-76370052D01*
G37*
X103330026Y-76370052D02*
X102310026Y-76370052D01*
X102310026Y-75350052D01*
X103330026Y-75350052D01*
X103330026Y-76370052D01*
G36*
X109680026Y-82720052D02*
G01*
X108660026Y-82720052D01*
X108660026Y-81700052D01*
X109680026Y-81700052D01*
X109680026Y-82720052D01*
G37*
X109680026Y-82720052D02*
X108660026Y-82720052D01*
X108660026Y-81700052D01*
X109680026Y-81700052D01*
X109680026Y-82720052D01*
G36*
X128730026Y-83990052D02*
G01*
X127710026Y-83990052D01*
X127710026Y-82970052D01*
X128730026Y-82970052D01*
X128730026Y-83990052D01*
G37*
X128730026Y-83990052D02*
X127710026Y-83990052D01*
X127710026Y-82970052D01*
X128730026Y-82970052D01*
X128730026Y-83990052D01*
G36*
X132540026Y-83990052D02*
G01*
X131520026Y-83990052D01*
X131520026Y-82970052D01*
X132540026Y-82970052D01*
X132540026Y-83990052D01*
G37*
X132540026Y-83990052D02*
X131520026Y-83990052D01*
X131520026Y-82970052D01*
X132540026Y-82970052D01*
X132540026Y-83990052D01*
G36*
X116030026Y-83990052D02*
G01*
X115010026Y-83990052D01*
X115010026Y-82970052D01*
X116030026Y-82970052D01*
X116030026Y-83990052D01*
G37*
X116030026Y-83990052D02*
X115010026Y-83990052D01*
X115010026Y-82970052D01*
X116030026Y-82970052D01*
X116030026Y-83990052D01*
G36*
X108410026Y-85260052D02*
G01*
X107390026Y-85260052D01*
X107390026Y-84240052D01*
X108410026Y-84240052D01*
X108410026Y-85260052D01*
G37*
X108410026Y-85260052D02*
X107390026Y-85260052D01*
X107390026Y-84240052D01*
X108410026Y-84240052D01*
X108410026Y-85260052D01*
G36*
X113490026Y-83990052D02*
G01*
X112470026Y-83990052D01*
X112470026Y-82970052D01*
X113490026Y-82970052D01*
X113490026Y-83990052D01*
G37*
X113490026Y-83990052D02*
X112470026Y-83990052D01*
X112470026Y-82970052D01*
X113490026Y-82970052D01*
X113490026Y-83990052D01*
G36*
X109680026Y-80180052D02*
G01*
X108660026Y-80180052D01*
X108660026Y-79160052D01*
X109680026Y-79160052D01*
X109680026Y-80180052D01*
G37*
X109680026Y-80180052D02*
X108660026Y-80180052D01*
X108660026Y-79160052D01*
X109680026Y-79160052D01*
X109680026Y-80180052D01*
G36*
X138890026Y-77640052D02*
G01*
X137870026Y-77640052D01*
X137870026Y-76620052D01*
X138890026Y-76620052D01*
X138890026Y-77640052D01*
G37*
X138890026Y-77640052D02*
X137870026Y-77640052D01*
X137870026Y-76620052D01*
X138890026Y-76620052D01*
X138890026Y-77640052D01*
G36*
X132540026Y-82720052D02*
G01*
X131520026Y-82720052D01*
X131520026Y-81700052D01*
X132540026Y-81700052D01*
X132540026Y-82720052D01*
G37*
X132540026Y-82720052D02*
X131520026Y-82720052D01*
X131520026Y-81700052D01*
X132540026Y-81700052D01*
X132540026Y-82720052D01*
G36*
X113490026Y-85260052D02*
G01*
X112470026Y-85260052D01*
X112470026Y-84240052D01*
X113490026Y-84240052D01*
X113490026Y-85260052D01*
G37*
X113490026Y-85260052D02*
X112470026Y-85260052D01*
X112470026Y-84240052D01*
X113490026Y-84240052D01*
X113490026Y-85260052D01*
G36*
X140160026Y-83990052D02*
G01*
X139140026Y-83990052D01*
X139140026Y-82970052D01*
X140160026Y-82970052D01*
X140160026Y-83990052D01*
G37*
X140160026Y-83990052D02*
X139140026Y-83990052D01*
X139140026Y-82970052D01*
X140160026Y-82970052D01*
X140160026Y-83990052D01*
G36*
X107140026Y-83990052D02*
G01*
X106120026Y-83990052D01*
X106120026Y-82970052D01*
X107140026Y-82970052D01*
X107140026Y-83990052D01*
G37*
X107140026Y-83990052D02*
X106120026Y-83990052D01*
X106120026Y-82970052D01*
X107140026Y-82970052D01*
X107140026Y-83990052D01*
G36*
X140160026Y-81450052D02*
G01*
X139140026Y-81450052D01*
X139140026Y-80430052D01*
X140160026Y-80430052D01*
X140160026Y-81450052D01*
G37*
X140160026Y-81450052D02*
X139140026Y-81450052D01*
X139140026Y-80430052D01*
X140160026Y-80430052D01*
X140160026Y-81450052D01*
G36*
X117300026Y-76370052D02*
G01*
X116280026Y-76370052D01*
X116280026Y-75350052D01*
X117300026Y-75350052D01*
X117300026Y-76370052D01*
G37*
X117300026Y-76370052D02*
X116280026Y-76370052D01*
X116280026Y-75350052D01*
X117300026Y-75350052D01*
X117300026Y-76370052D01*
G36*
X109680026Y-77640052D02*
G01*
X108660026Y-77640052D01*
X108660026Y-76620052D01*
X109680026Y-76620052D01*
X109680026Y-77640052D01*
G37*
X109680026Y-77640052D02*
X108660026Y-77640052D01*
X108660026Y-76620052D01*
X109680026Y-76620052D01*
X109680026Y-77640052D01*
G36*
X127460026Y-80180052D02*
G01*
X126440026Y-80180052D01*
X126440026Y-79160052D01*
X127460026Y-79160052D01*
X127460026Y-80180052D01*
G37*
X127460026Y-80180052D02*
X126440026Y-80180052D01*
X126440026Y-79160052D01*
X127460026Y-79160052D01*
X127460026Y-80180052D01*
G36*
X109680026Y-76370052D02*
G01*
X108660026Y-76370052D01*
X108660026Y-75350052D01*
X109680026Y-75350052D01*
X109680026Y-76370052D01*
G37*
X109680026Y-76370052D02*
X108660026Y-76370052D01*
X108660026Y-75350052D01*
X109680026Y-75350052D01*
X109680026Y-76370052D01*
G36*
X105870026Y-81450052D02*
G01*
X104850026Y-81450052D01*
X104850026Y-80430052D01*
X105870026Y-80430052D01*
X105870026Y-81450052D01*
G37*
X105870026Y-81450052D02*
X104850026Y-81450052D01*
X104850026Y-80430052D01*
X105870026Y-80430052D01*
X105870026Y-81450052D01*
G36*
X119840026Y-78910052D02*
G01*
X118820026Y-78910052D01*
X118820026Y-77890052D01*
X119840026Y-77890052D01*
X119840026Y-78910052D01*
G37*
X119840026Y-78910052D02*
X118820026Y-78910052D01*
X118820026Y-77890052D01*
X119840026Y-77890052D01*
X119840026Y-78910052D01*
G36*
X130000026Y-82720052D02*
G01*
X128980026Y-82720052D01*
X128980026Y-81700052D01*
X130000026Y-81700052D01*
X130000026Y-82720052D01*
G37*
X130000026Y-82720052D02*
X128980026Y-82720052D01*
X128980026Y-81700052D01*
X130000026Y-81700052D01*
X130000026Y-82720052D01*
G36*
X140160026Y-85260052D02*
G01*
X139140026Y-85260052D01*
X139140026Y-84240052D01*
X140160026Y-84240052D01*
X140160026Y-85260052D01*
G37*
X140160026Y-85260052D02*
X139140026Y-85260052D01*
X139140026Y-84240052D01*
X140160026Y-84240052D01*
X140160026Y-85260052D01*
G36*
X107140026Y-76370052D02*
G01*
X106120026Y-76370052D01*
X106120026Y-75350052D01*
X107140026Y-75350052D01*
X107140026Y-76370052D01*
G37*
X107140026Y-76370052D02*
X106120026Y-76370052D01*
X106120026Y-75350052D01*
X107140026Y-75350052D01*
X107140026Y-76370052D01*
G36*
X116030026Y-77640052D02*
G01*
X115010026Y-77640052D01*
X115010026Y-76620052D01*
X116030026Y-76620052D01*
X116030026Y-77640052D01*
G37*
X116030026Y-77640052D02*
X115010026Y-77640052D01*
X115010026Y-76620052D01*
X116030026Y-76620052D01*
X116030026Y-77640052D01*
G36*
X105870026Y-78910052D02*
G01*
X104850026Y-78910052D01*
X104850026Y-77890052D01*
X105870026Y-77890052D01*
X105870026Y-78910052D01*
G37*
X105870026Y-78910052D02*
X104850026Y-78910052D01*
X104850026Y-77890052D01*
X105870026Y-77890052D01*
X105870026Y-78910052D01*
G36*
X147780026Y-83990052D02*
G01*
X146760026Y-83990052D01*
X146760026Y-82970052D01*
X147780026Y-82970052D01*
X147780026Y-83990052D01*
G37*
X147780026Y-83990052D02*
X146760026Y-83990052D01*
X146760026Y-82970052D01*
X147780026Y-82970052D01*
X147780026Y-83990052D01*
G36*
X140160026Y-76370052D02*
G01*
X139140026Y-76370052D01*
X139140026Y-75350052D01*
X140160026Y-75350052D01*
X140160026Y-76370052D01*
G37*
X140160026Y-76370052D02*
X139140026Y-76370052D01*
X139140026Y-75350052D01*
X140160026Y-75350052D01*
X140160026Y-76370052D01*
G36*
X98250026Y-80180052D02*
G01*
X97230026Y-80180052D01*
X97230026Y-79160052D01*
X98250026Y-79160052D01*
X98250026Y-80180052D01*
G37*
X98250026Y-80180052D02*
X97230026Y-80180052D01*
X97230026Y-79160052D01*
X98250026Y-79160052D01*
X98250026Y-80180052D01*
G36*
X122380026Y-78910052D02*
G01*
X121360026Y-78910052D01*
X121360026Y-77890052D01*
X122380026Y-77890052D01*
X122380026Y-78910052D01*
G37*
X122380026Y-78910052D02*
X121360026Y-78910052D01*
X121360026Y-77890052D01*
X122380026Y-77890052D01*
X122380026Y-78910052D01*
G36*
X99520026Y-76370052D02*
G01*
X98500026Y-76370052D01*
X98500026Y-75350052D01*
X99520026Y-75350052D01*
X99520026Y-76370052D01*
G37*
X99520026Y-76370052D02*
X98500026Y-76370052D01*
X98500026Y-75350052D01*
X99520026Y-75350052D01*
X99520026Y-76370052D01*
G36*
X112220026Y-81450052D02*
G01*
X111200026Y-81450052D01*
X111200026Y-80430052D01*
X112220026Y-80430052D01*
X112220026Y-81450052D01*
G37*
X112220026Y-81450052D02*
X111200026Y-81450052D01*
X111200026Y-80430052D01*
X112220026Y-80430052D01*
X112220026Y-81450052D01*
G36*
X99520026Y-81450052D02*
G01*
X98500026Y-81450052D01*
X98500026Y-80430052D01*
X99520026Y-80430052D01*
X99520026Y-81450052D01*
G37*
X99520026Y-81450052D02*
X98500026Y-81450052D01*
X98500026Y-80430052D01*
X99520026Y-80430052D01*
X99520026Y-81450052D01*
G36*
X113490026Y-81450052D02*
G01*
X112470026Y-81450052D01*
X112470026Y-80430052D01*
X113490026Y-80430052D01*
X113490026Y-81450052D01*
G37*
X113490026Y-81450052D02*
X112470026Y-81450052D01*
X112470026Y-80430052D01*
X113490026Y-80430052D01*
X113490026Y-81450052D01*
G36*
X123650026Y-85260052D02*
G01*
X122630026Y-85260052D01*
X122630026Y-84240052D01*
X123650026Y-84240052D01*
X123650026Y-85260052D01*
G37*
X123650026Y-85260052D02*
X122630026Y-85260052D01*
X122630026Y-84240052D01*
X123650026Y-84240052D01*
X123650026Y-85260052D01*
G36*
X98250026Y-83990052D02*
G01*
X97230026Y-83990052D01*
X97230026Y-82970052D01*
X98250026Y-82970052D01*
X98250026Y-83990052D01*
G37*
X98250026Y-83990052D02*
X97230026Y-83990052D01*
X97230026Y-82970052D01*
X98250026Y-82970052D01*
X98250026Y-83990052D01*
G36*
X131270026Y-81450052D02*
G01*
X130250026Y-81450052D01*
X130250026Y-80430052D01*
X131270026Y-80430052D01*
X131270026Y-81450052D01*
G37*
X131270026Y-81450052D02*
X130250026Y-81450052D01*
X130250026Y-80430052D01*
X131270026Y-80430052D01*
X131270026Y-81450052D01*
G36*
X98250026Y-76370052D02*
G01*
X97230026Y-76370052D01*
X97230026Y-75350052D01*
X98250026Y-75350052D01*
X98250026Y-76370052D01*
G37*
X98250026Y-76370052D02*
X97230026Y-76370052D01*
X97230026Y-75350052D01*
X98250026Y-75350052D01*
X98250026Y-76370052D01*
G36*
X133810026Y-78910052D02*
G01*
X132790026Y-78910052D01*
X132790026Y-77890052D01*
X133810026Y-77890052D01*
X133810026Y-78910052D01*
G37*
X133810026Y-78910052D02*
X132790026Y-78910052D01*
X132790026Y-77890052D01*
X133810026Y-77890052D01*
X133810026Y-78910052D01*
G36*
X127460026Y-77640052D02*
G01*
X126440026Y-77640052D01*
X126440026Y-76620052D01*
X127460026Y-76620052D01*
X127460026Y-77640052D01*
G37*
X127460026Y-77640052D02*
X126440026Y-77640052D01*
X126440026Y-76620052D01*
X127460026Y-76620052D01*
X127460026Y-77640052D01*
G36*
X146510026Y-76370052D02*
G01*
X145490026Y-76370052D01*
X145490026Y-75350052D01*
X146510026Y-75350052D01*
X146510026Y-76370052D01*
G37*
X146510026Y-76370052D02*
X145490026Y-76370052D01*
X145490026Y-75350052D01*
X146510026Y-75350052D01*
X146510026Y-76370052D01*
G36*
X128730026Y-78910052D02*
G01*
X127710026Y-78910052D01*
X127710026Y-77890052D01*
X128730026Y-77890052D01*
X128730026Y-78910052D01*
G37*
X128730026Y-78910052D02*
X127710026Y-78910052D01*
X127710026Y-77890052D01*
X128730026Y-77890052D01*
X128730026Y-78910052D01*
G36*
X131270026Y-78910052D02*
G01*
X130250026Y-78910052D01*
X130250026Y-77890052D01*
X131270026Y-77890052D01*
X131270026Y-78910052D01*
G37*
X131270026Y-78910052D02*
X130250026Y-78910052D01*
X130250026Y-77890052D01*
X131270026Y-77890052D01*
X131270026Y-78910052D01*
G36*
X145240026Y-82720052D02*
G01*
X144220026Y-82720052D01*
X144220026Y-81700052D01*
X145240026Y-81700052D01*
X145240026Y-82720052D01*
G37*
X145240026Y-82720052D02*
X144220026Y-82720052D01*
X144220026Y-81700052D01*
X145240026Y-81700052D01*
X145240026Y-82720052D01*
G36*
X116030026Y-85260052D02*
G01*
X115010026Y-85260052D01*
X115010026Y-84240052D01*
X116030026Y-84240052D01*
X116030026Y-85260052D01*
G37*
X116030026Y-85260052D02*
X115010026Y-85260052D01*
X115010026Y-84240052D01*
X116030026Y-84240052D01*
X116030026Y-85260052D01*
G36*
X113490026Y-76370052D02*
G01*
X112470026Y-76370052D01*
X112470026Y-75350052D01*
X113490026Y-75350052D01*
X113490026Y-76370052D01*
G37*
X113490026Y-76370052D02*
X112470026Y-76370052D01*
X112470026Y-75350052D01*
X113490026Y-75350052D01*
X113490026Y-76370052D01*
G36*
X132540026Y-85260052D02*
G01*
X131520026Y-85260052D01*
X131520026Y-84240052D01*
X132540026Y-84240052D01*
X132540026Y-85260052D01*
G37*
X132540026Y-85260052D02*
X131520026Y-85260052D01*
X131520026Y-84240052D01*
X132540026Y-84240052D01*
X132540026Y-85260052D01*
G36*
X132540026Y-80180052D02*
G01*
X131520026Y-80180052D01*
X131520026Y-79160052D01*
X132540026Y-79160052D01*
X132540026Y-80180052D01*
G37*
X132540026Y-80180052D02*
X131520026Y-80180052D01*
X131520026Y-79160052D01*
X132540026Y-79160052D01*
X132540026Y-80180052D01*
G36*
X146510026Y-77640052D02*
G01*
X145490026Y-77640052D01*
X145490026Y-76620052D01*
X146510026Y-76620052D01*
X146510026Y-77640052D01*
G37*
X146510026Y-77640052D02*
X145490026Y-77640052D01*
X145490026Y-76620052D01*
X146510026Y-76620052D01*
X146510026Y-77640052D01*
G36*
X128730026Y-85260052D02*
G01*
X127710026Y-85260052D01*
X127710026Y-84240052D01*
X128730026Y-84240052D01*
X128730026Y-85260052D01*
G37*
X128730026Y-85260052D02*
X127710026Y-85260052D01*
X127710026Y-84240052D01*
X128730026Y-84240052D01*
X128730026Y-85260052D01*
G36*
X123650026Y-76370052D02*
G01*
X122630026Y-76370052D01*
X122630026Y-75350052D01*
X123650026Y-75350052D01*
X123650026Y-76370052D01*
G37*
X123650026Y-76370052D02*
X122630026Y-76370052D01*
X122630026Y-75350052D01*
X123650026Y-75350052D01*
X123650026Y-76370052D01*
G36*
X119840026Y-76370052D02*
G01*
X118820026Y-76370052D01*
X118820026Y-75350052D01*
X119840026Y-75350052D01*
X119840026Y-76370052D01*
G37*
X119840026Y-76370052D02*
X118820026Y-76370052D01*
X118820026Y-75350052D01*
X119840026Y-75350052D01*
X119840026Y-76370052D01*
G36*
X143970026Y-78910052D02*
G01*
X142950026Y-78910052D01*
X142950026Y-77890052D01*
X143970026Y-77890052D01*
X143970026Y-78910052D01*
G37*
X143970026Y-78910052D02*
X142950026Y-78910052D01*
X142950026Y-77890052D01*
X143970026Y-77890052D01*
X143970026Y-78910052D01*
G36*
X122380026Y-76370052D02*
G01*
X121360026Y-76370052D01*
X121360026Y-75350052D01*
X122380026Y-75350052D01*
X122380026Y-76370052D01*
G37*
X122380026Y-76370052D02*
X121360026Y-76370052D01*
X121360026Y-75350052D01*
X122380026Y-75350052D01*
X122380026Y-76370052D01*
G36*
X99520026Y-83990052D02*
G01*
X98500026Y-83990052D01*
X98500026Y-82970052D01*
X99520026Y-82970052D01*
X99520026Y-83990052D01*
G37*
X99520026Y-83990052D02*
X98500026Y-83990052D01*
X98500026Y-82970052D01*
X99520026Y-82970052D01*
X99520026Y-83990052D01*
G36*
X143970026Y-85260052D02*
G01*
X142950026Y-85260052D01*
X142950026Y-84240052D01*
X143970026Y-84240052D01*
X143970026Y-85260052D01*
G37*
X143970026Y-85260052D02*
X142950026Y-85260052D01*
X142950026Y-84240052D01*
X143970026Y-84240052D01*
X143970026Y-85260052D01*
G36*
X102060026Y-83990052D02*
G01*
X101040026Y-83990052D01*
X101040026Y-82970052D01*
X102060026Y-82970052D01*
X102060026Y-83990052D01*
G37*
X102060026Y-83990052D02*
X101040026Y-83990052D01*
X101040026Y-82970052D01*
X102060026Y-82970052D01*
X102060026Y-83990052D01*
G36*
X124920026Y-81450052D02*
G01*
X123900026Y-81450052D01*
X123900026Y-80430052D01*
X124920026Y-80430052D01*
X124920026Y-81450052D01*
G37*
X124920026Y-81450052D02*
X123900026Y-81450052D01*
X123900026Y-80430052D01*
X124920026Y-80430052D01*
X124920026Y-81450052D01*
G36*
X121110026Y-82720052D02*
G01*
X120090026Y-82720052D01*
X120090026Y-81700052D01*
X121110026Y-81700052D01*
X121110026Y-82720052D01*
G37*
X121110026Y-82720052D02*
X120090026Y-82720052D01*
X120090026Y-81700052D01*
X121110026Y-81700052D01*
X121110026Y-82720052D01*
G36*
X103330026Y-82720052D02*
G01*
X102310026Y-82720052D01*
X102310026Y-81700052D01*
X103330026Y-81700052D01*
X103330026Y-82720052D01*
G37*
X103330026Y-82720052D02*
X102310026Y-82720052D01*
X102310026Y-81700052D01*
X103330026Y-81700052D01*
X103330026Y-82720052D01*
G36*
X124920026Y-83990052D02*
G01*
X123900026Y-83990052D01*
X123900026Y-82970052D01*
X124920026Y-82970052D01*
X124920026Y-83990052D01*
G37*
X124920026Y-83990052D02*
X123900026Y-83990052D01*
X123900026Y-82970052D01*
X124920026Y-82970052D01*
X124920026Y-83990052D01*
G36*
X142700026Y-82720052D02*
G01*
X141680026Y-82720052D01*
X141680026Y-81700052D01*
X142700026Y-81700052D01*
X142700026Y-82720052D01*
G37*
X142700026Y-82720052D02*
X141680026Y-82720052D01*
X141680026Y-81700052D01*
X142700026Y-81700052D01*
X142700026Y-82720052D01*
G36*
X147780026Y-80180052D02*
G01*
X146760026Y-80180052D01*
X146760026Y-79160052D01*
X147780026Y-79160052D01*
X147780026Y-80180052D01*
G37*
X147780026Y-80180052D02*
X146760026Y-80180052D01*
X146760026Y-79160052D01*
X147780026Y-79160052D01*
X147780026Y-80180052D01*
G36*
X112220026Y-85260052D02*
G01*
X111200026Y-85260052D01*
X111200026Y-84240052D01*
X112220026Y-84240052D01*
X112220026Y-85260052D01*
G37*
X112220026Y-85260052D02*
X111200026Y-85260052D01*
X111200026Y-84240052D01*
X112220026Y-84240052D01*
X112220026Y-85260052D01*
G36*
X103330026Y-85260052D02*
G01*
X102310026Y-85260052D01*
X102310026Y-84240052D01*
X103330026Y-84240052D01*
X103330026Y-85260052D01*
G37*
X103330026Y-85260052D02*
X102310026Y-85260052D01*
X102310026Y-84240052D01*
X103330026Y-84240052D01*
X103330026Y-85260052D01*
%TO.C,J9*%
G36*
X203729678Y-82720052D02*
G01*
X202709678Y-82720052D01*
X202709678Y-81700052D01*
X203729678Y-81700052D01*
X203729678Y-82720052D01*
G37*
X203729678Y-82720052D02*
X202709678Y-82720052D01*
X202709678Y-81700052D01*
X203729678Y-81700052D01*
X203729678Y-82720052D01*
G36*
X216429678Y-80180052D02*
G01*
X215409678Y-80180052D01*
X215409678Y-79160052D01*
X216429678Y-79160052D01*
X216429678Y-80180052D01*
G37*
X216429678Y-80180052D02*
X215409678Y-80180052D01*
X215409678Y-79160052D01*
X216429678Y-79160052D01*
X216429678Y-80180052D01*
G36*
X218969678Y-81450052D02*
G01*
X217949678Y-81450052D01*
X217949678Y-80430052D01*
X218969678Y-80430052D01*
X218969678Y-81450052D01*
G37*
X218969678Y-81450052D02*
X217949678Y-81450052D01*
X217949678Y-80430052D01*
X218969678Y-80430052D01*
X218969678Y-81450052D01*
G36*
X208809678Y-82720052D02*
G01*
X207789678Y-82720052D01*
X207789678Y-81700052D01*
X208809678Y-81700052D01*
X208809678Y-82720052D01*
G37*
X208809678Y-82720052D02*
X207789678Y-82720052D01*
X207789678Y-81700052D01*
X208809678Y-81700052D01*
X208809678Y-82720052D01*
G36*
X206269678Y-81450052D02*
G01*
X205249678Y-81450052D01*
X205249678Y-80430052D01*
X206269678Y-80430052D01*
X206269678Y-81450052D01*
G37*
X206269678Y-81450052D02*
X205249678Y-81450052D01*
X205249678Y-80430052D01*
X206269678Y-80430052D01*
X206269678Y-81450052D01*
G36*
X192299678Y-82720052D02*
G01*
X191279678Y-82720052D01*
X191279678Y-81700052D01*
X192299678Y-81700052D01*
X192299678Y-82720052D01*
G37*
X192299678Y-82720052D02*
X191279678Y-82720052D01*
X191279678Y-81700052D01*
X192299678Y-81700052D01*
X192299678Y-82720052D01*
G36*
X201189678Y-76370052D02*
G01*
X200169678Y-76370052D01*
X200169678Y-75350052D01*
X201189678Y-75350052D01*
X201189678Y-76370052D01*
G37*
X201189678Y-76370052D02*
X200169678Y-76370052D01*
X200169678Y-75350052D01*
X201189678Y-75350052D01*
X201189678Y-76370052D01*
G36*
X185949678Y-78910052D02*
G01*
X184929678Y-78910052D01*
X184929678Y-77890052D01*
X185949678Y-77890052D01*
X185949678Y-78910052D01*
G37*
X185949678Y-78910052D02*
X184929678Y-78910052D01*
X184929678Y-77890052D01*
X185949678Y-77890052D01*
X185949678Y-78910052D01*
G36*
X221509678Y-83990052D02*
G01*
X220489678Y-83990052D01*
X220489678Y-82970052D01*
X221509678Y-82970052D01*
X221509678Y-83990052D01*
G37*
X221509678Y-83990052D02*
X220489678Y-83990052D01*
X220489678Y-82970052D01*
X221509678Y-82970052D01*
X221509678Y-83990052D01*
G36*
X198649678Y-85260052D02*
G01*
X197629678Y-85260052D01*
X197629678Y-84240052D01*
X198649678Y-84240052D01*
X198649678Y-85260052D01*
G37*
X198649678Y-85260052D02*
X197629678Y-85260052D01*
X197629678Y-84240052D01*
X198649678Y-84240052D01*
X198649678Y-85260052D01*
G36*
X189759678Y-81450052D02*
G01*
X188739678Y-81450052D01*
X188739678Y-80430052D01*
X189759678Y-80430052D01*
X189759678Y-81450052D01*
G37*
X189759678Y-81450052D02*
X188739678Y-81450052D01*
X188739678Y-80430052D01*
X189759678Y-80430052D01*
X189759678Y-81450052D01*
G36*
X213889678Y-81450052D02*
G01*
X212869678Y-81450052D01*
X212869678Y-80430052D01*
X213889678Y-80430052D01*
X213889678Y-81450052D01*
G37*
X213889678Y-81450052D02*
X212869678Y-81450052D01*
X212869678Y-80430052D01*
X213889678Y-80430052D01*
X213889678Y-81450052D01*
G36*
X202459678Y-82720052D02*
G01*
X201439678Y-82720052D01*
X201439678Y-81700052D01*
X202459678Y-81700052D01*
X202459678Y-82720052D01*
G37*
X202459678Y-82720052D02*
X201439678Y-82720052D01*
X201439678Y-81700052D01*
X202459678Y-81700052D01*
X202459678Y-82720052D01*
G36*
X217699678Y-77640052D02*
G01*
X216679678Y-77640052D01*
X216679678Y-76620052D01*
X217699678Y-76620052D01*
X217699678Y-77640052D01*
G37*
X217699678Y-77640052D02*
X216679678Y-77640052D01*
X216679678Y-76620052D01*
X217699678Y-76620052D01*
X217699678Y-77640052D01*
G36*
X178329678Y-81450052D02*
G01*
X177309678Y-81450052D01*
X177309678Y-80430052D01*
X178329678Y-80430052D01*
X178329678Y-81450052D01*
G37*
X178329678Y-81450052D02*
X177309678Y-81450052D01*
X177309678Y-80430052D01*
X178329678Y-80430052D01*
X178329678Y-81450052D01*
G36*
X184679678Y-80180052D02*
G01*
X183659678Y-80180052D01*
X183659678Y-79160052D01*
X184679678Y-79160052D01*
X184679678Y-80180052D01*
G37*
X184679678Y-80180052D02*
X183659678Y-80180052D01*
X183659678Y-79160052D01*
X184679678Y-79160052D01*
X184679678Y-80180052D01*
G36*
X204999678Y-85260052D02*
G01*
X203979678Y-85260052D01*
X203979678Y-84240052D01*
X204999678Y-84240052D01*
X204999678Y-85260052D01*
G37*
X204999678Y-85260052D02*
X203979678Y-85260052D01*
X203979678Y-84240052D01*
X204999678Y-84240052D01*
X204999678Y-85260052D01*
G36*
X203729678Y-85260052D02*
G01*
X202709678Y-85260052D01*
X202709678Y-84240052D01*
X203729678Y-84240052D01*
X203729678Y-85260052D01*
G37*
X203729678Y-85260052D02*
X202709678Y-85260052D01*
X202709678Y-84240052D01*
X203729678Y-84240052D01*
X203729678Y-85260052D01*
G36*
X196109678Y-85260052D02*
G01*
X195089678Y-85260052D01*
X195089678Y-84240052D01*
X196109678Y-84240052D01*
X196109678Y-85260052D01*
G37*
X196109678Y-85260052D02*
X195089678Y-85260052D01*
X195089678Y-84240052D01*
X196109678Y-84240052D01*
X196109678Y-85260052D01*
G36*
X191029678Y-77640052D02*
G01*
X190009678Y-77640052D01*
X190009678Y-76620052D01*
X191029678Y-76620052D01*
X191029678Y-77640052D01*
G37*
X191029678Y-77640052D02*
X190009678Y-77640052D01*
X190009678Y-76620052D01*
X191029678Y-76620052D01*
X191029678Y-77640052D01*
G36*
X180869678Y-78910052D02*
G01*
X179849678Y-78910052D01*
X179849678Y-77890052D01*
X180869678Y-77890052D01*
X180869678Y-78910052D01*
G37*
X180869678Y-78910052D02*
X179849678Y-78910052D01*
X179849678Y-77890052D01*
X180869678Y-77890052D01*
X180869678Y-78910052D01*
G36*
X192299678Y-81450052D02*
G01*
X191279678Y-81450052D01*
X191279678Y-80430052D01*
X192299678Y-80430052D01*
X192299678Y-81450052D01*
G37*
X192299678Y-81450052D02*
X191279678Y-81450052D01*
X191279678Y-80430052D01*
X192299678Y-80430052D01*
X192299678Y-81450052D01*
G36*
X182139678Y-82720052D02*
G01*
X181119678Y-82720052D01*
X181119678Y-81700052D01*
X182139678Y-81700052D01*
X182139678Y-82720052D01*
G37*
X182139678Y-82720052D02*
X181119678Y-82720052D01*
X181119678Y-81700052D01*
X182139678Y-81700052D01*
X182139678Y-82720052D01*
G36*
X213889678Y-78910052D02*
G01*
X212869678Y-78910052D01*
X212869678Y-77890052D01*
X213889678Y-77890052D01*
X213889678Y-78910052D01*
G37*
X213889678Y-78910052D02*
X212869678Y-78910052D01*
X212869678Y-77890052D01*
X213889678Y-77890052D01*
X213889678Y-78910052D01*
G36*
X211349678Y-85260052D02*
G01*
X210329678Y-85260052D01*
X210329678Y-84240052D01*
X211349678Y-84240052D01*
X211349678Y-85260052D01*
G37*
X211349678Y-85260052D02*
X210329678Y-85260052D01*
X210329678Y-84240052D01*
X211349678Y-84240052D01*
X211349678Y-85260052D01*
G36*
X197379678Y-78910052D02*
G01*
X196359678Y-78910052D01*
X196359678Y-77890052D01*
X197379678Y-77890052D01*
X197379678Y-78910052D01*
G37*
X197379678Y-78910052D02*
X196359678Y-78910052D01*
X196359678Y-77890052D01*
X197379678Y-77890052D01*
X197379678Y-78910052D01*
G36*
X207539678Y-77640052D02*
G01*
X206519678Y-77640052D01*
X206519678Y-76620052D01*
X207539678Y-76620052D01*
X207539678Y-77640052D01*
G37*
X207539678Y-77640052D02*
X206519678Y-77640052D01*
X206519678Y-76620052D01*
X207539678Y-76620052D01*
X207539678Y-77640052D01*
G36*
X199919678Y-77640052D02*
G01*
X198899678Y-77640052D01*
X198899678Y-76620052D01*
X199919678Y-76620052D01*
X199919678Y-77640052D01*
G37*
X199919678Y-77640052D02*
X198899678Y-77640052D01*
X198899678Y-76620052D01*
X199919678Y-76620052D01*
X199919678Y-77640052D01*
G36*
X183409678Y-80180052D02*
G01*
X182389678Y-80180052D01*
X182389678Y-79160052D01*
X183409678Y-79160052D01*
X183409678Y-80180052D01*
G37*
X183409678Y-80180052D02*
X182389678Y-80180052D01*
X182389678Y-79160052D01*
X183409678Y-79160052D01*
X183409678Y-80180052D01*
G36*
X221509678Y-77640052D02*
G01*
X220489678Y-77640052D01*
X220489678Y-76620052D01*
X221509678Y-76620052D01*
X221509678Y-77640052D01*
G37*
X221509678Y-77640052D02*
X220489678Y-77640052D01*
X220489678Y-76620052D01*
X221509678Y-76620052D01*
X221509678Y-77640052D01*
G36*
X211349678Y-78910052D02*
G01*
X210329678Y-78910052D01*
X210329678Y-77890052D01*
X211349678Y-77890052D01*
X211349678Y-78910052D01*
G37*
X211349678Y-78910052D02*
X210329678Y-78910052D01*
X210329678Y-77890052D01*
X211349678Y-77890052D01*
X211349678Y-78910052D01*
G36*
X193569678Y-85260052D02*
G01*
X192549678Y-85260052D01*
X192549678Y-84240052D01*
X193569678Y-84240052D01*
X193569678Y-85260052D01*
G37*
X193569678Y-85260052D02*
X192549678Y-85260052D01*
X192549678Y-84240052D01*
X193569678Y-84240052D01*
X193569678Y-85260052D01*
G36*
X202459678Y-85260052D02*
G01*
X201439678Y-85260052D01*
X201439678Y-84240052D01*
X202459678Y-84240052D01*
X202459678Y-85260052D01*
G37*
X202459678Y-85260052D02*
X201439678Y-85260052D01*
X201439678Y-84240052D01*
X202459678Y-84240052D01*
X202459678Y-85260052D01*
G36*
X217699678Y-80180052D02*
G01*
X216679678Y-80180052D01*
X216679678Y-79160052D01*
X217699678Y-79160052D01*
X217699678Y-80180052D01*
G37*
X217699678Y-80180052D02*
X216679678Y-80180052D01*
X216679678Y-79160052D01*
X217699678Y-79160052D01*
X217699678Y-80180052D01*
G36*
X218969678Y-80180052D02*
G01*
X217949678Y-80180052D01*
X217949678Y-79160052D01*
X218969678Y-79160052D01*
X218969678Y-80180052D01*
G37*
X218969678Y-80180052D02*
X217949678Y-80180052D01*
X217949678Y-79160052D01*
X218969678Y-79160052D01*
X218969678Y-80180052D01*
G36*
X194839678Y-82720052D02*
G01*
X193819678Y-82720052D01*
X193819678Y-81700052D01*
X194839678Y-81700052D01*
X194839678Y-82720052D01*
G37*
X194839678Y-82720052D02*
X193819678Y-82720052D01*
X193819678Y-81700052D01*
X194839678Y-81700052D01*
X194839678Y-82720052D01*
G36*
X201189678Y-80180052D02*
G01*
X200169678Y-80180052D01*
X200169678Y-79160052D01*
X201189678Y-79160052D01*
X201189678Y-80180052D01*
G37*
X201189678Y-80180052D02*
X200169678Y-80180052D01*
X200169678Y-79160052D01*
X201189678Y-79160052D01*
X201189678Y-80180052D01*
G36*
X220239678Y-83990052D02*
G01*
X219219678Y-83990052D01*
X219219678Y-82970052D01*
X220239678Y-82970052D01*
X220239678Y-83990052D01*
G37*
X220239678Y-83990052D02*
X219219678Y-83990052D01*
X219219678Y-82970052D01*
X220239678Y-82970052D01*
X220239678Y-83990052D01*
G36*
X217699678Y-78910052D02*
G01*
X216679678Y-78910052D01*
X216679678Y-77890052D01*
X217699678Y-77890052D01*
X217699678Y-78910052D01*
G37*
X217699678Y-78910052D02*
X216679678Y-78910052D01*
X216679678Y-77890052D01*
X217699678Y-77890052D01*
X217699678Y-78910052D01*
G36*
X184679678Y-81450052D02*
G01*
X183659678Y-81450052D01*
X183659678Y-80430052D01*
X184679678Y-80430052D01*
X184679678Y-81450052D01*
G37*
X184679678Y-81450052D02*
X183659678Y-81450052D01*
X183659678Y-80430052D01*
X184679678Y-80430052D01*
X184679678Y-81450052D01*
G36*
X173249678Y-77640052D02*
G01*
X172229678Y-77640052D01*
X172229678Y-76620052D01*
X173249678Y-76620052D01*
X173249678Y-77640052D01*
G37*
X173249678Y-77640052D02*
X172229678Y-77640052D01*
X172229678Y-76620052D01*
X173249678Y-76620052D01*
X173249678Y-77640052D01*
G36*
X188489678Y-82720052D02*
G01*
X187469678Y-82720052D01*
X187469678Y-81700052D01*
X188489678Y-81700052D01*
X188489678Y-82720052D01*
G37*
X188489678Y-82720052D02*
X187469678Y-82720052D01*
X187469678Y-81700052D01*
X188489678Y-81700052D01*
X188489678Y-82720052D01*
G36*
X207539678Y-85260052D02*
G01*
X206519678Y-85260052D01*
X206519678Y-84240052D01*
X207539678Y-84240052D01*
X207539678Y-85260052D01*
G37*
X207539678Y-85260052D02*
X206519678Y-85260052D01*
X206519678Y-84240052D01*
X207539678Y-84240052D01*
X207539678Y-85260052D01*
G36*
X196109678Y-83990052D02*
G01*
X195089678Y-83990052D01*
X195089678Y-82970052D01*
X196109678Y-82970052D01*
X196109678Y-83990052D01*
G37*
X196109678Y-83990052D02*
X195089678Y-83990052D01*
X195089678Y-82970052D01*
X196109678Y-82970052D01*
X196109678Y-83990052D01*
G36*
X210079678Y-82720052D02*
G01*
X209059678Y-82720052D01*
X209059678Y-81700052D01*
X210079678Y-81700052D01*
X210079678Y-82720052D01*
G37*
X210079678Y-82720052D02*
X209059678Y-82720052D01*
X209059678Y-81700052D01*
X210079678Y-81700052D01*
X210079678Y-82720052D01*
G36*
X185949678Y-81450052D02*
G01*
X184929678Y-81450052D01*
X184929678Y-80430052D01*
X185949678Y-80430052D01*
X185949678Y-81450052D01*
G37*
X185949678Y-81450052D02*
X184929678Y-81450052D01*
X184929678Y-80430052D01*
X185949678Y-80430052D01*
X185949678Y-81450052D01*
G36*
X173249678Y-85260052D02*
G01*
X172229678Y-85260052D01*
X172229678Y-84240052D01*
X173249678Y-84240052D01*
X173249678Y-85260052D01*
G37*
X173249678Y-85260052D02*
X172229678Y-85260052D01*
X172229678Y-84240052D01*
X173249678Y-84240052D01*
X173249678Y-85260052D01*
G36*
X192299678Y-83990052D02*
G01*
X191279678Y-83990052D01*
X191279678Y-82970052D01*
X192299678Y-82970052D01*
X192299678Y-83990052D01*
G37*
X192299678Y-83990052D02*
X191279678Y-83990052D01*
X191279678Y-82970052D01*
X192299678Y-82970052D01*
X192299678Y-83990052D01*
G36*
X207539678Y-81450052D02*
G01*
X206519678Y-81450052D01*
X206519678Y-80430052D01*
X207539678Y-80430052D01*
X207539678Y-81450052D01*
G37*
X207539678Y-81450052D02*
X206519678Y-81450052D01*
X206519678Y-80430052D01*
X207539678Y-80430052D01*
X207539678Y-81450052D01*
G36*
X204999678Y-78910052D02*
G01*
X203979678Y-78910052D01*
X203979678Y-77890052D01*
X204999678Y-77890052D01*
X204999678Y-78910052D01*
G37*
X204999678Y-78910052D02*
X203979678Y-78910052D01*
X203979678Y-77890052D01*
X204999678Y-77890052D01*
X204999678Y-78910052D01*
G36*
X196109678Y-77640052D02*
G01*
X195089678Y-77640052D01*
X195089678Y-76620052D01*
X196109678Y-76620052D01*
X196109678Y-77640052D01*
G37*
X196109678Y-77640052D02*
X195089678Y-77640052D01*
X195089678Y-76620052D01*
X196109678Y-76620052D01*
X196109678Y-77640052D01*
G36*
X175789678Y-77640052D02*
G01*
X174769678Y-77640052D01*
X174769678Y-76620052D01*
X175789678Y-76620052D01*
X175789678Y-77640052D01*
G37*
X175789678Y-77640052D02*
X174769678Y-77640052D01*
X174769678Y-76620052D01*
X175789678Y-76620052D01*
X175789678Y-77640052D01*
G36*
X216429678Y-76370052D02*
G01*
X215409678Y-76370052D01*
X215409678Y-75350052D01*
X216429678Y-75350052D01*
X216429678Y-76370052D01*
G37*
X216429678Y-76370052D02*
X215409678Y-76370052D01*
X215409678Y-75350052D01*
X216429678Y-75350052D01*
X216429678Y-76370052D01*
G36*
X218969678Y-77640052D02*
G01*
X217949678Y-77640052D01*
X217949678Y-76620052D01*
X218969678Y-76620052D01*
X218969678Y-77640052D01*
G37*
X218969678Y-77640052D02*
X217949678Y-77640052D01*
X217949678Y-76620052D01*
X218969678Y-76620052D01*
X218969678Y-77640052D01*
G36*
X201189678Y-77640052D02*
G01*
X200169678Y-77640052D01*
X200169678Y-76620052D01*
X201189678Y-76620052D01*
X201189678Y-77640052D01*
G37*
X201189678Y-77640052D02*
X200169678Y-77640052D01*
X200169678Y-76620052D01*
X201189678Y-76620052D01*
X201189678Y-77640052D01*
G36*
X191029678Y-78910052D02*
G01*
X190009678Y-78910052D01*
X190009678Y-77890052D01*
X191029678Y-77890052D01*
X191029678Y-78910052D01*
G37*
X191029678Y-78910052D02*
X190009678Y-78910052D01*
X190009678Y-77890052D01*
X191029678Y-77890052D01*
X191029678Y-78910052D01*
G36*
X173249678Y-78910052D02*
G01*
X172229678Y-78910052D01*
X172229678Y-77890052D01*
X173249678Y-77890052D01*
X173249678Y-78910052D01*
G37*
X173249678Y-78910052D02*
X172229678Y-78910052D01*
X172229678Y-77890052D01*
X173249678Y-77890052D01*
X173249678Y-78910052D01*
G36*
X203729678Y-78910052D02*
G01*
X202709678Y-78910052D01*
X202709678Y-77890052D01*
X203729678Y-77890052D01*
X203729678Y-78910052D01*
G37*
X203729678Y-78910052D02*
X202709678Y-78910052D01*
X202709678Y-77890052D01*
X203729678Y-77890052D01*
X203729678Y-78910052D01*
G36*
X197379678Y-83990052D02*
G01*
X196359678Y-83990052D01*
X196359678Y-82970052D01*
X197379678Y-82970052D01*
X197379678Y-83990052D01*
G37*
X197379678Y-83990052D02*
X196359678Y-83990052D01*
X196359678Y-82970052D01*
X197379678Y-82970052D01*
X197379678Y-83990052D01*
G36*
X178329678Y-78910052D02*
G01*
X177309678Y-78910052D01*
X177309678Y-77890052D01*
X178329678Y-77890052D01*
X178329678Y-78910052D01*
G37*
X178329678Y-78910052D02*
X177309678Y-78910052D01*
X177309678Y-77890052D01*
X178329678Y-77890052D01*
X178329678Y-78910052D01*
G36*
X221509678Y-76370052D02*
G01*
X220489678Y-76370052D01*
X220489678Y-75350052D01*
X221509678Y-75350052D01*
X221509678Y-76370052D01*
G37*
X221509678Y-76370052D02*
X220489678Y-76370052D01*
X220489678Y-75350052D01*
X221509678Y-75350052D01*
X221509678Y-76370052D01*
G36*
X208809678Y-78910052D02*
G01*
X207789678Y-78910052D01*
X207789678Y-77890052D01*
X208809678Y-77890052D01*
X208809678Y-78910052D01*
G37*
X208809678Y-78910052D02*
X207789678Y-78910052D01*
X207789678Y-77890052D01*
X208809678Y-77890052D01*
X208809678Y-78910052D01*
G36*
X216429678Y-82720052D02*
G01*
X215409678Y-82720052D01*
X215409678Y-81700052D01*
X216429678Y-81700052D01*
X216429678Y-82720052D01*
G37*
X216429678Y-82720052D02*
X215409678Y-82720052D01*
X215409678Y-81700052D01*
X216429678Y-81700052D01*
X216429678Y-82720052D01*
G36*
X213889678Y-83990052D02*
G01*
X212869678Y-83990052D01*
X212869678Y-82970052D01*
X213889678Y-82970052D01*
X213889678Y-83990052D01*
G37*
X213889678Y-83990052D02*
X212869678Y-83990052D01*
X212869678Y-82970052D01*
X213889678Y-82970052D01*
X213889678Y-83990052D01*
G36*
X198649678Y-78910052D02*
G01*
X197629678Y-78910052D01*
X197629678Y-77890052D01*
X198649678Y-77890052D01*
X198649678Y-78910052D01*
G37*
X198649678Y-78910052D02*
X197629678Y-78910052D01*
X197629678Y-77890052D01*
X198649678Y-77890052D01*
X198649678Y-78910052D01*
G36*
X179599678Y-85260052D02*
G01*
X178579678Y-85260052D01*
X178579678Y-84240052D01*
X179599678Y-84240052D01*
X179599678Y-85260052D01*
G37*
X179599678Y-85260052D02*
X178579678Y-85260052D01*
X178579678Y-84240052D01*
X179599678Y-84240052D01*
X179599678Y-85260052D01*
G36*
X218969678Y-76370052D02*
G01*
X217949678Y-76370052D01*
X217949678Y-75350052D01*
X218969678Y-75350052D01*
X218969678Y-76370052D01*
G37*
X218969678Y-76370052D02*
X217949678Y-76370052D01*
X217949678Y-75350052D01*
X218969678Y-75350052D01*
X218969678Y-76370052D01*
G36*
X206269678Y-78910052D02*
G01*
X205249678Y-78910052D01*
X205249678Y-77890052D01*
X206269678Y-77890052D01*
X206269678Y-78910052D01*
G37*
X206269678Y-78910052D02*
X205249678Y-78910052D01*
X205249678Y-77890052D01*
X206269678Y-77890052D01*
X206269678Y-78910052D01*
G36*
X202459678Y-83990052D02*
G01*
X201439678Y-83990052D01*
X201439678Y-82970052D01*
X202459678Y-82970052D01*
X202459678Y-83990052D01*
G37*
X202459678Y-83990052D02*
X201439678Y-83990052D01*
X201439678Y-82970052D01*
X202459678Y-82970052D01*
X202459678Y-83990052D01*
G36*
X188489678Y-81450052D02*
G01*
X187469678Y-81450052D01*
X187469678Y-80430052D01*
X188489678Y-80430052D01*
X188489678Y-81450052D01*
G37*
X188489678Y-81450052D02*
X187469678Y-81450052D01*
X187469678Y-80430052D01*
X188489678Y-80430052D01*
X188489678Y-81450052D01*
G36*
X187219678Y-83990052D02*
G01*
X186199678Y-83990052D01*
X186199678Y-82970052D01*
X187219678Y-82970052D01*
X187219678Y-83990052D01*
G37*
X187219678Y-83990052D02*
X186199678Y-83990052D01*
X186199678Y-82970052D01*
X187219678Y-82970052D01*
X187219678Y-83990052D01*
G36*
X191029678Y-81450052D02*
G01*
X190009678Y-81450052D01*
X190009678Y-80430052D01*
X191029678Y-80430052D01*
X191029678Y-81450052D01*
G37*
X191029678Y-81450052D02*
X190009678Y-81450052D01*
X190009678Y-80430052D01*
X191029678Y-80430052D01*
X191029678Y-81450052D01*
G36*
X188489678Y-78910052D02*
G01*
X187469678Y-78910052D01*
X187469678Y-77890052D01*
X188489678Y-77890052D01*
X188489678Y-78910052D01*
G37*
X188489678Y-78910052D02*
X187469678Y-78910052D01*
X187469678Y-77890052D01*
X188489678Y-77890052D01*
X188489678Y-78910052D01*
G36*
X215159678Y-83990052D02*
G01*
X214139678Y-83990052D01*
X214139678Y-82970052D01*
X215159678Y-82970052D01*
X215159678Y-83990052D01*
G37*
X215159678Y-83990052D02*
X214139678Y-83990052D01*
X214139678Y-82970052D01*
X215159678Y-82970052D01*
X215159678Y-83990052D01*
G36*
X218969678Y-82720052D02*
G01*
X217949678Y-82720052D01*
X217949678Y-81700052D01*
X218969678Y-81700052D01*
X218969678Y-82720052D01*
G37*
X218969678Y-82720052D02*
X217949678Y-82720052D01*
X217949678Y-81700052D01*
X218969678Y-81700052D01*
X218969678Y-82720052D01*
G36*
X215159678Y-85260052D02*
G01*
X214139678Y-85260052D01*
X214139678Y-84240052D01*
X215159678Y-84240052D01*
X215159678Y-85260052D01*
G37*
X215159678Y-85260052D02*
X214139678Y-85260052D01*
X214139678Y-84240052D01*
X215159678Y-84240052D01*
X215159678Y-85260052D01*
G36*
X203729678Y-81450052D02*
G01*
X202709678Y-81450052D01*
X202709678Y-80430052D01*
X203729678Y-80430052D01*
X203729678Y-81450052D01*
G37*
X203729678Y-81450052D02*
X202709678Y-81450052D01*
X202709678Y-80430052D01*
X203729678Y-80430052D01*
X203729678Y-81450052D01*
G36*
X188489678Y-77640052D02*
G01*
X187469678Y-77640052D01*
X187469678Y-76620052D01*
X188489678Y-76620052D01*
X188489678Y-77640052D01*
G37*
X188489678Y-77640052D02*
X187469678Y-77640052D01*
X187469678Y-76620052D01*
X188489678Y-76620052D01*
X188489678Y-77640052D01*
G36*
X182139678Y-76370052D02*
G01*
X181119678Y-76370052D01*
X181119678Y-75350052D01*
X182139678Y-75350052D01*
X182139678Y-76370052D01*
G37*
X182139678Y-76370052D02*
X181119678Y-76370052D01*
X181119678Y-75350052D01*
X182139678Y-75350052D01*
X182139678Y-76370052D01*
G36*
X193569678Y-80180052D02*
G01*
X192549678Y-80180052D01*
X192549678Y-79160052D01*
X193569678Y-79160052D01*
X193569678Y-80180052D01*
G37*
X193569678Y-80180052D02*
X192549678Y-80180052D01*
X192549678Y-79160052D01*
X193569678Y-79160052D01*
X193569678Y-80180052D01*
G36*
X173249678Y-83990052D02*
G01*
X172229678Y-83990052D01*
X172229678Y-82970052D01*
X173249678Y-82970052D01*
X173249678Y-83990052D01*
G37*
X173249678Y-83990052D02*
X172229678Y-83990052D01*
X172229678Y-82970052D01*
X173249678Y-82970052D01*
X173249678Y-83990052D01*
G36*
X202459678Y-80180052D02*
G01*
X201439678Y-80180052D01*
X201439678Y-79160052D01*
X202459678Y-79160052D01*
X202459678Y-80180052D01*
G37*
X202459678Y-80180052D02*
X201439678Y-80180052D01*
X201439678Y-79160052D01*
X202459678Y-79160052D01*
X202459678Y-80180052D01*
G36*
X217699678Y-76370052D02*
G01*
X216679678Y-76370052D01*
X216679678Y-75350052D01*
X217699678Y-75350052D01*
X217699678Y-76370052D01*
G37*
X217699678Y-76370052D02*
X216679678Y-76370052D01*
X216679678Y-75350052D01*
X217699678Y-75350052D01*
X217699678Y-76370052D01*
G36*
X210079678Y-76370052D02*
G01*
X209059678Y-76370052D01*
X209059678Y-75350052D01*
X210079678Y-75350052D01*
X210079678Y-76370052D01*
G37*
X210079678Y-76370052D02*
X209059678Y-76370052D01*
X209059678Y-75350052D01*
X210079678Y-75350052D01*
X210079678Y-76370052D01*
G36*
X175789678Y-81450052D02*
G01*
X174769678Y-81450052D01*
X174769678Y-80430052D01*
X175789678Y-80430052D01*
X175789678Y-81450052D01*
G37*
X175789678Y-81450052D02*
X174769678Y-81450052D01*
X174769678Y-80430052D01*
X175789678Y-80430052D01*
X175789678Y-81450052D01*
G36*
X193569678Y-83990052D02*
G01*
X192549678Y-83990052D01*
X192549678Y-82970052D01*
X193569678Y-82970052D01*
X193569678Y-83990052D01*
G37*
X193569678Y-83990052D02*
X192549678Y-83990052D01*
X192549678Y-82970052D01*
X193569678Y-82970052D01*
X193569678Y-83990052D01*
G36*
X187219678Y-78910052D02*
G01*
X186199678Y-78910052D01*
X186199678Y-77890052D01*
X187219678Y-77890052D01*
X187219678Y-78910052D01*
G37*
X187219678Y-78910052D02*
X186199678Y-78910052D01*
X186199678Y-77890052D01*
X187219678Y-77890052D01*
X187219678Y-78910052D01*
G36*
X222779678Y-77640052D02*
G01*
X221759678Y-77640052D01*
X221759678Y-76620052D01*
X222779678Y-76620052D01*
X222779678Y-77640052D01*
G37*
X222779678Y-77640052D02*
X221759678Y-77640052D01*
X221759678Y-76620052D01*
X222779678Y-76620052D01*
X222779678Y-77640052D01*
G36*
X210079678Y-80180052D02*
G01*
X209059678Y-80180052D01*
X209059678Y-79160052D01*
X210079678Y-79160052D01*
X210079678Y-80180052D01*
G37*
X210079678Y-80180052D02*
X209059678Y-80180052D01*
X209059678Y-79160052D01*
X210079678Y-79160052D01*
X210079678Y-80180052D01*
G36*
X194839678Y-80180052D02*
G01*
X193819678Y-80180052D01*
X193819678Y-79160052D01*
X194839678Y-79160052D01*
X194839678Y-80180052D01*
G37*
X194839678Y-80180052D02*
X193819678Y-80180052D01*
X193819678Y-79160052D01*
X194839678Y-79160052D01*
X194839678Y-80180052D01*
G36*
X183409678Y-83990052D02*
G01*
X182389678Y-83990052D01*
X182389678Y-82970052D01*
X183409678Y-82970052D01*
X183409678Y-83990052D01*
G37*
X183409678Y-83990052D02*
X182389678Y-83990052D01*
X182389678Y-82970052D01*
X183409678Y-82970052D01*
X183409678Y-83990052D01*
G36*
X201189678Y-78910052D02*
G01*
X200169678Y-78910052D01*
X200169678Y-77890052D01*
X201189678Y-77890052D01*
X201189678Y-78910052D01*
G37*
X201189678Y-78910052D02*
X200169678Y-78910052D01*
X200169678Y-77890052D01*
X201189678Y-77890052D01*
X201189678Y-78910052D01*
G36*
X184679678Y-78910052D02*
G01*
X183659678Y-78910052D01*
X183659678Y-77890052D01*
X184679678Y-77890052D01*
X184679678Y-78910052D01*
G37*
X184679678Y-78910052D02*
X183659678Y-78910052D01*
X183659678Y-77890052D01*
X184679678Y-77890052D01*
X184679678Y-78910052D01*
G36*
X194839678Y-76370052D02*
G01*
X193819678Y-76370052D01*
X193819678Y-75350052D01*
X194839678Y-75350052D01*
X194839678Y-76370052D01*
G37*
X194839678Y-76370052D02*
X193819678Y-76370052D01*
X193819678Y-75350052D01*
X194839678Y-75350052D01*
X194839678Y-76370052D01*
G36*
X185949678Y-85260052D02*
G01*
X184929678Y-85260052D01*
X184929678Y-84240052D01*
X185949678Y-84240052D01*
X185949678Y-85260052D01*
G37*
X185949678Y-85260052D02*
X184929678Y-85260052D01*
X184929678Y-84240052D01*
X185949678Y-84240052D01*
X185949678Y-85260052D01*
G36*
X211349678Y-81450052D02*
G01*
X210329678Y-81450052D01*
X210329678Y-80430052D01*
X211349678Y-80430052D01*
X211349678Y-81450052D01*
G37*
X211349678Y-81450052D02*
X210329678Y-81450052D01*
X210329678Y-80430052D01*
X211349678Y-80430052D01*
X211349678Y-81450052D01*
G36*
X177059678Y-80180052D02*
G01*
X176039678Y-80180052D01*
X176039678Y-79160052D01*
X177059678Y-79160052D01*
X177059678Y-80180052D01*
G37*
X177059678Y-80180052D02*
X176039678Y-80180052D01*
X176039678Y-79160052D01*
X177059678Y-79160052D01*
X177059678Y-80180052D01*
G36*
X207539678Y-83990052D02*
G01*
X206519678Y-83990052D01*
X206519678Y-82970052D01*
X207539678Y-82970052D01*
X207539678Y-83990052D01*
G37*
X207539678Y-83990052D02*
X206519678Y-83990052D01*
X206519678Y-82970052D01*
X207539678Y-82970052D01*
X207539678Y-83990052D01*
G36*
X197379678Y-85260052D02*
G01*
X196359678Y-85260052D01*
X196359678Y-84240052D01*
X197379678Y-84240052D01*
X197379678Y-85260052D01*
G37*
X197379678Y-85260052D02*
X196359678Y-85260052D01*
X196359678Y-84240052D01*
X197379678Y-84240052D01*
X197379678Y-85260052D01*
G36*
X179599678Y-78910052D02*
G01*
X178579678Y-78910052D01*
X178579678Y-77890052D01*
X179599678Y-77890052D01*
X179599678Y-78910052D01*
G37*
X179599678Y-78910052D02*
X178579678Y-78910052D01*
X178579678Y-77890052D01*
X179599678Y-77890052D01*
X179599678Y-78910052D01*
G36*
X202459678Y-81450052D02*
G01*
X201439678Y-81450052D01*
X201439678Y-80430052D01*
X202459678Y-80430052D01*
X202459678Y-81450052D01*
G37*
X202459678Y-81450052D02*
X201439678Y-81450052D01*
X201439678Y-80430052D01*
X202459678Y-80430052D01*
X202459678Y-81450052D01*
G36*
X191029678Y-80180052D02*
G01*
X190009678Y-80180052D01*
X190009678Y-79160052D01*
X191029678Y-79160052D01*
X191029678Y-80180052D01*
G37*
X191029678Y-80180052D02*
X190009678Y-80180052D01*
X190009678Y-79160052D01*
X191029678Y-79160052D01*
X191029678Y-80180052D01*
G36*
X180869678Y-81450052D02*
G01*
X179849678Y-81450052D01*
X179849678Y-80430052D01*
X180869678Y-80430052D01*
X180869678Y-81450052D01*
G37*
X180869678Y-81450052D02*
X179849678Y-81450052D01*
X179849678Y-80430052D01*
X180869678Y-80430052D01*
X180869678Y-81450052D01*
G36*
X192299678Y-76370052D02*
G01*
X191279678Y-76370052D01*
X191279678Y-75350052D01*
X192299678Y-75350052D01*
X192299678Y-76370052D01*
G37*
X192299678Y-76370052D02*
X191279678Y-76370052D01*
X191279678Y-75350052D01*
X192299678Y-75350052D01*
X192299678Y-76370052D01*
G36*
X208809678Y-85260052D02*
G01*
X207789678Y-85260052D01*
X207789678Y-84240052D01*
X208809678Y-84240052D01*
X208809678Y-85260052D01*
G37*
X208809678Y-85260052D02*
X207789678Y-85260052D01*
X207789678Y-84240052D01*
X208809678Y-84240052D01*
X208809678Y-85260052D01*
G36*
X175789678Y-82720052D02*
G01*
X174769678Y-82720052D01*
X174769678Y-81700052D01*
X175789678Y-81700052D01*
X175789678Y-82720052D01*
G37*
X175789678Y-82720052D02*
X174769678Y-82720052D01*
X174769678Y-81700052D01*
X175789678Y-81700052D01*
X175789678Y-82720052D01*
G36*
X211349678Y-82720052D02*
G01*
X210329678Y-82720052D01*
X210329678Y-81700052D01*
X211349678Y-81700052D01*
X211349678Y-82720052D01*
G37*
X211349678Y-82720052D02*
X210329678Y-82720052D01*
X210329678Y-81700052D01*
X211349678Y-81700052D01*
X211349678Y-82720052D01*
G36*
X178329678Y-85260052D02*
G01*
X177309678Y-85260052D01*
X177309678Y-84240052D01*
X178329678Y-84240052D01*
X178329678Y-85260052D01*
G37*
X178329678Y-85260052D02*
X177309678Y-85260052D01*
X177309678Y-84240052D01*
X178329678Y-84240052D01*
X178329678Y-85260052D01*
G36*
X193569678Y-77640052D02*
G01*
X192549678Y-77640052D01*
X192549678Y-76620052D01*
X193569678Y-76620052D01*
X193569678Y-77640052D01*
G37*
X193569678Y-77640052D02*
X192549678Y-77640052D01*
X192549678Y-76620052D01*
X193569678Y-76620052D01*
X193569678Y-77640052D01*
G36*
X196109678Y-81450052D02*
G01*
X195089678Y-81450052D01*
X195089678Y-80430052D01*
X196109678Y-80430052D01*
X196109678Y-81450052D01*
G37*
X196109678Y-81450052D02*
X195089678Y-81450052D01*
X195089678Y-80430052D01*
X196109678Y-80430052D01*
X196109678Y-81450052D01*
G36*
X188489678Y-76370052D02*
G01*
X187469678Y-76370052D01*
X187469678Y-75350052D01*
X188489678Y-75350052D01*
X188489678Y-76370052D01*
G37*
X188489678Y-76370052D02*
X187469678Y-76370052D01*
X187469678Y-75350052D01*
X188489678Y-75350052D01*
X188489678Y-76370052D01*
G36*
X204999678Y-83990052D02*
G01*
X203979678Y-83990052D01*
X203979678Y-82970052D01*
X204999678Y-82970052D01*
X204999678Y-83990052D01*
G37*
X204999678Y-83990052D02*
X203979678Y-83990052D01*
X203979678Y-82970052D01*
X204999678Y-82970052D01*
X204999678Y-83990052D01*
G36*
X178329678Y-82720052D02*
G01*
X177309678Y-82720052D01*
X177309678Y-81700052D01*
X178329678Y-81700052D01*
X178329678Y-82720052D01*
G37*
X178329678Y-82720052D02*
X177309678Y-82720052D01*
X177309678Y-81700052D01*
X178329678Y-81700052D01*
X178329678Y-82720052D01*
G36*
X215159678Y-78910052D02*
G01*
X214139678Y-78910052D01*
X214139678Y-77890052D01*
X215159678Y-77890052D01*
X215159678Y-78910052D01*
G37*
X215159678Y-78910052D02*
X214139678Y-78910052D01*
X214139678Y-77890052D01*
X215159678Y-77890052D01*
X215159678Y-78910052D01*
G36*
X198649678Y-80180052D02*
G01*
X197629678Y-80180052D01*
X197629678Y-79160052D01*
X198649678Y-79160052D01*
X198649678Y-80180052D01*
G37*
X198649678Y-80180052D02*
X197629678Y-80180052D01*
X197629678Y-79160052D01*
X198649678Y-79160052D01*
X198649678Y-80180052D01*
G36*
X191029678Y-82720052D02*
G01*
X190009678Y-82720052D01*
X190009678Y-81700052D01*
X191029678Y-81700052D01*
X191029678Y-82720052D01*
G37*
X191029678Y-82720052D02*
X190009678Y-82720052D01*
X190009678Y-81700052D01*
X191029678Y-81700052D01*
X191029678Y-82720052D01*
G36*
X175789678Y-83990052D02*
G01*
X174769678Y-83990052D01*
X174769678Y-82970052D01*
X175789678Y-82970052D01*
X175789678Y-83990052D01*
G37*
X175789678Y-83990052D02*
X174769678Y-83990052D01*
X174769678Y-82970052D01*
X175789678Y-82970052D01*
X175789678Y-83990052D01*
G36*
X201189678Y-81450052D02*
G01*
X200169678Y-81450052D01*
X200169678Y-80430052D01*
X201189678Y-80430052D01*
X201189678Y-81450052D01*
G37*
X201189678Y-81450052D02*
X200169678Y-81450052D01*
X200169678Y-80430052D01*
X201189678Y-80430052D01*
X201189678Y-81450052D01*
G36*
X215159678Y-76370052D02*
G01*
X214139678Y-76370052D01*
X214139678Y-75350052D01*
X215159678Y-75350052D01*
X215159678Y-76370052D01*
G37*
X215159678Y-76370052D02*
X214139678Y-76370052D01*
X214139678Y-75350052D01*
X215159678Y-75350052D01*
X215159678Y-76370052D01*
G36*
X207539678Y-78910052D02*
G01*
X206519678Y-78910052D01*
X206519678Y-77890052D01*
X207539678Y-77890052D01*
X207539678Y-78910052D01*
G37*
X207539678Y-78910052D02*
X206519678Y-78910052D01*
X206519678Y-77890052D01*
X207539678Y-77890052D01*
X207539678Y-78910052D01*
G36*
X197379678Y-80180052D02*
G01*
X196359678Y-80180052D01*
X196359678Y-79160052D01*
X197379678Y-79160052D01*
X197379678Y-80180052D01*
G37*
X197379678Y-80180052D02*
X196359678Y-80180052D01*
X196359678Y-79160052D01*
X197379678Y-79160052D01*
X197379678Y-80180052D01*
G36*
X187219678Y-85260052D02*
G01*
X186199678Y-85260052D01*
X186199678Y-84240052D01*
X187219678Y-84240052D01*
X187219678Y-85260052D01*
G37*
X187219678Y-85260052D02*
X186199678Y-85260052D01*
X186199678Y-84240052D01*
X187219678Y-84240052D01*
X187219678Y-85260052D01*
G36*
X204999678Y-76370052D02*
G01*
X203979678Y-76370052D01*
X203979678Y-75350052D01*
X204999678Y-75350052D01*
X204999678Y-76370052D01*
G37*
X204999678Y-76370052D02*
X203979678Y-76370052D01*
X203979678Y-75350052D01*
X204999678Y-75350052D01*
X204999678Y-76370052D01*
G36*
X187219678Y-82720052D02*
G01*
X186199678Y-82720052D01*
X186199678Y-81700052D01*
X187219678Y-81700052D01*
X187219678Y-82720052D01*
G37*
X187219678Y-82720052D02*
X186199678Y-82720052D01*
X186199678Y-81700052D01*
X187219678Y-81700052D01*
X187219678Y-82720052D01*
G36*
X196109678Y-80180052D02*
G01*
X195089678Y-80180052D01*
X195089678Y-79160052D01*
X196109678Y-79160052D01*
X196109678Y-80180052D01*
G37*
X196109678Y-80180052D02*
X195089678Y-80180052D01*
X195089678Y-79160052D01*
X196109678Y-79160052D01*
X196109678Y-80180052D01*
G36*
X201189678Y-83990052D02*
G01*
X200169678Y-83990052D01*
X200169678Y-82970052D01*
X201189678Y-82970052D01*
X201189678Y-83990052D01*
G37*
X201189678Y-83990052D02*
X200169678Y-83990052D01*
X200169678Y-82970052D01*
X201189678Y-82970052D01*
X201189678Y-83990052D01*
G36*
X213889678Y-82720052D02*
G01*
X212869678Y-82720052D01*
X212869678Y-81700052D01*
X213889678Y-81700052D01*
X213889678Y-82720052D01*
G37*
X213889678Y-82720052D02*
X212869678Y-82720052D01*
X212869678Y-81700052D01*
X213889678Y-81700052D01*
X213889678Y-82720052D01*
G36*
X206269678Y-85260052D02*
G01*
X205249678Y-85260052D01*
X205249678Y-84240052D01*
X206269678Y-84240052D01*
X206269678Y-85260052D01*
G37*
X206269678Y-85260052D02*
X205249678Y-85260052D01*
X205249678Y-84240052D01*
X206269678Y-84240052D01*
X206269678Y-85260052D01*
G36*
X184679678Y-82720052D02*
G01*
X183659678Y-82720052D01*
X183659678Y-81700052D01*
X184679678Y-81700052D01*
X184679678Y-82720052D01*
G37*
X184679678Y-82720052D02*
X183659678Y-82720052D01*
X183659678Y-81700052D01*
X184679678Y-81700052D01*
X184679678Y-82720052D01*
G36*
X211349678Y-80180052D02*
G01*
X210329678Y-80180052D01*
X210329678Y-79160052D01*
X211349678Y-79160052D01*
X211349678Y-80180052D01*
G37*
X211349678Y-80180052D02*
X210329678Y-80180052D01*
X210329678Y-79160052D01*
X211349678Y-79160052D01*
X211349678Y-80180052D01*
G36*
X203729678Y-77640052D02*
G01*
X202709678Y-77640052D01*
X202709678Y-76620052D01*
X203729678Y-76620052D01*
X203729678Y-77640052D01*
G37*
X203729678Y-77640052D02*
X202709678Y-77640052D01*
X202709678Y-76620052D01*
X203729678Y-76620052D01*
X203729678Y-77640052D01*
G36*
X177059678Y-78910052D02*
G01*
X176039678Y-78910052D01*
X176039678Y-77890052D01*
X177059678Y-77890052D01*
X177059678Y-78910052D01*
G37*
X177059678Y-78910052D02*
X176039678Y-78910052D01*
X176039678Y-77890052D01*
X177059678Y-77890052D01*
X177059678Y-78910052D01*
G36*
X204999678Y-82720052D02*
G01*
X203979678Y-82720052D01*
X203979678Y-81700052D01*
X204999678Y-81700052D01*
X204999678Y-82720052D01*
G37*
X204999678Y-82720052D02*
X203979678Y-82720052D01*
X203979678Y-81700052D01*
X204999678Y-81700052D01*
X204999678Y-82720052D01*
G36*
X174519678Y-81450052D02*
G01*
X173499678Y-81450052D01*
X173499678Y-80430052D01*
X174519678Y-80430052D01*
X174519678Y-81450052D01*
G37*
X174519678Y-81450052D02*
X173499678Y-81450052D01*
X173499678Y-80430052D01*
X174519678Y-80430052D01*
X174519678Y-81450052D01*
G36*
X178329678Y-77640052D02*
G01*
X177309678Y-77640052D01*
X177309678Y-76620052D01*
X178329678Y-76620052D01*
X178329678Y-77640052D01*
G37*
X178329678Y-77640052D02*
X177309678Y-77640052D01*
X177309678Y-76620052D01*
X178329678Y-76620052D01*
X178329678Y-77640052D01*
G36*
X183409678Y-82720052D02*
G01*
X182389678Y-82720052D01*
X182389678Y-81700052D01*
X183409678Y-81700052D01*
X183409678Y-82720052D01*
G37*
X183409678Y-82720052D02*
X182389678Y-82720052D01*
X182389678Y-81700052D01*
X183409678Y-81700052D01*
X183409678Y-82720052D01*
G36*
X211349678Y-83990052D02*
G01*
X210329678Y-83990052D01*
X210329678Y-82970052D01*
X211349678Y-82970052D01*
X211349678Y-83990052D01*
G37*
X211349678Y-83990052D02*
X210329678Y-83990052D01*
X210329678Y-82970052D01*
X211349678Y-82970052D01*
X211349678Y-83990052D01*
G36*
X180869678Y-76370052D02*
G01*
X179849678Y-76370052D01*
X179849678Y-75350052D01*
X180869678Y-75350052D01*
X180869678Y-76370052D01*
G37*
X180869678Y-76370052D02*
X179849678Y-76370052D01*
X179849678Y-75350052D01*
X180869678Y-75350052D01*
X180869678Y-76370052D01*
G36*
X193569678Y-78910052D02*
G01*
X192549678Y-78910052D01*
X192549678Y-77890052D01*
X193569678Y-77890052D01*
X193569678Y-78910052D01*
G37*
X193569678Y-78910052D02*
X192549678Y-78910052D01*
X192549678Y-77890052D01*
X193569678Y-77890052D01*
X193569678Y-78910052D01*
G36*
X220239678Y-80180052D02*
G01*
X219219678Y-80180052D01*
X219219678Y-79160052D01*
X220239678Y-79160052D01*
X220239678Y-80180052D01*
G37*
X220239678Y-80180052D02*
X219219678Y-80180052D01*
X219219678Y-79160052D01*
X220239678Y-79160052D01*
X220239678Y-80180052D01*
G36*
X191029678Y-85260052D02*
G01*
X190009678Y-85260052D01*
X190009678Y-84240052D01*
X191029678Y-84240052D01*
X191029678Y-85260052D01*
G37*
X191029678Y-85260052D02*
X190009678Y-85260052D01*
X190009678Y-84240052D01*
X191029678Y-84240052D01*
X191029678Y-85260052D01*
G36*
X188489678Y-80180052D02*
G01*
X187469678Y-80180052D01*
X187469678Y-79160052D01*
X188489678Y-79160052D01*
X188489678Y-80180052D01*
G37*
X188489678Y-80180052D02*
X187469678Y-80180052D01*
X187469678Y-79160052D01*
X188489678Y-79160052D01*
X188489678Y-80180052D01*
G36*
X210079678Y-83990052D02*
G01*
X209059678Y-83990052D01*
X209059678Y-82970052D01*
X210079678Y-82970052D01*
X210079678Y-83990052D01*
G37*
X210079678Y-83990052D02*
X209059678Y-83990052D01*
X209059678Y-82970052D01*
X210079678Y-82970052D01*
X210079678Y-83990052D01*
G36*
X185949678Y-83990052D02*
G01*
X184929678Y-83990052D01*
X184929678Y-82970052D01*
X185949678Y-82970052D01*
X185949678Y-83990052D01*
G37*
X185949678Y-83990052D02*
X184929678Y-83990052D01*
X184929678Y-82970052D01*
X185949678Y-82970052D01*
X185949678Y-83990052D01*
G36*
X210079678Y-81450052D02*
G01*
X209059678Y-81450052D01*
X209059678Y-80430052D01*
X210079678Y-80430052D01*
X210079678Y-81450052D01*
G37*
X210079678Y-81450052D02*
X209059678Y-81450052D01*
X209059678Y-80430052D01*
X210079678Y-80430052D01*
X210079678Y-81450052D01*
G36*
X182139678Y-78910052D02*
G01*
X181119678Y-78910052D01*
X181119678Y-77890052D01*
X182139678Y-77890052D01*
X182139678Y-78910052D01*
G37*
X182139678Y-78910052D02*
X181119678Y-78910052D01*
X181119678Y-77890052D01*
X182139678Y-77890052D01*
X182139678Y-78910052D01*
G36*
X187219678Y-76370052D02*
G01*
X186199678Y-76370052D01*
X186199678Y-75350052D01*
X187219678Y-75350052D01*
X187219678Y-76370052D01*
G37*
X187219678Y-76370052D02*
X186199678Y-76370052D01*
X186199678Y-75350052D01*
X187219678Y-75350052D01*
X187219678Y-76370052D01*
G36*
X218969678Y-85260052D02*
G01*
X217949678Y-85260052D01*
X217949678Y-84240052D01*
X218969678Y-84240052D01*
X218969678Y-85260052D01*
G37*
X218969678Y-85260052D02*
X217949678Y-85260052D01*
X217949678Y-84240052D01*
X218969678Y-84240052D01*
X218969678Y-85260052D01*
G36*
X199919678Y-83990052D02*
G01*
X198899678Y-83990052D01*
X198899678Y-82970052D01*
X199919678Y-82970052D01*
X199919678Y-83990052D01*
G37*
X199919678Y-83990052D02*
X198899678Y-83990052D01*
X198899678Y-82970052D01*
X199919678Y-82970052D01*
X199919678Y-83990052D01*
G36*
X184679678Y-85260052D02*
G01*
X183659678Y-85260052D01*
X183659678Y-84240052D01*
X184679678Y-84240052D01*
X184679678Y-85260052D01*
G37*
X184679678Y-85260052D02*
X183659678Y-85260052D01*
X183659678Y-84240052D01*
X184679678Y-84240052D01*
X184679678Y-85260052D01*
G36*
X207539678Y-76370052D02*
G01*
X206519678Y-76370052D01*
X206519678Y-75350052D01*
X207539678Y-75350052D01*
X207539678Y-76370052D01*
G37*
X207539678Y-76370052D02*
X206519678Y-76370052D01*
X206519678Y-75350052D01*
X207539678Y-75350052D01*
X207539678Y-76370052D01*
G36*
X208809678Y-83990052D02*
G01*
X207789678Y-83990052D01*
X207789678Y-82970052D01*
X208809678Y-82970052D01*
X208809678Y-83990052D01*
G37*
X208809678Y-83990052D02*
X207789678Y-83990052D01*
X207789678Y-82970052D01*
X208809678Y-82970052D01*
X208809678Y-83990052D01*
G36*
X183409678Y-76370052D02*
G01*
X182389678Y-76370052D01*
X182389678Y-75350052D01*
X183409678Y-75350052D01*
X183409678Y-76370052D01*
G37*
X183409678Y-76370052D02*
X182389678Y-76370052D01*
X182389678Y-75350052D01*
X183409678Y-75350052D01*
X183409678Y-76370052D01*
G36*
X206269678Y-82720052D02*
G01*
X205249678Y-82720052D01*
X205249678Y-81700052D01*
X206269678Y-81700052D01*
X206269678Y-82720052D01*
G37*
X206269678Y-82720052D02*
X205249678Y-82720052D01*
X205249678Y-81700052D01*
X206269678Y-81700052D01*
X206269678Y-82720052D01*
G36*
X217699678Y-83990052D02*
G01*
X216679678Y-83990052D01*
X216679678Y-82970052D01*
X217699678Y-82970052D01*
X217699678Y-83990052D01*
G37*
X217699678Y-83990052D02*
X216679678Y-83990052D01*
X216679678Y-82970052D01*
X217699678Y-82970052D01*
X217699678Y-83990052D01*
G36*
X211349678Y-77640052D02*
G01*
X210329678Y-77640052D01*
X210329678Y-76620052D01*
X211349678Y-76620052D01*
X211349678Y-77640052D01*
G37*
X211349678Y-77640052D02*
X210329678Y-77640052D01*
X210329678Y-76620052D01*
X211349678Y-76620052D01*
X211349678Y-77640052D01*
G36*
X207539678Y-80180052D02*
G01*
X206519678Y-80180052D01*
X206519678Y-79160052D01*
X207539678Y-79160052D01*
X207539678Y-80180052D01*
G37*
X207539678Y-80180052D02*
X206519678Y-80180052D01*
X206519678Y-79160052D01*
X207539678Y-79160052D01*
X207539678Y-80180052D01*
G36*
X215159678Y-81450052D02*
G01*
X214139678Y-81450052D01*
X214139678Y-80430052D01*
X215159678Y-80430052D01*
X215159678Y-81450052D01*
G37*
X215159678Y-81450052D02*
X214139678Y-81450052D01*
X214139678Y-80430052D01*
X215159678Y-80430052D01*
X215159678Y-81450052D01*
G36*
X185949678Y-76370052D02*
G01*
X184929678Y-76370052D01*
X184929678Y-75350052D01*
X185949678Y-75350052D01*
X185949678Y-76370052D01*
G37*
X185949678Y-76370052D02*
X184929678Y-76370052D01*
X184929678Y-75350052D01*
X185949678Y-75350052D01*
X185949678Y-76370052D01*
G36*
X175789678Y-85260052D02*
G01*
X174769678Y-85260052D01*
X174769678Y-84240052D01*
X175789678Y-84240052D01*
X175789678Y-85260052D01*
G37*
X175789678Y-85260052D02*
X174769678Y-85260052D01*
X174769678Y-84240052D01*
X175789678Y-84240052D01*
X175789678Y-85260052D01*
G36*
X194839678Y-83990052D02*
G01*
X193819678Y-83990052D01*
X193819678Y-82970052D01*
X194839678Y-82970052D01*
X194839678Y-83990052D01*
G37*
X194839678Y-83990052D02*
X193819678Y-83990052D01*
X193819678Y-82970052D01*
X194839678Y-82970052D01*
X194839678Y-83990052D01*
G36*
X179599678Y-80180052D02*
G01*
X178579678Y-80180052D01*
X178579678Y-79160052D01*
X179599678Y-79160052D01*
X179599678Y-80180052D01*
G37*
X179599678Y-80180052D02*
X178579678Y-80180052D01*
X178579678Y-79160052D01*
X179599678Y-79160052D01*
X179599678Y-80180052D01*
G36*
X173249678Y-81450052D02*
G01*
X172229678Y-81450052D01*
X172229678Y-80430052D01*
X173249678Y-80430052D01*
X173249678Y-81450052D01*
G37*
X173249678Y-81450052D02*
X172229678Y-81450052D01*
X172229678Y-80430052D01*
X173249678Y-80430052D01*
X173249678Y-81450052D01*
G36*
X206269678Y-80180052D02*
G01*
X205249678Y-80180052D01*
X205249678Y-79160052D01*
X206269678Y-79160052D01*
X206269678Y-80180052D01*
G37*
X206269678Y-80180052D02*
X205249678Y-80180052D01*
X205249678Y-79160052D01*
X206269678Y-79160052D01*
X206269678Y-80180052D01*
G36*
X221509678Y-80180052D02*
G01*
X220489678Y-80180052D01*
X220489678Y-79160052D01*
X221509678Y-79160052D01*
X221509678Y-80180052D01*
G37*
X221509678Y-80180052D02*
X220489678Y-80180052D01*
X220489678Y-79160052D01*
X221509678Y-79160052D01*
X221509678Y-80180052D01*
G36*
X221509678Y-82720052D02*
G01*
X220489678Y-82720052D01*
X220489678Y-81700052D01*
X221509678Y-81700052D01*
X221509678Y-82720052D01*
G37*
X221509678Y-82720052D02*
X220489678Y-82720052D01*
X220489678Y-81700052D01*
X221509678Y-81700052D01*
X221509678Y-82720052D01*
G36*
X212619678Y-76370052D02*
G01*
X211599678Y-76370052D01*
X211599678Y-75350052D01*
X212619678Y-75350052D01*
X212619678Y-76370052D01*
G37*
X212619678Y-76370052D02*
X211599678Y-76370052D01*
X211599678Y-75350052D01*
X212619678Y-75350052D01*
X212619678Y-76370052D01*
G36*
X213889678Y-77640052D02*
G01*
X212869678Y-77640052D01*
X212869678Y-76620052D01*
X213889678Y-76620052D01*
X213889678Y-77640052D01*
G37*
X213889678Y-77640052D02*
X212869678Y-77640052D01*
X212869678Y-76620052D01*
X213889678Y-76620052D01*
X213889678Y-77640052D01*
G36*
X196109678Y-76370052D02*
G01*
X195089678Y-76370052D01*
X195089678Y-75350052D01*
X196109678Y-75350052D01*
X196109678Y-76370052D01*
G37*
X196109678Y-76370052D02*
X195089678Y-76370052D01*
X195089678Y-75350052D01*
X196109678Y-75350052D01*
X196109678Y-76370052D01*
G36*
X217699678Y-82720052D02*
G01*
X216679678Y-82720052D01*
X216679678Y-81700052D01*
X217699678Y-81700052D01*
X217699678Y-82720052D01*
G37*
X217699678Y-82720052D02*
X216679678Y-82720052D01*
X216679678Y-81700052D01*
X217699678Y-81700052D01*
X217699678Y-82720052D01*
G36*
X199919678Y-81450052D02*
G01*
X198899678Y-81450052D01*
X198899678Y-80430052D01*
X199919678Y-80430052D01*
X199919678Y-81450052D01*
G37*
X199919678Y-81450052D02*
X198899678Y-81450052D01*
X198899678Y-80430052D01*
X199919678Y-80430052D01*
X199919678Y-81450052D01*
G36*
X192299678Y-80180052D02*
G01*
X191279678Y-80180052D01*
X191279678Y-79160052D01*
X192299678Y-79160052D01*
X192299678Y-80180052D01*
G37*
X192299678Y-80180052D02*
X191279678Y-80180052D01*
X191279678Y-79160052D01*
X192299678Y-79160052D01*
X192299678Y-80180052D01*
G36*
X182139678Y-80180052D02*
G01*
X181119678Y-80180052D01*
X181119678Y-79160052D01*
X182139678Y-79160052D01*
X182139678Y-80180052D01*
G37*
X182139678Y-80180052D02*
X181119678Y-80180052D01*
X181119678Y-79160052D01*
X182139678Y-79160052D01*
X182139678Y-80180052D01*
G36*
X201189678Y-85260052D02*
G01*
X200169678Y-85260052D01*
X200169678Y-84240052D01*
X201189678Y-84240052D01*
X201189678Y-85260052D01*
G37*
X201189678Y-85260052D02*
X200169678Y-85260052D01*
X200169678Y-84240052D01*
X201189678Y-84240052D01*
X201189678Y-85260052D01*
G36*
X206269678Y-83990052D02*
G01*
X205249678Y-83990052D01*
X205249678Y-82970052D01*
X206269678Y-82970052D01*
X206269678Y-83990052D01*
G37*
X206269678Y-83990052D02*
X205249678Y-83990052D01*
X205249678Y-82970052D01*
X206269678Y-82970052D01*
X206269678Y-83990052D01*
G36*
X194839678Y-78910052D02*
G01*
X193819678Y-78910052D01*
X193819678Y-77890052D01*
X194839678Y-77890052D01*
X194839678Y-78910052D01*
G37*
X194839678Y-78910052D02*
X193819678Y-78910052D01*
X193819678Y-77890052D01*
X194839678Y-77890052D01*
X194839678Y-78910052D01*
G36*
X220239678Y-81450052D02*
G01*
X219219678Y-81450052D01*
X219219678Y-80430052D01*
X220239678Y-80430052D01*
X220239678Y-81450052D01*
G37*
X220239678Y-81450052D02*
X219219678Y-81450052D01*
X219219678Y-80430052D01*
X220239678Y-80430052D01*
X220239678Y-81450052D01*
G36*
X218969678Y-78910052D02*
G01*
X217949678Y-78910052D01*
X217949678Y-77890052D01*
X218969678Y-77890052D01*
X218969678Y-78910052D01*
G37*
X218969678Y-78910052D02*
X217949678Y-78910052D01*
X217949678Y-77890052D01*
X218969678Y-77890052D01*
X218969678Y-78910052D01*
G36*
X173249678Y-76370052D02*
G01*
X172229678Y-76370052D01*
X172229678Y-75350052D01*
X173249678Y-75350052D01*
X173249678Y-76370052D01*
G37*
X173249678Y-76370052D02*
X172229678Y-76370052D01*
X172229678Y-75350052D01*
X173249678Y-75350052D01*
X173249678Y-76370052D01*
G36*
X212619678Y-83990052D02*
G01*
X211599678Y-83990052D01*
X211599678Y-82970052D01*
X212619678Y-82970052D01*
X212619678Y-83990052D01*
G37*
X212619678Y-83990052D02*
X211599678Y-83990052D01*
X211599678Y-82970052D01*
X212619678Y-82970052D01*
X212619678Y-83990052D01*
G36*
X192299678Y-85260052D02*
G01*
X191279678Y-85260052D01*
X191279678Y-84240052D01*
X192299678Y-84240052D01*
X192299678Y-85260052D01*
G37*
X192299678Y-85260052D02*
X191279678Y-85260052D01*
X191279678Y-84240052D01*
X192299678Y-84240052D01*
X192299678Y-85260052D01*
G36*
X193569678Y-81450052D02*
G01*
X192549678Y-81450052D01*
X192549678Y-80430052D01*
X193569678Y-80430052D01*
X193569678Y-81450052D01*
G37*
X193569678Y-81450052D02*
X192549678Y-81450052D01*
X192549678Y-80430052D01*
X193569678Y-80430052D01*
X193569678Y-81450052D01*
G36*
X188489678Y-83990052D02*
G01*
X187469678Y-83990052D01*
X187469678Y-82970052D01*
X188489678Y-82970052D01*
X188489678Y-83990052D01*
G37*
X188489678Y-83990052D02*
X187469678Y-83990052D01*
X187469678Y-82970052D01*
X188489678Y-82970052D01*
X188489678Y-83990052D01*
G36*
X197379678Y-77640052D02*
G01*
X196359678Y-77640052D01*
X196359678Y-76620052D01*
X197379678Y-76620052D01*
X197379678Y-77640052D01*
G37*
X197379678Y-77640052D02*
X196359678Y-77640052D01*
X196359678Y-76620052D01*
X197379678Y-76620052D01*
X197379678Y-77640052D01*
G36*
X174519678Y-76370052D02*
G01*
X173499678Y-76370052D01*
X173499678Y-75350052D01*
X174519678Y-75350052D01*
X174519678Y-76370052D01*
G37*
X174519678Y-76370052D02*
X173499678Y-76370052D01*
X173499678Y-75350052D01*
X174519678Y-75350052D01*
X174519678Y-76370052D01*
G36*
X222779678Y-82720052D02*
G01*
X221759678Y-82720052D01*
X221759678Y-81700052D01*
X222779678Y-81700052D01*
X222779678Y-82720052D01*
G37*
X222779678Y-82720052D02*
X221759678Y-82720052D01*
X221759678Y-81700052D01*
X222779678Y-81700052D01*
X222779678Y-82720052D01*
G36*
X222779678Y-81450052D02*
G01*
X221759678Y-81450052D01*
X221759678Y-80430052D01*
X222779678Y-80430052D01*
X222779678Y-81450052D01*
G37*
X222779678Y-81450052D02*
X221759678Y-81450052D01*
X221759678Y-80430052D01*
X222779678Y-80430052D01*
X222779678Y-81450052D01*
G36*
X208809678Y-81450052D02*
G01*
X207789678Y-81450052D01*
X207789678Y-80430052D01*
X208809678Y-80430052D01*
X208809678Y-81450052D01*
G37*
X208809678Y-81450052D02*
X207789678Y-81450052D01*
X207789678Y-80430052D01*
X208809678Y-80430052D01*
X208809678Y-81450052D01*
G36*
X177059678Y-81450052D02*
G01*
X176039678Y-81450052D01*
X176039678Y-80430052D01*
X177059678Y-80430052D01*
X177059678Y-81450052D01*
G37*
X177059678Y-81450052D02*
X176039678Y-81450052D01*
X176039678Y-80430052D01*
X177059678Y-80430052D01*
X177059678Y-81450052D01*
G36*
X194839678Y-85260052D02*
G01*
X193819678Y-85260052D01*
X193819678Y-84240052D01*
X194839678Y-84240052D01*
X194839678Y-85260052D01*
G37*
X194839678Y-85260052D02*
X193819678Y-85260052D01*
X193819678Y-84240052D01*
X194839678Y-84240052D01*
X194839678Y-85260052D01*
G36*
X177059678Y-85260052D02*
G01*
X176039678Y-85260052D01*
X176039678Y-84240052D01*
X177059678Y-84240052D01*
X177059678Y-85260052D01*
G37*
X177059678Y-85260052D02*
X176039678Y-85260052D01*
X176039678Y-84240052D01*
X177059678Y-84240052D01*
X177059678Y-85260052D01*
G36*
X193569678Y-82720052D02*
G01*
X192549678Y-82720052D01*
X192549678Y-81700052D01*
X193569678Y-81700052D01*
X193569678Y-82720052D01*
G37*
X193569678Y-82720052D02*
X192549678Y-82720052D01*
X192549678Y-81700052D01*
X193569678Y-81700052D01*
X193569678Y-82720052D01*
G36*
X191029678Y-83990052D02*
G01*
X190009678Y-83990052D01*
X190009678Y-82970052D01*
X191029678Y-82970052D01*
X191029678Y-83990052D01*
G37*
X191029678Y-83990052D02*
X190009678Y-83990052D01*
X190009678Y-82970052D01*
X191029678Y-82970052D01*
X191029678Y-83990052D01*
G36*
X197379678Y-76370052D02*
G01*
X196359678Y-76370052D01*
X196359678Y-75350052D01*
X197379678Y-75350052D01*
X197379678Y-76370052D01*
G37*
X197379678Y-76370052D02*
X196359678Y-76370052D01*
X196359678Y-75350052D01*
X197379678Y-75350052D01*
X197379678Y-76370052D01*
G36*
X174519678Y-78910052D02*
G01*
X173499678Y-78910052D01*
X173499678Y-77890052D01*
X174519678Y-77890052D01*
X174519678Y-78910052D01*
G37*
X174519678Y-78910052D02*
X173499678Y-78910052D01*
X173499678Y-77890052D01*
X174519678Y-77890052D01*
X174519678Y-78910052D01*
G36*
X198649678Y-76370052D02*
G01*
X197629678Y-76370052D01*
X197629678Y-75350052D01*
X198649678Y-75350052D01*
X198649678Y-76370052D01*
G37*
X198649678Y-76370052D02*
X197629678Y-76370052D01*
X197629678Y-75350052D01*
X198649678Y-75350052D01*
X198649678Y-76370052D01*
G36*
X210079678Y-78910052D02*
G01*
X209059678Y-78910052D01*
X209059678Y-77890052D01*
X210079678Y-77890052D01*
X210079678Y-78910052D01*
G37*
X210079678Y-78910052D02*
X209059678Y-78910052D01*
X209059678Y-77890052D01*
X210079678Y-77890052D01*
X210079678Y-78910052D01*
G36*
X208809678Y-80180052D02*
G01*
X207789678Y-80180052D01*
X207789678Y-79160052D01*
X208809678Y-79160052D01*
X208809678Y-80180052D01*
G37*
X208809678Y-80180052D02*
X207789678Y-80180052D01*
X207789678Y-79160052D01*
X208809678Y-79160052D01*
X208809678Y-80180052D01*
G36*
X212619678Y-85260052D02*
G01*
X211599678Y-85260052D01*
X211599678Y-84240052D01*
X212619678Y-84240052D01*
X212619678Y-85260052D01*
G37*
X212619678Y-85260052D02*
X211599678Y-85260052D01*
X211599678Y-84240052D01*
X212619678Y-84240052D01*
X212619678Y-85260052D01*
G36*
X187219678Y-80180052D02*
G01*
X186199678Y-80180052D01*
X186199678Y-79160052D01*
X187219678Y-79160052D01*
X187219678Y-80180052D01*
G37*
X187219678Y-80180052D02*
X186199678Y-80180052D01*
X186199678Y-79160052D01*
X187219678Y-79160052D01*
X187219678Y-80180052D01*
G36*
X184679678Y-76370052D02*
G01*
X183659678Y-76370052D01*
X183659678Y-75350052D01*
X184679678Y-75350052D01*
X184679678Y-76370052D01*
G37*
X184679678Y-76370052D02*
X183659678Y-76370052D01*
X183659678Y-75350052D01*
X184679678Y-75350052D01*
X184679678Y-76370052D01*
G36*
X218969678Y-83990052D02*
G01*
X217949678Y-83990052D01*
X217949678Y-82970052D01*
X218969678Y-82970052D01*
X218969678Y-83990052D01*
G37*
X218969678Y-83990052D02*
X217949678Y-83990052D01*
X217949678Y-82970052D01*
X218969678Y-82970052D01*
X218969678Y-83990052D01*
G36*
X222779678Y-76370052D02*
G01*
X221759678Y-76370052D01*
X221759678Y-75350052D01*
X222779678Y-75350052D01*
X222779678Y-76370052D01*
G37*
X222779678Y-76370052D02*
X221759678Y-76370052D01*
X221759678Y-75350052D01*
X222779678Y-75350052D01*
X222779678Y-76370052D01*
G36*
X222779678Y-78910052D02*
G01*
X221759678Y-78910052D01*
X221759678Y-77890052D01*
X222779678Y-77890052D01*
X222779678Y-78910052D01*
G37*
X222779678Y-78910052D02*
X221759678Y-78910052D01*
X221759678Y-77890052D01*
X222779678Y-77890052D01*
X222779678Y-78910052D01*
G36*
X182139678Y-85260052D02*
G01*
X181119678Y-85260052D01*
X181119678Y-84240052D01*
X182139678Y-84240052D01*
X182139678Y-85260052D01*
G37*
X182139678Y-85260052D02*
X181119678Y-85260052D01*
X181119678Y-84240052D01*
X182139678Y-84240052D01*
X182139678Y-85260052D01*
G36*
X177059678Y-77640052D02*
G01*
X176039678Y-77640052D01*
X176039678Y-76620052D01*
X177059678Y-76620052D01*
X177059678Y-77640052D01*
G37*
X177059678Y-77640052D02*
X176039678Y-77640052D01*
X176039678Y-76620052D01*
X177059678Y-76620052D01*
X177059678Y-77640052D01*
G36*
X179599678Y-82720052D02*
G01*
X178579678Y-82720052D01*
X178579678Y-81700052D01*
X179599678Y-81700052D01*
X179599678Y-82720052D01*
G37*
X179599678Y-82720052D02*
X178579678Y-82720052D01*
X178579678Y-81700052D01*
X179599678Y-81700052D01*
X179599678Y-82720052D01*
G36*
X192299678Y-77640052D02*
G01*
X191279678Y-77640052D01*
X191279678Y-76620052D01*
X192299678Y-76620052D01*
X192299678Y-77640052D01*
G37*
X192299678Y-77640052D02*
X191279678Y-77640052D01*
X191279678Y-76620052D01*
X192299678Y-76620052D01*
X192299678Y-77640052D01*
G36*
X178329678Y-76370052D02*
G01*
X177309678Y-76370052D01*
X177309678Y-75350052D01*
X178329678Y-75350052D01*
X178329678Y-76370052D01*
G37*
X178329678Y-76370052D02*
X177309678Y-76370052D01*
X177309678Y-75350052D01*
X178329678Y-75350052D01*
X178329678Y-76370052D01*
G36*
X217699678Y-85260052D02*
G01*
X216679678Y-85260052D01*
X216679678Y-84240052D01*
X217699678Y-84240052D01*
X217699678Y-85260052D01*
G37*
X217699678Y-85260052D02*
X216679678Y-85260052D01*
X216679678Y-84240052D01*
X217699678Y-84240052D01*
X217699678Y-85260052D01*
G36*
X207539678Y-82720052D02*
G01*
X206519678Y-82720052D01*
X206519678Y-81700052D01*
X207539678Y-81700052D01*
X207539678Y-82720052D01*
G37*
X207539678Y-82720052D02*
X206519678Y-82720052D01*
X206519678Y-81700052D01*
X207539678Y-81700052D01*
X207539678Y-82720052D01*
G36*
X175789678Y-80180052D02*
G01*
X174769678Y-80180052D01*
X174769678Y-79160052D01*
X175789678Y-79160052D01*
X175789678Y-80180052D01*
G37*
X175789678Y-80180052D02*
X174769678Y-80180052D01*
X174769678Y-79160052D01*
X175789678Y-79160052D01*
X175789678Y-80180052D01*
G36*
X180869678Y-77640052D02*
G01*
X179849678Y-77640052D01*
X179849678Y-76620052D01*
X180869678Y-76620052D01*
X180869678Y-77640052D01*
G37*
X180869678Y-77640052D02*
X179849678Y-77640052D01*
X179849678Y-76620052D01*
X180869678Y-76620052D01*
X180869678Y-77640052D01*
G36*
X183409678Y-81450052D02*
G01*
X182389678Y-81450052D01*
X182389678Y-80430052D01*
X183409678Y-80430052D01*
X183409678Y-81450052D01*
G37*
X183409678Y-81450052D02*
X182389678Y-81450052D01*
X182389678Y-80430052D01*
X183409678Y-80430052D01*
X183409678Y-81450052D01*
G36*
X193569678Y-76370052D02*
G01*
X192549678Y-76370052D01*
X192549678Y-75350052D01*
X193569678Y-75350052D01*
X193569678Y-76370052D01*
G37*
X193569678Y-76370052D02*
X192549678Y-76370052D01*
X192549678Y-75350052D01*
X193569678Y-75350052D01*
X193569678Y-76370052D01*
G36*
X185949678Y-80180052D02*
G01*
X184929678Y-80180052D01*
X184929678Y-79160052D01*
X185949678Y-79160052D01*
X185949678Y-80180052D01*
G37*
X185949678Y-80180052D02*
X184929678Y-80180052D01*
X184929678Y-79160052D01*
X185949678Y-79160052D01*
X185949678Y-80180052D01*
G36*
X182139678Y-77640052D02*
G01*
X181119678Y-77640052D01*
X181119678Y-76620052D01*
X182139678Y-76620052D01*
X182139678Y-77640052D01*
G37*
X182139678Y-77640052D02*
X181119678Y-77640052D01*
X181119678Y-76620052D01*
X182139678Y-76620052D01*
X182139678Y-77640052D01*
G36*
X197379678Y-82720052D02*
G01*
X196359678Y-82720052D01*
X196359678Y-81700052D01*
X197379678Y-81700052D01*
X197379678Y-82720052D01*
G37*
X197379678Y-82720052D02*
X196359678Y-82720052D01*
X196359678Y-81700052D01*
X197379678Y-81700052D01*
X197379678Y-82720052D01*
G36*
X179599678Y-81450052D02*
G01*
X178579678Y-81450052D01*
X178579678Y-80430052D01*
X179599678Y-80430052D01*
X179599678Y-81450052D01*
G37*
X179599678Y-81450052D02*
X178579678Y-81450052D01*
X178579678Y-80430052D01*
X179599678Y-80430052D01*
X179599678Y-81450052D01*
G36*
X189759678Y-78910052D02*
G01*
X188739678Y-78910052D01*
X188739678Y-77890052D01*
X189759678Y-77890052D01*
X189759678Y-78910052D01*
G37*
X189759678Y-78910052D02*
X188739678Y-78910052D01*
X188739678Y-77890052D01*
X189759678Y-77890052D01*
X189759678Y-78910052D01*
G36*
X216429678Y-77640052D02*
G01*
X215409678Y-77640052D01*
X215409678Y-76620052D01*
X216429678Y-76620052D01*
X216429678Y-77640052D01*
G37*
X216429678Y-77640052D02*
X215409678Y-77640052D01*
X215409678Y-76620052D01*
X216429678Y-76620052D01*
X216429678Y-77640052D01*
G36*
X189759678Y-85260052D02*
G01*
X188739678Y-85260052D01*
X188739678Y-84240052D01*
X189759678Y-84240052D01*
X189759678Y-85260052D01*
G37*
X189759678Y-85260052D02*
X188739678Y-85260052D01*
X188739678Y-84240052D01*
X189759678Y-84240052D01*
X189759678Y-85260052D01*
G36*
X221509678Y-81450052D02*
G01*
X220489678Y-81450052D01*
X220489678Y-80430052D01*
X221509678Y-80430052D01*
X221509678Y-81450052D01*
G37*
X221509678Y-81450052D02*
X220489678Y-81450052D01*
X220489678Y-80430052D01*
X221509678Y-80430052D01*
X221509678Y-81450052D01*
G36*
X202459678Y-78910052D02*
G01*
X201439678Y-78910052D01*
X201439678Y-77890052D01*
X202459678Y-77890052D01*
X202459678Y-78910052D01*
G37*
X202459678Y-78910052D02*
X201439678Y-78910052D01*
X201439678Y-77890052D01*
X202459678Y-77890052D01*
X202459678Y-78910052D01*
G36*
X179599678Y-83990052D02*
G01*
X178579678Y-83990052D01*
X178579678Y-82970052D01*
X179599678Y-82970052D01*
X179599678Y-83990052D01*
G37*
X179599678Y-83990052D02*
X178579678Y-83990052D01*
X178579678Y-82970052D01*
X179599678Y-82970052D01*
X179599678Y-83990052D01*
G36*
X206269678Y-76370052D02*
G01*
X205249678Y-76370052D01*
X205249678Y-75350052D01*
X206269678Y-75350052D01*
X206269678Y-76370052D01*
G37*
X206269678Y-76370052D02*
X205249678Y-76370052D01*
X205249678Y-75350052D01*
X206269678Y-75350052D01*
X206269678Y-76370052D01*
G36*
X213889678Y-76370052D02*
G01*
X212869678Y-76370052D01*
X212869678Y-75350052D01*
X213889678Y-75350052D01*
X213889678Y-76370052D01*
G37*
X213889678Y-76370052D02*
X212869678Y-76370052D01*
X212869678Y-75350052D01*
X213889678Y-75350052D01*
X213889678Y-76370052D01*
G36*
X203729678Y-83990052D02*
G01*
X202709678Y-83990052D01*
X202709678Y-82970052D01*
X203729678Y-82970052D01*
X203729678Y-83990052D01*
G37*
X203729678Y-83990052D02*
X202709678Y-83990052D01*
X202709678Y-82970052D01*
X203729678Y-82970052D01*
X203729678Y-83990052D01*
G36*
X178329678Y-83990052D02*
G01*
X177309678Y-83990052D01*
X177309678Y-82970052D01*
X178329678Y-82970052D01*
X178329678Y-83990052D01*
G37*
X178329678Y-83990052D02*
X177309678Y-83990052D01*
X177309678Y-82970052D01*
X178329678Y-82970052D01*
X178329678Y-83990052D01*
G36*
X177059678Y-83990052D02*
G01*
X176039678Y-83990052D01*
X176039678Y-82970052D01*
X177059678Y-82970052D01*
X177059678Y-83990052D01*
G37*
X177059678Y-83990052D02*
X176039678Y-83990052D01*
X176039678Y-82970052D01*
X177059678Y-82970052D01*
X177059678Y-83990052D01*
G36*
X215159678Y-80180052D02*
G01*
X214139678Y-80180052D01*
X214139678Y-79160052D01*
X215159678Y-79160052D01*
X215159678Y-80180052D01*
G37*
X215159678Y-80180052D02*
X214139678Y-80180052D01*
X214139678Y-79160052D01*
X215159678Y-79160052D01*
X215159678Y-80180052D01*
G36*
X187219678Y-81450052D02*
G01*
X186199678Y-81450052D01*
X186199678Y-80430052D01*
X187219678Y-80430052D01*
X187219678Y-81450052D01*
G37*
X187219678Y-81450052D02*
X186199678Y-81450052D01*
X186199678Y-80430052D01*
X187219678Y-80430052D01*
X187219678Y-81450052D01*
G36*
X212619678Y-78910052D02*
G01*
X211599678Y-78910052D01*
X211599678Y-77890052D01*
X212619678Y-77890052D01*
X212619678Y-78910052D01*
G37*
X212619678Y-78910052D02*
X211599678Y-78910052D01*
X211599678Y-77890052D01*
X212619678Y-77890052D01*
X212619678Y-78910052D01*
G36*
X220239678Y-76370052D02*
G01*
X219219678Y-76370052D01*
X219219678Y-75350052D01*
X220239678Y-75350052D01*
X220239678Y-76370052D01*
G37*
X220239678Y-76370052D02*
X219219678Y-76370052D01*
X219219678Y-75350052D01*
X220239678Y-75350052D01*
X220239678Y-76370052D01*
G36*
X222779678Y-83990052D02*
G01*
X221759678Y-83990052D01*
X221759678Y-82970052D01*
X222779678Y-82970052D01*
X222779678Y-83990052D01*
G37*
X222779678Y-83990052D02*
X221759678Y-83990052D01*
X221759678Y-82970052D01*
X222779678Y-82970052D01*
X222779678Y-83990052D01*
G36*
X208809678Y-76370052D02*
G01*
X207789678Y-76370052D01*
X207789678Y-75350052D01*
X208809678Y-75350052D01*
X208809678Y-76370052D01*
G37*
X208809678Y-76370052D02*
X207789678Y-76370052D01*
X207789678Y-75350052D01*
X208809678Y-75350052D01*
X208809678Y-76370052D01*
G36*
X212619678Y-77640052D02*
G01*
X211599678Y-77640052D01*
X211599678Y-76620052D01*
X212619678Y-76620052D01*
X212619678Y-77640052D01*
G37*
X212619678Y-77640052D02*
X211599678Y-77640052D01*
X211599678Y-76620052D01*
X212619678Y-76620052D01*
X212619678Y-77640052D01*
G36*
X212619678Y-81450052D02*
G01*
X211599678Y-81450052D01*
X211599678Y-80430052D01*
X212619678Y-80430052D01*
X212619678Y-81450052D01*
G37*
X212619678Y-81450052D02*
X211599678Y-81450052D01*
X211599678Y-80430052D01*
X212619678Y-80430052D01*
X212619678Y-81450052D01*
G36*
X174519678Y-83990052D02*
G01*
X173499678Y-83990052D01*
X173499678Y-82970052D01*
X174519678Y-82970052D01*
X174519678Y-83990052D01*
G37*
X174519678Y-83990052D02*
X173499678Y-83990052D01*
X173499678Y-82970052D01*
X174519678Y-82970052D01*
X174519678Y-83990052D01*
G36*
X217699678Y-81450052D02*
G01*
X216679678Y-81450052D01*
X216679678Y-80430052D01*
X217699678Y-80430052D01*
X217699678Y-81450052D01*
G37*
X217699678Y-81450052D02*
X216679678Y-81450052D01*
X216679678Y-80430052D01*
X217699678Y-80430052D01*
X217699678Y-81450052D01*
G36*
X198649678Y-82720052D02*
G01*
X197629678Y-82720052D01*
X197629678Y-81700052D01*
X198649678Y-81700052D01*
X198649678Y-82720052D01*
G37*
X198649678Y-82720052D02*
X197629678Y-82720052D01*
X197629678Y-81700052D01*
X198649678Y-81700052D01*
X198649678Y-82720052D01*
G36*
X212619678Y-82720052D02*
G01*
X211599678Y-82720052D01*
X211599678Y-81700052D01*
X212619678Y-81700052D01*
X212619678Y-82720052D01*
G37*
X212619678Y-82720052D02*
X211599678Y-82720052D01*
X211599678Y-81700052D01*
X212619678Y-81700052D01*
X212619678Y-82720052D01*
G36*
X188489678Y-85260052D02*
G01*
X187469678Y-85260052D01*
X187469678Y-84240052D01*
X188489678Y-84240052D01*
X188489678Y-85260052D01*
G37*
X188489678Y-85260052D02*
X187469678Y-85260052D01*
X187469678Y-84240052D01*
X188489678Y-84240052D01*
X188489678Y-85260052D01*
G36*
X216429678Y-85260052D02*
G01*
X215409678Y-85260052D01*
X215409678Y-84240052D01*
X216429678Y-84240052D01*
X216429678Y-85260052D01*
G37*
X216429678Y-85260052D02*
X215409678Y-85260052D01*
X215409678Y-84240052D01*
X216429678Y-84240052D01*
X216429678Y-85260052D01*
G36*
X182139678Y-83990052D02*
G01*
X181119678Y-83990052D01*
X181119678Y-82970052D01*
X182139678Y-82970052D01*
X182139678Y-83990052D01*
G37*
X182139678Y-83990052D02*
X181119678Y-83990052D01*
X181119678Y-82970052D01*
X182139678Y-82970052D01*
X182139678Y-83990052D01*
G36*
X182139678Y-81450052D02*
G01*
X181119678Y-81450052D01*
X181119678Y-80430052D01*
X182139678Y-80430052D01*
X182139678Y-81450052D01*
G37*
X182139678Y-81450052D02*
X181119678Y-81450052D01*
X181119678Y-80430052D01*
X182139678Y-80430052D01*
X182139678Y-81450052D01*
G36*
X199919678Y-80180052D02*
G01*
X198899678Y-80180052D01*
X198899678Y-79160052D01*
X199919678Y-79160052D01*
X199919678Y-80180052D01*
G37*
X199919678Y-80180052D02*
X198899678Y-80180052D01*
X198899678Y-79160052D01*
X199919678Y-79160052D01*
X199919678Y-80180052D01*
G36*
X174519678Y-82720052D02*
G01*
X173499678Y-82720052D01*
X173499678Y-81700052D01*
X174519678Y-81700052D01*
X174519678Y-82720052D01*
G37*
X174519678Y-82720052D02*
X173499678Y-82720052D01*
X173499678Y-81700052D01*
X174519678Y-81700052D01*
X174519678Y-82720052D01*
G36*
X183409678Y-78910052D02*
G01*
X182389678Y-78910052D01*
X182389678Y-77890052D01*
X183409678Y-77890052D01*
X183409678Y-78910052D01*
G37*
X183409678Y-78910052D02*
X182389678Y-78910052D01*
X182389678Y-77890052D01*
X183409678Y-77890052D01*
X183409678Y-78910052D01*
G36*
X203729678Y-80180052D02*
G01*
X202709678Y-80180052D01*
X202709678Y-79160052D01*
X203729678Y-79160052D01*
X203729678Y-80180052D01*
G37*
X203729678Y-80180052D02*
X202709678Y-80180052D01*
X202709678Y-79160052D01*
X203729678Y-79160052D01*
X203729678Y-80180052D01*
G36*
X175789678Y-76370052D02*
G01*
X174769678Y-76370052D01*
X174769678Y-75350052D01*
X175789678Y-75350052D01*
X175789678Y-76370052D01*
G37*
X175789678Y-76370052D02*
X174769678Y-76370052D01*
X174769678Y-75350052D01*
X175789678Y-75350052D01*
X175789678Y-76370052D01*
G36*
X177059678Y-76370052D02*
G01*
X176039678Y-76370052D01*
X176039678Y-75350052D01*
X177059678Y-75350052D01*
X177059678Y-76370052D01*
G37*
X177059678Y-76370052D02*
X176039678Y-76370052D01*
X176039678Y-75350052D01*
X177059678Y-75350052D01*
X177059678Y-76370052D01*
G36*
X222779678Y-80180052D02*
G01*
X221759678Y-80180052D01*
X221759678Y-79160052D01*
X222779678Y-79160052D01*
X222779678Y-80180052D01*
G37*
X222779678Y-80180052D02*
X221759678Y-80180052D01*
X221759678Y-79160052D01*
X222779678Y-79160052D01*
X222779678Y-80180052D01*
G36*
X174519678Y-85260052D02*
G01*
X173499678Y-85260052D01*
X173499678Y-84240052D01*
X174519678Y-84240052D01*
X174519678Y-85260052D01*
G37*
X174519678Y-85260052D02*
X173499678Y-85260052D01*
X173499678Y-84240052D01*
X174519678Y-84240052D01*
X174519678Y-85260052D01*
G36*
X221509678Y-85260052D02*
G01*
X220489678Y-85260052D01*
X220489678Y-84240052D01*
X221509678Y-84240052D01*
X221509678Y-85260052D01*
G37*
X221509678Y-85260052D02*
X220489678Y-85260052D01*
X220489678Y-84240052D01*
X221509678Y-84240052D01*
X221509678Y-85260052D01*
G36*
X199919678Y-78910052D02*
G01*
X198899678Y-78910052D01*
X198899678Y-77890052D01*
X199919678Y-77890052D01*
X199919678Y-78910052D01*
G37*
X199919678Y-78910052D02*
X198899678Y-78910052D01*
X198899678Y-77890052D01*
X199919678Y-77890052D01*
X199919678Y-78910052D01*
G36*
X220239678Y-82720052D02*
G01*
X219219678Y-82720052D01*
X219219678Y-81700052D01*
X220239678Y-81700052D01*
X220239678Y-82720052D01*
G37*
X220239678Y-82720052D02*
X219219678Y-82720052D01*
X219219678Y-81700052D01*
X220239678Y-81700052D01*
X220239678Y-82720052D01*
G36*
X184679678Y-83990052D02*
G01*
X183659678Y-83990052D01*
X183659678Y-82970052D01*
X184679678Y-82970052D01*
X184679678Y-83990052D01*
G37*
X184679678Y-83990052D02*
X183659678Y-83990052D01*
X183659678Y-82970052D01*
X184679678Y-82970052D01*
X184679678Y-83990052D01*
G36*
X213889678Y-85260052D02*
G01*
X212869678Y-85260052D01*
X212869678Y-84240052D01*
X213889678Y-84240052D01*
X213889678Y-85260052D01*
G37*
X213889678Y-85260052D02*
X212869678Y-85260052D01*
X212869678Y-84240052D01*
X213889678Y-84240052D01*
X213889678Y-85260052D01*
G36*
X199919678Y-82720052D02*
G01*
X198899678Y-82720052D01*
X198899678Y-81700052D01*
X199919678Y-81700052D01*
X199919678Y-82720052D01*
G37*
X199919678Y-82720052D02*
X198899678Y-82720052D01*
X198899678Y-81700052D01*
X199919678Y-81700052D01*
X199919678Y-82720052D01*
G36*
X199919678Y-76370052D02*
G01*
X198899678Y-76370052D01*
X198899678Y-75350052D01*
X199919678Y-75350052D01*
X199919678Y-76370052D01*
G37*
X199919678Y-76370052D02*
X198899678Y-76370052D01*
X198899678Y-75350052D01*
X199919678Y-75350052D01*
X199919678Y-76370052D01*
G36*
X204999678Y-81450052D02*
G01*
X203979678Y-81450052D01*
X203979678Y-80430052D01*
X204999678Y-80430052D01*
X204999678Y-81450052D01*
G37*
X204999678Y-81450052D02*
X203979678Y-81450052D01*
X203979678Y-80430052D01*
X204999678Y-80430052D01*
X204999678Y-81450052D01*
G36*
X201189678Y-82720052D02*
G01*
X200169678Y-82720052D01*
X200169678Y-81700052D01*
X201189678Y-81700052D01*
X201189678Y-82720052D01*
G37*
X201189678Y-82720052D02*
X200169678Y-82720052D01*
X200169678Y-81700052D01*
X201189678Y-81700052D01*
X201189678Y-82720052D01*
G36*
X180869678Y-85260052D02*
G01*
X179849678Y-85260052D01*
X179849678Y-84240052D01*
X180869678Y-84240052D01*
X180869678Y-85260052D01*
G37*
X180869678Y-85260052D02*
X179849678Y-85260052D01*
X179849678Y-84240052D01*
X180869678Y-84240052D01*
X180869678Y-85260052D01*
G36*
X216429678Y-78910052D02*
G01*
X215409678Y-78910052D01*
X215409678Y-77890052D01*
X216429678Y-77890052D01*
X216429678Y-78910052D01*
G37*
X216429678Y-78910052D02*
X215409678Y-78910052D01*
X215409678Y-77890052D01*
X216429678Y-77890052D01*
X216429678Y-78910052D01*
G36*
X210079678Y-77640052D02*
G01*
X209059678Y-77640052D01*
X209059678Y-76620052D01*
X210079678Y-76620052D01*
X210079678Y-77640052D01*
G37*
X210079678Y-77640052D02*
X209059678Y-77640052D01*
X209059678Y-76620052D01*
X210079678Y-76620052D01*
X210079678Y-77640052D01*
G36*
X173249678Y-80180052D02*
G01*
X172229678Y-80180052D01*
X172229678Y-79160052D01*
X173249678Y-79160052D01*
X173249678Y-80180052D01*
G37*
X173249678Y-80180052D02*
X172229678Y-80180052D01*
X172229678Y-79160052D01*
X173249678Y-79160052D01*
X173249678Y-80180052D01*
G36*
X189759678Y-82720052D02*
G01*
X188739678Y-82720052D01*
X188739678Y-81700052D01*
X189759678Y-81700052D01*
X189759678Y-82720052D01*
G37*
X189759678Y-82720052D02*
X188739678Y-82720052D01*
X188739678Y-81700052D01*
X189759678Y-81700052D01*
X189759678Y-82720052D01*
G36*
X220239678Y-78910052D02*
G01*
X219219678Y-78910052D01*
X219219678Y-77890052D01*
X220239678Y-77890052D01*
X220239678Y-78910052D01*
G37*
X220239678Y-78910052D02*
X219219678Y-78910052D01*
X219219678Y-77890052D01*
X220239678Y-77890052D01*
X220239678Y-78910052D01*
G36*
X185949678Y-77640052D02*
G01*
X184929678Y-77640052D01*
X184929678Y-76620052D01*
X185949678Y-76620052D01*
X185949678Y-77640052D01*
G37*
X185949678Y-77640052D02*
X184929678Y-77640052D01*
X184929678Y-76620052D01*
X185949678Y-76620052D01*
X185949678Y-77640052D01*
G36*
X199919678Y-85260052D02*
G01*
X198899678Y-85260052D01*
X198899678Y-84240052D01*
X199919678Y-84240052D01*
X199919678Y-85260052D01*
G37*
X199919678Y-85260052D02*
X198899678Y-85260052D01*
X198899678Y-84240052D01*
X199919678Y-84240052D01*
X199919678Y-85260052D01*
G36*
X198649678Y-83990052D02*
G01*
X197629678Y-83990052D01*
X197629678Y-82970052D01*
X198649678Y-82970052D01*
X198649678Y-83990052D01*
G37*
X198649678Y-83990052D02*
X197629678Y-83990052D01*
X197629678Y-82970052D01*
X198649678Y-82970052D01*
X198649678Y-83990052D01*
G36*
X208809678Y-77640052D02*
G01*
X207789678Y-77640052D01*
X207789678Y-76620052D01*
X208809678Y-76620052D01*
X208809678Y-77640052D01*
G37*
X208809678Y-77640052D02*
X207789678Y-77640052D01*
X207789678Y-76620052D01*
X208809678Y-76620052D01*
X208809678Y-77640052D01*
G36*
X174519678Y-80180052D02*
G01*
X173499678Y-80180052D01*
X173499678Y-79160052D01*
X174519678Y-79160052D01*
X174519678Y-80180052D01*
G37*
X174519678Y-80180052D02*
X173499678Y-80180052D01*
X173499678Y-79160052D01*
X174519678Y-79160052D01*
X174519678Y-80180052D01*
G36*
X204999678Y-80180052D02*
G01*
X203979678Y-80180052D01*
X203979678Y-79160052D01*
X204999678Y-79160052D01*
X204999678Y-80180052D01*
G37*
X204999678Y-80180052D02*
X203979678Y-80180052D01*
X203979678Y-79160052D01*
X204999678Y-79160052D01*
X204999678Y-80180052D01*
G36*
X211349678Y-76370052D02*
G01*
X210329678Y-76370052D01*
X210329678Y-75350052D01*
X211349678Y-75350052D01*
X211349678Y-76370052D01*
G37*
X211349678Y-76370052D02*
X210329678Y-76370052D01*
X210329678Y-75350052D01*
X211349678Y-75350052D01*
X211349678Y-76370052D01*
G36*
X194839678Y-81450052D02*
G01*
X193819678Y-81450052D01*
X193819678Y-80430052D01*
X194839678Y-80430052D01*
X194839678Y-81450052D01*
G37*
X194839678Y-81450052D02*
X193819678Y-81450052D01*
X193819678Y-80430052D01*
X194839678Y-80430052D01*
X194839678Y-81450052D01*
G36*
X183409678Y-85260052D02*
G01*
X182389678Y-85260052D01*
X182389678Y-84240052D01*
X183409678Y-84240052D01*
X183409678Y-85260052D01*
G37*
X183409678Y-85260052D02*
X182389678Y-85260052D01*
X182389678Y-84240052D01*
X183409678Y-84240052D01*
X183409678Y-85260052D01*
G36*
X213889678Y-80180052D02*
G01*
X212869678Y-80180052D01*
X212869678Y-79160052D01*
X213889678Y-79160052D01*
X213889678Y-80180052D01*
G37*
X213889678Y-80180052D02*
X212869678Y-80180052D01*
X212869678Y-79160052D01*
X213889678Y-79160052D01*
X213889678Y-80180052D01*
G36*
X215159678Y-82720052D02*
G01*
X214139678Y-82720052D01*
X214139678Y-81700052D01*
X215159678Y-81700052D01*
X215159678Y-82720052D01*
G37*
X215159678Y-82720052D02*
X214139678Y-82720052D01*
X214139678Y-81700052D01*
X215159678Y-81700052D01*
X215159678Y-82720052D01*
G36*
X174519678Y-77640052D02*
G01*
X173499678Y-77640052D01*
X173499678Y-76620052D01*
X174519678Y-76620052D01*
X174519678Y-77640052D01*
G37*
X174519678Y-77640052D02*
X173499678Y-77640052D01*
X173499678Y-76620052D01*
X174519678Y-76620052D01*
X174519678Y-77640052D01*
G36*
X196109678Y-78910052D02*
G01*
X195089678Y-78910052D01*
X195089678Y-77890052D01*
X196109678Y-77890052D01*
X196109678Y-78910052D01*
G37*
X196109678Y-78910052D02*
X195089678Y-78910052D01*
X195089678Y-77890052D01*
X196109678Y-77890052D01*
X196109678Y-78910052D01*
G36*
X206269678Y-77640052D02*
G01*
X205249678Y-77640052D01*
X205249678Y-76620052D01*
X206269678Y-76620052D01*
X206269678Y-77640052D01*
G37*
X206269678Y-77640052D02*
X205249678Y-77640052D01*
X205249678Y-76620052D01*
X206269678Y-76620052D01*
X206269678Y-77640052D01*
G36*
X203729678Y-76370052D02*
G01*
X202709678Y-76370052D01*
X202709678Y-75350052D01*
X203729678Y-75350052D01*
X203729678Y-76370052D01*
G37*
X203729678Y-76370052D02*
X202709678Y-76370052D01*
X202709678Y-75350052D01*
X203729678Y-75350052D01*
X203729678Y-76370052D01*
G36*
X180869678Y-80180052D02*
G01*
X179849678Y-80180052D01*
X179849678Y-79160052D01*
X180869678Y-79160052D01*
X180869678Y-80180052D01*
G37*
X180869678Y-80180052D02*
X179849678Y-80180052D01*
X179849678Y-79160052D01*
X180869678Y-79160052D01*
X180869678Y-80180052D01*
G36*
X202459678Y-77640052D02*
G01*
X201439678Y-77640052D01*
X201439678Y-76620052D01*
X202459678Y-76620052D01*
X202459678Y-77640052D01*
G37*
X202459678Y-77640052D02*
X201439678Y-77640052D01*
X201439678Y-76620052D01*
X202459678Y-76620052D01*
X202459678Y-77640052D01*
G36*
X179599678Y-76370052D02*
G01*
X178579678Y-76370052D01*
X178579678Y-75350052D01*
X179599678Y-75350052D01*
X179599678Y-76370052D01*
G37*
X179599678Y-76370052D02*
X178579678Y-76370052D01*
X178579678Y-75350052D01*
X179599678Y-75350052D01*
X179599678Y-76370052D01*
G36*
X222779678Y-85260052D02*
G01*
X221759678Y-85260052D01*
X221759678Y-84240052D01*
X222779678Y-84240052D01*
X222779678Y-85260052D01*
G37*
X222779678Y-85260052D02*
X221759678Y-85260052D01*
X221759678Y-84240052D01*
X222779678Y-84240052D01*
X222779678Y-85260052D01*
G36*
X194839678Y-77640052D02*
G01*
X193819678Y-77640052D01*
X193819678Y-76620052D01*
X194839678Y-76620052D01*
X194839678Y-77640052D01*
G37*
X194839678Y-77640052D02*
X193819678Y-77640052D01*
X193819678Y-76620052D01*
X194839678Y-76620052D01*
X194839678Y-77640052D01*
G36*
X210079678Y-85260052D02*
G01*
X209059678Y-85260052D01*
X209059678Y-84240052D01*
X210079678Y-84240052D01*
X210079678Y-85260052D01*
G37*
X210079678Y-85260052D02*
X209059678Y-85260052D01*
X209059678Y-84240052D01*
X210079678Y-84240052D01*
X210079678Y-85260052D01*
G36*
X180869678Y-83990052D02*
G01*
X179849678Y-83990052D01*
X179849678Y-82970052D01*
X180869678Y-82970052D01*
X180869678Y-83990052D01*
G37*
X180869678Y-83990052D02*
X179849678Y-83990052D01*
X179849678Y-82970052D01*
X180869678Y-82970052D01*
X180869678Y-83990052D01*
G36*
X202459678Y-76370052D02*
G01*
X201439678Y-76370052D01*
X201439678Y-75350052D01*
X202459678Y-75350052D01*
X202459678Y-76370052D01*
G37*
X202459678Y-76370052D02*
X201439678Y-76370052D01*
X201439678Y-75350052D01*
X202459678Y-75350052D01*
X202459678Y-76370052D01*
G36*
X180869678Y-82720052D02*
G01*
X179849678Y-82720052D01*
X179849678Y-81700052D01*
X180869678Y-81700052D01*
X180869678Y-82720052D01*
G37*
X180869678Y-82720052D02*
X179849678Y-82720052D01*
X179849678Y-81700052D01*
X180869678Y-81700052D01*
X180869678Y-82720052D01*
G36*
X179599678Y-77640052D02*
G01*
X178579678Y-77640052D01*
X178579678Y-76620052D01*
X179599678Y-76620052D01*
X179599678Y-77640052D01*
G37*
X179599678Y-77640052D02*
X178579678Y-77640052D01*
X178579678Y-76620052D01*
X179599678Y-76620052D01*
X179599678Y-77640052D01*
G36*
X204999678Y-77640052D02*
G01*
X203979678Y-77640052D01*
X203979678Y-76620052D01*
X204999678Y-76620052D01*
X204999678Y-77640052D01*
G37*
X204999678Y-77640052D02*
X203979678Y-77640052D01*
X203979678Y-76620052D01*
X204999678Y-76620052D01*
X204999678Y-77640052D01*
G36*
X184679678Y-77640052D02*
G01*
X183659678Y-77640052D01*
X183659678Y-76620052D01*
X184679678Y-76620052D01*
X184679678Y-77640052D01*
G37*
X184679678Y-77640052D02*
X183659678Y-77640052D01*
X183659678Y-76620052D01*
X184679678Y-76620052D01*
X184679678Y-77640052D01*
G36*
X187219678Y-77640052D02*
G01*
X186199678Y-77640052D01*
X186199678Y-76620052D01*
X187219678Y-76620052D01*
X187219678Y-77640052D01*
G37*
X187219678Y-77640052D02*
X186199678Y-77640052D01*
X186199678Y-76620052D01*
X187219678Y-76620052D01*
X187219678Y-77640052D01*
G36*
X216429678Y-83990052D02*
G01*
X215409678Y-83990052D01*
X215409678Y-82970052D01*
X216429678Y-82970052D01*
X216429678Y-83990052D01*
G37*
X216429678Y-83990052D02*
X215409678Y-83990052D01*
X215409678Y-82970052D01*
X216429678Y-82970052D01*
X216429678Y-83990052D01*
G36*
X192299678Y-78910052D02*
G01*
X191279678Y-78910052D01*
X191279678Y-77890052D01*
X192299678Y-77890052D01*
X192299678Y-78910052D01*
G37*
X192299678Y-78910052D02*
X191279678Y-78910052D01*
X191279678Y-77890052D01*
X192299678Y-77890052D01*
X192299678Y-78910052D01*
G36*
X220239678Y-85260052D02*
G01*
X219219678Y-85260052D01*
X219219678Y-84240052D01*
X220239678Y-84240052D01*
X220239678Y-85260052D01*
G37*
X220239678Y-85260052D02*
X219219678Y-85260052D01*
X219219678Y-84240052D01*
X220239678Y-84240052D01*
X220239678Y-85260052D01*
G36*
X185949678Y-82720052D02*
G01*
X184929678Y-82720052D01*
X184929678Y-81700052D01*
X185949678Y-81700052D01*
X185949678Y-82720052D01*
G37*
X185949678Y-82720052D02*
X184929678Y-82720052D01*
X184929678Y-81700052D01*
X185949678Y-81700052D01*
X185949678Y-82720052D01*
G36*
X189759678Y-80180052D02*
G01*
X188739678Y-80180052D01*
X188739678Y-79160052D01*
X189759678Y-79160052D01*
X189759678Y-80180052D01*
G37*
X189759678Y-80180052D02*
X188739678Y-80180052D01*
X188739678Y-79160052D01*
X189759678Y-79160052D01*
X189759678Y-80180052D01*
G36*
X189759678Y-76370052D02*
G01*
X188739678Y-76370052D01*
X188739678Y-75350052D01*
X189759678Y-75350052D01*
X189759678Y-76370052D01*
G37*
X189759678Y-76370052D02*
X188739678Y-76370052D01*
X188739678Y-75350052D01*
X189759678Y-75350052D01*
X189759678Y-76370052D01*
G36*
X198649678Y-81450052D02*
G01*
X197629678Y-81450052D01*
X197629678Y-80430052D01*
X198649678Y-80430052D01*
X198649678Y-81450052D01*
G37*
X198649678Y-81450052D02*
X197629678Y-81450052D01*
X197629678Y-80430052D01*
X198649678Y-80430052D01*
X198649678Y-81450052D01*
G36*
X216429678Y-81450052D02*
G01*
X215409678Y-81450052D01*
X215409678Y-80430052D01*
X216429678Y-80430052D01*
X216429678Y-81450052D01*
G37*
X216429678Y-81450052D02*
X215409678Y-81450052D01*
X215409678Y-80430052D01*
X216429678Y-80430052D01*
X216429678Y-81450052D01*
G36*
X177059678Y-82720052D02*
G01*
X176039678Y-82720052D01*
X176039678Y-81700052D01*
X177059678Y-81700052D01*
X177059678Y-82720052D01*
G37*
X177059678Y-82720052D02*
X176039678Y-82720052D01*
X176039678Y-81700052D01*
X177059678Y-81700052D01*
X177059678Y-82720052D01*
G36*
X178329678Y-80180052D02*
G01*
X177309678Y-80180052D01*
X177309678Y-79160052D01*
X178329678Y-79160052D01*
X178329678Y-80180052D01*
G37*
X178329678Y-80180052D02*
X177309678Y-80180052D01*
X177309678Y-79160052D01*
X178329678Y-79160052D01*
X178329678Y-80180052D01*
G36*
X196109678Y-82720052D02*
G01*
X195089678Y-82720052D01*
X195089678Y-81700052D01*
X196109678Y-81700052D01*
X196109678Y-82720052D01*
G37*
X196109678Y-82720052D02*
X195089678Y-82720052D01*
X195089678Y-81700052D01*
X196109678Y-81700052D01*
X196109678Y-82720052D01*
G36*
X175789678Y-78910052D02*
G01*
X174769678Y-78910052D01*
X174769678Y-77890052D01*
X175789678Y-77890052D01*
X175789678Y-78910052D01*
G37*
X175789678Y-78910052D02*
X174769678Y-78910052D01*
X174769678Y-77890052D01*
X175789678Y-77890052D01*
X175789678Y-78910052D01*
G36*
X191029678Y-76370052D02*
G01*
X190009678Y-76370052D01*
X190009678Y-75350052D01*
X191029678Y-75350052D01*
X191029678Y-76370052D01*
G37*
X191029678Y-76370052D02*
X190009678Y-76370052D01*
X190009678Y-75350052D01*
X191029678Y-75350052D01*
X191029678Y-76370052D01*
G36*
X189759678Y-77640052D02*
G01*
X188739678Y-77640052D01*
X188739678Y-76620052D01*
X189759678Y-76620052D01*
X189759678Y-77640052D01*
G37*
X189759678Y-77640052D02*
X188739678Y-77640052D01*
X188739678Y-76620052D01*
X189759678Y-76620052D01*
X189759678Y-77640052D01*
G36*
X198649678Y-77640052D02*
G01*
X197629678Y-77640052D01*
X197629678Y-76620052D01*
X198649678Y-76620052D01*
X198649678Y-77640052D01*
G37*
X198649678Y-77640052D02*
X197629678Y-77640052D01*
X197629678Y-76620052D01*
X198649678Y-76620052D01*
X198649678Y-77640052D01*
G36*
X189759678Y-83990052D02*
G01*
X188739678Y-83990052D01*
X188739678Y-82970052D01*
X189759678Y-82970052D01*
X189759678Y-83990052D01*
G37*
X189759678Y-83990052D02*
X188739678Y-83990052D01*
X188739678Y-82970052D01*
X189759678Y-82970052D01*
X189759678Y-83990052D01*
G36*
X221509678Y-78910052D02*
G01*
X220489678Y-78910052D01*
X220489678Y-77890052D01*
X221509678Y-77890052D01*
X221509678Y-78910052D01*
G37*
X221509678Y-78910052D02*
X220489678Y-78910052D01*
X220489678Y-77890052D01*
X221509678Y-77890052D01*
X221509678Y-78910052D01*
G36*
X212619678Y-80180052D02*
G01*
X211599678Y-80180052D01*
X211599678Y-79160052D01*
X212619678Y-79160052D01*
X212619678Y-80180052D01*
G37*
X212619678Y-80180052D02*
X211599678Y-80180052D01*
X211599678Y-79160052D01*
X212619678Y-79160052D01*
X212619678Y-80180052D01*
G36*
X220239678Y-77640052D02*
G01*
X219219678Y-77640052D01*
X219219678Y-76620052D01*
X220239678Y-76620052D01*
X220239678Y-77640052D01*
G37*
X220239678Y-77640052D02*
X219219678Y-77640052D01*
X219219678Y-76620052D01*
X220239678Y-76620052D01*
X220239678Y-77640052D01*
G36*
X197379678Y-81450052D02*
G01*
X196359678Y-81450052D01*
X196359678Y-80430052D01*
X197379678Y-80430052D01*
X197379678Y-81450052D01*
G37*
X197379678Y-81450052D02*
X196359678Y-81450052D01*
X196359678Y-80430052D01*
X197379678Y-80430052D01*
X197379678Y-81450052D01*
G36*
X173249678Y-82720052D02*
G01*
X172229678Y-82720052D01*
X172229678Y-81700052D01*
X173249678Y-81700052D01*
X173249678Y-82720052D01*
G37*
X173249678Y-82720052D02*
X172229678Y-82720052D01*
X172229678Y-81700052D01*
X173249678Y-81700052D01*
X173249678Y-82720052D01*
G36*
X215159678Y-77640052D02*
G01*
X214139678Y-77640052D01*
X214139678Y-76620052D01*
X215159678Y-76620052D01*
X215159678Y-77640052D01*
G37*
X215159678Y-77640052D02*
X214139678Y-77640052D01*
X214139678Y-76620052D01*
X215159678Y-76620052D01*
X215159678Y-77640052D01*
G36*
X183409678Y-77640052D02*
G01*
X182389678Y-77640052D01*
X182389678Y-76620052D01*
X183409678Y-76620052D01*
X183409678Y-77640052D01*
G37*
X183409678Y-77640052D02*
X182389678Y-77640052D01*
X182389678Y-76620052D01*
X183409678Y-76620052D01*
X183409678Y-77640052D01*
%TD*%
D11*
%TO.C,J1*%
X237173684Y-111430052D03*
X228673684Y-111430052D03*
%TD*%
%TO.C,J2*%
X222409184Y-111430052D03*
X213909184Y-111430052D03*
%TD*%
%TO.C,J3*%
X186048784Y-111430052D03*
X194548784Y-111430052D03*
%TD*%
%TO.C,J4*%
X207905784Y-111430052D03*
X199405784Y-111430052D03*
%TD*%
%TO.C,J6*%
X130456984Y-111603552D03*
X138956984Y-111603552D03*
%TD*%
%TO.C,J7*%
X102022484Y-111755952D03*
X110522484Y-111755952D03*
%TD*%
%TO.C,J8*%
X124809184Y-111755952D03*
X116309184Y-111755952D03*
%TD*%
%TO.C,J5*%
X145417584Y-111603552D03*
X153917584Y-111603552D03*
%TD*%
M02*
